<svg width="535" height="285" viewBox="0 0 535 285" fill="none" xmlns="http://www.w3.org/2000/svg">
<g clip-path="url(#clip0_5238_848)">
<rect width="535" height="285" fill="white"/>
<path d="M10.08 30L12.528 17.4H14.625L17.55 25.113L20.484 17.4H22.581L25.029 30H22.491L21.096 22.773L18.405 29.874H16.695L14.013 22.773L12.609 30H10.08ZM29.944 30.234C29.116 30.234 28.36 30.021 27.676 29.595C26.998 29.169 26.455 28.599 26.047 27.885C25.645 27.165 25.444 26.37 25.444 25.5C25.444 24.84 25.561 24.225 25.795 23.655C26.029 23.079 26.35 22.575 26.758 22.143C27.172 21.705 27.652 21.363 28.198 21.117C28.744 20.871 29.326 20.748 29.944 20.748C30.772 20.748 31.525 20.961 32.203 21.387C32.887 21.813 33.43 22.386 33.832 23.106C34.24 23.826 34.444 24.624 34.444 25.5C34.444 26.154 34.327 26.766 34.093 27.336C33.859 27.906 33.535 28.41 33.121 28.848C32.713 29.28 32.236 29.619 31.69 29.865C31.15 30.111 30.568 30.234 29.944 30.234ZM29.944 27.75C30.328 27.75 30.673 27.648 30.979 27.444C31.285 27.234 31.525 26.958 31.699 26.616C31.873 26.274 31.96 25.902 31.96 25.5C31.96 25.086 31.867 24.708 31.681 24.366C31.501 24.018 31.258 23.742 30.952 23.538C30.646 23.334 30.31 23.232 29.944 23.232C29.566 23.232 29.224 23.337 28.918 23.547C28.612 23.757 28.369 24.033 28.189 24.375C28.015 24.717 27.928 25.092 27.928 25.5C27.928 25.926 28.018 26.31 28.198 26.652C28.384 26.988 28.63 27.255 28.936 27.453C29.242 27.651 29.578 27.75 29.944 27.75ZM38.3195 30.162C37.8575 30.126 37.4135 30.03 36.9875 29.874C36.5615 29.712 36.1805 29.496 35.8445 29.226C35.5145 28.95 35.2565 28.62 35.0705 28.236L37.1585 27.336C37.2245 27.432 37.3235 27.537 37.4555 27.651C37.5875 27.759 37.7465 27.855 37.9325 27.939C38.1245 28.023 38.3465 28.065 38.5985 28.065C38.7845 28.065 38.9645 28.044 39.1385 28.002C39.3125 27.954 39.4535 27.879 39.5615 27.777C39.6695 27.669 39.7235 27.528 39.7235 27.354C39.7235 27.162 39.6545 27.015 39.5165 26.913C39.3785 26.811 39.2105 26.736 39.0125 26.688C38.8205 26.634 38.6345 26.589 38.4545 26.553C37.9025 26.457 37.3805 26.286 36.8885 26.04C36.4025 25.788 36.0065 25.464 35.7005 25.068C35.3945 24.672 35.2415 24.198 35.2415 23.646C35.2415 23.04 35.4005 22.518 35.7185 22.08C36.0365 21.636 36.4505 21.294 36.9605 21.054C37.4705 20.814 38.0225 20.694 38.6165 20.694C39.3185 20.694 39.9695 20.841 40.5695 21.135C41.1695 21.429 41.6525 21.843 42.0185 22.377L40.0565 23.538C39.9785 23.424 39.8765 23.316 39.7505 23.214C39.6305 23.106 39.4895 23.016 39.3275 22.944C39.1715 22.866 39.0035 22.821 38.8235 22.809C38.5895 22.791 38.3765 22.806 38.1845 22.854C37.9925 22.896 37.8395 22.977 37.7255 23.097C37.6175 23.217 37.5635 23.379 37.5635 23.583C37.5635 23.781 37.6505 23.928 37.8245 24.024C37.9985 24.114 38.1995 24.183 38.4275 24.231C38.6555 24.273 38.8565 24.324 39.0305 24.384C39.5525 24.552 40.0415 24.768 40.4975 25.032C40.9595 25.29 41.3315 25.608 41.6135 25.986C41.8955 26.364 42.0275 26.808 42.0095 27.318C42.0095 27.912 41.8325 28.434 41.4785 28.884C41.1245 29.328 40.6655 29.667 40.1015 29.901C39.5435 30.129 38.9495 30.216 38.3195 30.162ZM48.2563 23.484H46.6363V30H44.1523V23.484H42.9103V21H44.1523V18.174H46.6363V21H48.2563V23.484ZM53.846 30V17.4H58.49C59.18 17.4 59.801 17.574 60.353 17.922C60.911 18.27 61.355 18.735 61.685 19.317C62.015 19.893 62.18 20.529 62.18 21.225C62.18 21.933 62.012 22.578 61.676 23.16C61.34 23.736 60.89 24.195 60.326 24.537C59.768 24.879 59.156 25.05 58.49 25.05H56.33V30H53.846ZM56.33 22.566H58.211C58.487 22.566 58.736 22.5 58.958 22.368C59.18 22.23 59.357 22.047 59.489 21.819C59.627 21.585 59.696 21.327 59.696 21.045C59.696 20.769 59.627 20.517 59.489 20.289C59.357 20.055 59.18 19.869 58.958 19.731C58.736 19.593 58.487 19.524 58.211 19.524H56.33V22.566ZM66.9776 30.234C66.1496 30.234 65.3936 30.021 64.7096 29.595C64.0316 29.169 63.4886 28.599 63.0806 27.885C62.6786 27.165 62.4776 26.37 62.4776 25.5C62.4776 24.84 62.5946 24.225 62.8286 23.655C63.0626 23.079 63.3836 22.575 63.7916 22.143C64.2056 21.705 64.6856 21.363 65.2316 21.117C65.7776 20.871 66.3596 20.748 66.9776 20.748C67.8056 20.748 68.5586 20.961 69.2366 21.387C69.9206 21.813 70.4636 22.386 70.8656 23.106C71.2736 23.826 71.4776 24.624 71.4776 25.5C71.4776 26.154 71.3606 26.766 71.1266 27.336C70.8926 27.906 70.5686 28.41 70.1546 28.848C69.7466 29.28 69.2696 29.619 68.7236 29.865C68.1836 30.111 67.6016 30.234 66.9776 30.234ZM66.9776 27.75C67.3616 27.75 67.7066 27.648 68.0126 27.444C68.3186 27.234 68.5586 26.958 68.7326 26.616C68.9066 26.274 68.9936 25.902 68.9936 25.5C68.9936 25.086 68.9006 24.708 68.7146 24.366C68.5346 24.018 68.2916 23.742 67.9856 23.538C67.6796 23.334 67.3436 23.232 66.9776 23.232C66.5996 23.232 66.2576 23.337 65.9516 23.547C65.6456 23.757 65.4026 24.033 65.2226 24.375C65.0486 24.717 64.9616 25.092 64.9616 25.5C64.9616 25.926 65.0516 26.31 65.2316 26.652C65.4176 26.988 65.6636 27.255 65.9696 27.453C66.2756 27.651 66.6116 27.75 66.9776 27.75ZM75.1478 34.5H72.6638V21H75.1478V21.972C75.4358 21.618 75.7778 21.33 76.1738 21.108C76.5698 20.88 77.0318 20.766 77.5598 20.766C78.2138 20.766 78.8258 20.889 79.3958 21.135C79.9718 21.381 80.4758 21.723 80.9078 22.161C81.3398 22.593 81.6788 23.094 81.9248 23.664C82.1708 24.234 82.2938 24.846 82.2938 25.5C82.2938 26.154 82.1708 26.769 81.9248 27.345C81.6788 27.921 81.3398 28.428 80.9078 28.866C80.4758 29.298 79.9718 29.637 79.3958 29.883C78.8258 30.129 78.2138 30.252 77.5598 30.252C77.0318 30.252 76.5698 30.138 76.1738 29.91C75.7778 29.682 75.4358 29.394 75.1478 29.046V34.5ZM77.5238 23.151C77.1158 23.151 76.7468 23.259 76.4168 23.475C76.0928 23.685 75.8348 23.967 75.6428 24.321C75.4568 24.675 75.3638 25.068 75.3638 25.5C75.3638 25.932 75.4568 26.328 75.6428 26.688C75.8348 27.042 76.0928 27.324 76.4168 27.534C76.7468 27.744 77.1158 27.849 77.5238 27.849C77.9318 27.849 78.3038 27.744 78.6398 27.534C78.9818 27.324 79.2518 27.042 79.4498 26.688C79.6538 26.334 79.7558 25.938 79.7558 25.5C79.7558 25.074 79.6568 24.684 79.4588 24.33C79.2608 23.97 78.9908 23.685 78.6488 23.475C78.3128 23.259 77.9378 23.151 77.5238 23.151ZM82.8991 26.706V21H85.3831V26.022C85.3831 26.34 85.4581 26.628 85.6081 26.886C85.7641 27.138 85.9711 27.339 86.2291 27.489C86.4871 27.639 86.7691 27.714 87.0751 27.714C87.3871 27.714 87.6721 27.639 87.9301 27.489C88.1881 27.339 88.3921 27.138 88.5421 26.886C88.6921 26.628 88.7671 26.34 88.7671 26.022V21H91.2511L91.2601 30H88.7761L88.7671 29.316C88.4671 29.604 88.1131 29.829 87.7051 29.991C87.3031 30.153 86.8771 30.234 86.4271 30.234C85.7791 30.234 85.1881 30.075 84.6541 29.757C84.1201 29.439 83.6941 29.016 83.3761 28.488C83.0581 27.954 82.8991 27.36 82.8991 26.706ZM92.9053 30V16.5H95.3893V30H92.9053ZM103.796 21H106.28V30H103.787L103.67 29.064C103.436 29.412 103.136 29.694 102.77 29.91C102.404 30.126 101.975 30.234 101.483 30.234C100.811 30.234 100.184 30.108 99.6022 29.856C99.0202 29.604 98.5072 29.256 98.0632 28.812C97.6192 28.368 97.2712 27.855 97.0192 27.273C96.7732 26.685 96.6502 26.055 96.6502 25.383C96.6502 24.741 96.7672 24.141 97.0012 23.583C97.2352 23.025 97.5652 22.533 97.9912 22.107C98.4172 21.681 98.9062 21.348 99.4582 21.108C100.016 20.868 100.616 20.748 101.258 20.748C101.81 20.748 102.305 20.865 102.743 21.099C103.187 21.333 103.574 21.63 103.904 21.99L103.796 21ZM101.42 27.849C101.828 27.849 102.197 27.744 102.527 27.534C102.857 27.324 103.118 27.042 103.31 26.688C103.502 26.328 103.598 25.932 103.598 25.5C103.598 25.062 103.502 24.666 103.31 24.312C103.118 23.958 102.857 23.676 102.527 23.466C102.197 23.256 101.828 23.151 101.42 23.151C101.006 23.151 100.631 23.256 100.295 23.466C99.9592 23.676 99.6922 23.961 99.4942 24.321C99.2962 24.675 99.1972 25.068 99.1972 25.5C99.1972 25.932 99.2962 26.328 99.4942 26.688C99.6982 27.042 99.9682 27.324 100.304 27.534C100.64 27.744 101.012 27.849 101.42 27.849ZM107.918 30L107.909 21H110.393L110.402 21.666C110.702 21.378 111.053 21.153 111.455 20.991C111.863 20.829 112.292 20.748 112.742 20.748C113.072 20.748 113.402 20.796 113.732 20.892L112.751 23.403C112.535 23.313 112.316 23.268 112.094 23.268C111.782 23.268 111.497 23.343 111.239 23.493C110.981 23.643 110.777 23.847 110.627 24.105C110.477 24.357 110.402 24.642 110.402 24.96V30H107.918ZM123.169 17.4H125.995L130.567 30H127.93L127.174 27.912H121.99L121.234 30H118.597L123.169 17.4ZM122.899 25.428H126.265L124.573 20.811L122.899 25.428ZM136.62 27.156L138.852 28.362C138.438 28.926 137.919 29.379 137.295 29.721C136.671 30.063 135.99 30.234 135.252 30.234C134.424 30.234 133.668 30.021 132.984 29.595C132.306 29.169 131.763 28.599 131.355 27.885C130.953 27.165 130.752 26.37 130.752 25.5C130.752 24.84 130.869 24.225 131.103 23.655C131.337 23.079 131.658 22.575 132.066 22.143C132.48 21.705 132.96 21.363 133.506 21.117C134.052 20.871 134.634 20.748 135.252 20.748C135.99 20.748 136.671 20.919 137.295 21.261C137.919 21.603 138.438 22.062 138.852 22.638L136.62 23.844C136.434 23.646 136.221 23.496 135.981 23.394C135.747 23.286 135.504 23.232 135.252 23.232C134.868 23.232 134.523 23.337 134.217 23.547C133.917 23.757 133.677 24.036 133.497 24.384C133.323 24.726 133.236 25.098 133.236 25.5C133.236 25.896 133.326 26.265 133.506 26.607C133.686 26.949 133.926 27.225 134.226 27.435C134.532 27.645 134.874 27.75 135.252 27.75C135.51 27.75 135.756 27.696 135.99 27.588C136.224 27.48 136.434 27.336 136.62 27.156ZM145.184 23.484H143.564V30H141.08V23.484H139.838V21H141.08V18.174H143.564V21H145.184V23.484ZM146.454 21H148.938V30H146.454V21ZM147.714 19.965C147.354 19.965 147.051 19.845 146.805 19.605C146.559 19.365 146.436 19.068 146.436 18.714C146.436 18.36 146.559 18.063 146.805 17.823C147.051 17.583 147.351 17.463 147.705 17.463C148.059 17.463 148.356 17.583 148.596 17.823C148.842 18.063 148.965 18.36 148.965 18.714C148.965 19.068 148.845 19.365 148.605 19.605C148.371 19.845 148.074 19.965 147.714 19.965ZM156.53 30H153.317L150.041 21H152.687L154.919 27.147L157.151 21H159.806L156.53 30ZM160.912 21H163.396V30H160.912V21ZM162.172 19.965C161.812 19.965 161.509 19.845 161.263 19.605C161.017 19.365 160.894 19.068 160.894 18.714C160.894 18.36 161.017 18.063 161.263 17.823C161.509 17.583 161.809 17.463 162.163 17.463C162.517 17.463 162.814 17.583 163.054 17.823C163.3 18.063 163.423 18.36 163.423 18.714C163.423 19.068 163.303 19.365 163.063 19.605C162.829 19.845 162.532 19.965 162.172 19.965ZM170.269 23.484H168.649V30H166.165V23.484H164.923V21H166.165V18.174H168.649V21H170.269V23.484ZM171.539 21H174.023V30H171.539V21ZM172.799 19.965C172.439 19.965 172.136 19.845 171.89 19.605C171.644 19.365 171.521 19.068 171.521 18.714C171.521 18.36 171.644 18.063 171.89 17.823C172.136 17.583 172.436 17.463 172.79 17.463C173.144 17.463 173.441 17.583 173.681 17.823C173.927 18.063 174.05 18.36 174.05 18.714C174.05 19.068 173.93 19.365 173.69 19.605C173.456 19.845 173.159 19.965 172.799 19.965ZM179.713 30.234C178.885 30.234 178.129 30.021 177.445 29.595C176.767 29.169 176.224 28.596 175.816 27.876C175.414 27.156 175.213 26.361 175.213 25.491C175.213 24.837 175.33 24.225 175.564 23.655C175.798 23.079 176.119 22.575 176.527 22.143C176.941 21.705 177.421 21.363 177.967 21.117C178.513 20.871 179.095 20.748 179.713 20.748C180.427 20.748 181.078 20.901 181.666 21.207C182.26 21.513 182.761 21.93 183.169 22.458C183.583 22.986 183.877 23.583 184.051 24.249C184.231 24.915 184.261 25.608 184.141 26.328H177.895C177.973 26.592 178.093 26.832 178.255 27.048C178.423 27.258 178.627 27.426 178.867 27.552C179.113 27.678 179.395 27.744 179.713 27.75C180.025 27.756 180.313 27.684 180.577 27.534C180.841 27.384 181.066 27.183 181.252 26.931L183.79 27.516C183.424 28.314 182.878 28.968 182.152 29.478C181.426 29.982 180.613 30.234 179.713 30.234ZM177.805 24.492H181.63C181.552 24.192 181.42 23.922 181.234 23.682C181.048 23.442 180.823 23.253 180.559 23.115C180.301 22.977 180.019 22.908 179.713 22.908C179.413 22.908 179.131 22.977 178.867 23.115C178.609 23.253 178.387 23.442 178.201 23.682C178.021 23.916 177.889 24.186 177.805 24.492ZM188.089 30.162C187.627 30.126 187.183 30.03 186.757 29.874C186.331 29.712 185.95 29.496 185.614 29.226C185.284 28.95 185.026 28.62 184.84 28.236L186.928 27.336C186.994 27.432 187.093 27.537 187.225 27.651C187.357 27.759 187.516 27.855 187.702 27.939C187.894 28.023 188.116 28.065 188.368 28.065C188.554 28.065 188.734 28.044 188.908 28.002C189.082 27.954 189.223 27.879 189.331 27.777C189.439 27.669 189.493 27.528 189.493 27.354C189.493 27.162 189.424 27.015 189.286 26.913C189.148 26.811 188.98 26.736 188.782 26.688C188.59 26.634 188.404 26.589 188.224 26.553C187.672 26.457 187.15 26.286 186.658 26.04C186.172 25.788 185.776 25.464 185.47 25.068C185.164 24.672 185.011 24.198 185.011 23.646C185.011 23.04 185.17 22.518 185.488 22.08C185.806 21.636 186.22 21.294 186.73 21.054C187.24 20.814 187.792 20.694 188.386 20.694C189.088 20.694 189.739 20.841 190.339 21.135C190.939 21.429 191.422 21.843 191.788 22.377L189.826 23.538C189.748 23.424 189.646 23.316 189.52 23.214C189.4 23.106 189.259 23.016 189.097 22.944C188.941 22.866 188.773 22.821 188.593 22.809C188.359 22.791 188.146 22.806 187.954 22.854C187.762 22.896 187.609 22.977 187.495 23.097C187.387 23.217 187.333 23.379 187.333 23.583C187.333 23.781 187.42 23.928 187.594 24.024C187.768 24.114 187.969 24.183 188.197 24.231C188.425 24.273 188.626 24.324 188.8 24.384C189.322 24.552 189.811 24.768 190.267 25.032C190.729 25.29 191.101 25.608 191.383 25.986C191.665 26.364 191.797 26.808 191.779 27.318C191.779 27.912 191.602 28.434 191.248 28.884C190.894 29.328 190.435 29.667 189.871 29.901C189.313 30.129 188.719 30.216 188.089 30.162Z" fill="#450BC8"/>
<g filter="url(#filter0_d_5238_848)">
<rect x="9" y="47" width="163" height="200" rx="32" fill="#D0BCFF" fill-opacity="0.5" shape-rendering="crispEdges"/>
</g>
<g filter="url(#filter1_d_5238_848)">
<rect x="180" y="47" width="163" height="200" rx="32" fill="#D0BCFF" fill-opacity="0.5" shape-rendering="crispEdges"/>
</g>
<g filter="url(#filter2_d_5238_848)">
<rect x="351" y="47" width="163" height="200" rx="32" fill="#D0BCFF" fill-opacity="0.5" shape-rendering="crispEdges"/>
</g>
<rect x="17" y="54" width="146" height="185" rx="32" fill="white"/>
<rect x="188" y="54" width="146" height="185" rx="32" fill="white"/>
<rect x="359" y="54" width="146" height="185" rx="32" fill="white"/>
<rect x="385" y="211" width="95" height="22" rx="11" fill="#450BC8"/>
<path d="M405.6 226V219H408.18C408.563 219 408.908 219.097 409.215 219.29C409.525 219.483 409.772 219.742 409.955 220.065C410.138 220.385 410.23 220.738 410.23 221.125C410.23 221.518 410.137 221.877 409.95 222.2C409.763 222.52 409.513 222.775 409.2 222.965C408.89 223.155 408.55 223.25 408.18 223.25H406.98V226H405.6ZM406.98 221.87H408.025C408.178 221.87 408.317 221.833 408.44 221.76C408.563 221.683 408.662 221.582 408.735 221.455C408.812 221.325 408.85 221.182 408.85 221.025C408.85 220.872 408.812 220.732 408.735 220.605C408.662 220.475 408.563 220.372 408.44 220.295C408.317 220.218 408.178 220.18 408.025 220.18H406.98V221.87ZM412.118 226V219H413.498V224.62H416.318V226H412.118ZM420.516 219H422.086L424.626 226H423.161L422.741 224.84H419.861L419.441 226H417.976L420.516 219ZM420.366 223.46H422.236L421.296 220.895L420.366 223.46ZM429.511 219H431.141L428.721 222.845V226H427.341V222.845L424.921 219H426.551L428.031 221.345L429.511 219ZM436.44 226V219H437.93L440.66 223.505V219H442.04V226H440.55L437.82 221.495V226H436.44ZM447.487 226.13C447.013 226.13 446.568 226.037 446.152 225.85C445.735 225.66 445.368 225.398 445.052 225.065C444.735 224.732 444.487 224.347 444.307 223.91C444.127 223.47 444.037 223 444.037 222.5C444.037 222 444.127 221.532 444.307 221.095C444.487 220.655 444.735 220.268 445.052 219.935C445.368 219.602 445.735 219.342 446.152 219.155C446.568 218.965 447.013 218.87 447.487 218.87C447.963 218.87 448.41 218.965 448.827 219.155C449.243 219.342 449.61 219.602 449.927 219.935C450.243 220.268 450.49 220.655 450.667 221.095C450.847 221.532 450.937 222 450.937 222.5C450.937 223 450.847 223.47 450.667 223.91C450.49 224.347 450.243 224.732 449.927 225.065C449.61 225.398 449.243 225.66 448.827 225.85C448.41 226.037 447.963 226.13 447.487 226.13ZM447.487 224.75C447.77 224.75 448.037 224.692 448.287 224.575C448.537 224.455 448.757 224.292 448.947 224.085C449.137 223.878 449.285 223.64 449.392 223.37C449.502 223.1 449.557 222.81 449.557 222.5C449.557 222.19 449.502 221.9 449.392 221.63C449.285 221.357 449.137 221.118 448.947 220.915C448.757 220.708 448.537 220.547 448.287 220.43C448.037 220.31 447.77 220.25 447.487 220.25C447.203 220.25 446.937 220.31 446.687 220.43C446.437 220.547 446.217 220.708 446.027 220.915C445.837 221.122 445.687 221.36 445.577 221.63C445.47 221.9 445.417 222.19 445.417 222.5C445.417 222.81 445.47 223.102 445.577 223.375C445.687 223.645 445.837 223.883 446.027 224.09C446.217 224.293 446.437 224.455 446.687 224.575C446.937 224.692 447.203 224.75 447.487 224.75ZM454.221 226L452.431 219H453.856L454.996 223.475L456.136 219H457.401L458.541 223.475L459.681 219H461.106L459.326 226H457.766L456.771 222.11L455.781 226H454.221Z" fill="white"/>
<rect x="214" y="211" width="95" height="22" rx="11" fill="#450BC8"/>
<path d="M233.6 226V219H236.18C236.563 219 236.908 219.097 237.215 219.29C237.525 219.483 237.772 219.742 237.955 220.065C238.138 220.385 238.23 220.738 238.23 221.125C238.23 221.518 238.137 221.877 237.95 222.2C237.763 222.52 237.513 222.775 237.2 222.965C236.89 223.155 236.55 223.25 236.18 223.25H234.98V226H233.6ZM234.98 221.87H236.025C236.178 221.87 236.317 221.833 236.44 221.76C236.563 221.683 236.662 221.582 236.735 221.455C236.812 221.325 236.85 221.182 236.85 221.025C236.85 220.872 236.812 220.732 236.735 220.605C236.662 220.475 236.563 220.372 236.44 220.295C236.317 220.218 236.178 220.18 236.025 220.18H234.98V221.87ZM240.118 226V219H241.498V224.62H244.318V226H240.118ZM248.516 219H250.086L252.626 226H251.161L250.741 224.84H247.861L247.441 226H245.976L248.516 219ZM248.366 223.46H250.236L249.296 220.895L248.366 223.46ZM257.511 219H259.141L256.721 222.845V226H255.341V222.845L252.921 219H254.551L256.031 221.345L257.511 219ZM264.44 226V219H265.93L268.66 223.505V219H270.04V226H268.55L265.82 221.495V226H264.44ZM275.487 226.13C275.013 226.13 274.568 226.037 274.152 225.85C273.735 225.66 273.368 225.398 273.052 225.065C272.735 224.732 272.487 224.347 272.307 223.91C272.127 223.47 272.037 223 272.037 222.5C272.037 222 272.127 221.532 272.307 221.095C272.487 220.655 272.735 220.268 273.052 219.935C273.368 219.602 273.735 219.342 274.152 219.155C274.568 218.965 275.013 218.87 275.487 218.87C275.963 218.87 276.41 218.965 276.827 219.155C277.243 219.342 277.61 219.602 277.927 219.935C278.243 220.268 278.49 220.655 278.667 221.095C278.847 221.532 278.937 222 278.937 222.5C278.937 223 278.847 223.47 278.667 223.91C278.49 224.347 278.243 224.732 277.927 225.065C277.61 225.398 277.243 225.66 276.827 225.85C276.41 226.037 275.963 226.13 275.487 226.13ZM275.487 224.75C275.77 224.75 276.037 224.692 276.287 224.575C276.537 224.455 276.757 224.292 276.947 224.085C277.137 223.878 277.285 223.64 277.392 223.37C277.502 223.1 277.557 222.81 277.557 222.5C277.557 222.19 277.502 221.9 277.392 221.63C277.285 221.357 277.137 221.118 276.947 220.915C276.757 220.708 276.537 220.547 276.287 220.43C276.037 220.31 275.77 220.25 275.487 220.25C275.203 220.25 274.937 220.31 274.687 220.43C274.437 220.547 274.217 220.708 274.027 220.915C273.837 221.122 273.687 221.36 273.577 221.63C273.47 221.9 273.417 222.19 273.417 222.5C273.417 222.81 273.47 223.102 273.577 223.375C273.687 223.645 273.837 223.883 274.027 224.09C274.217 224.293 274.437 224.455 274.687 224.575C274.937 224.692 275.203 224.75 275.487 224.75ZM282.221 226L280.431 219H281.856L282.996 223.475L284.136 219H285.401L286.541 223.475L287.681 219H289.106L287.326 226H285.766L284.771 222.11L283.781 226H282.221Z" fill="white"/>
<rect x="43" y="211" width="95" height="22" rx="11" fill="#450BC8"/>
<path d="M62.8148 226V219H65.3948C65.7782 219 66.1232 219.097 66.4298 219.29C66.7398 219.483 66.9865 219.742 67.1698 220.065C67.3532 220.385 67.4448 220.738 67.4448 221.125C67.4448 221.518 67.3515 221.877 67.1648 222.2C66.9782 222.52 66.7282 222.775 66.4148 222.965C66.1048 223.155 65.7648 223.25 65.3948 223.25H64.1948V226H62.8148ZM64.1948 221.87H65.2398C65.3932 221.87 65.5315 221.833 65.6548 221.76C65.7782 221.683 65.8765 221.582 65.9498 221.455C66.0265 221.325 66.0648 221.182 66.0648 221.025C66.0648 220.872 66.0265 220.732 65.9498 220.605C65.8765 220.475 65.7782 220.372 65.6548 220.295C65.5315 220.218 65.3932 220.18 65.2398 220.18H64.1948V221.87ZM69.3324 226V219H70.7124V224.62H73.5324V226H69.3324ZM77.731 219H79.301L81.841 226H80.376L79.956 224.84H77.076L76.656 226H75.191L77.731 219ZM77.581 223.46H79.451L78.511 220.895L77.581 223.46ZM86.7259 219H88.3559L85.9359 222.845V226H84.5559V222.845L82.1359 219H83.7659L85.2459 221.345L86.7259 219ZM93.6547 226V219H95.1447L97.8747 223.505V219H99.2547V226H97.7647L95.0347 221.495V226H93.6547ZM104.702 226.13C104.228 226.13 103.783 226.037 103.367 225.85C102.95 225.66 102.583 225.398 102.267 225.065C101.95 224.732 101.702 224.347 101.522 223.91C101.342 223.47 101.252 223 101.252 222.5C101.252 222 101.342 221.532 101.522 221.095C101.702 220.655 101.95 220.268 102.267 219.935C102.583 219.602 102.95 219.342 103.367 219.155C103.783 218.965 104.228 218.87 104.702 218.87C105.178 218.87 105.625 218.965 106.042 219.155C106.458 219.342 106.825 219.602 107.142 219.935C107.458 220.268 107.705 220.655 107.882 221.095C108.062 221.532 108.152 222 108.152 222.5C108.152 223 108.062 223.47 107.882 223.91C107.705 224.347 107.458 224.732 107.142 225.065C106.825 225.398 106.458 225.66 106.042 225.85C105.625 226.037 105.178 226.13 104.702 226.13ZM104.702 224.75C104.985 224.75 105.252 224.692 105.502 224.575C105.752 224.455 105.972 224.292 106.162 224.085C106.352 223.878 106.5 223.64 106.607 223.37C106.717 223.1 106.772 222.81 106.772 222.5C106.772 222.19 106.717 221.9 106.607 221.63C106.5 221.357 106.352 221.118 106.162 220.915C105.972 220.708 105.752 220.547 105.502 220.43C105.252 220.31 104.985 220.25 104.702 220.25C104.418 220.25 104.152 220.31 103.902 220.43C103.652 220.547 103.432 220.708 103.242 220.915C103.052 221.122 102.902 221.36 102.792 221.63C102.685 221.9 102.632 222.19 102.632 222.5C102.632 222.81 102.685 223.102 102.792 223.375C102.902 223.645 103.052 223.883 103.242 224.09C103.432 224.293 103.652 224.455 103.902 224.575C104.152 224.692 104.418 224.75 104.702 224.75ZM111.436 226L109.646 219H111.071L112.211 223.475L113.351 219H114.616L115.756 223.475L116.896 219H118.321L116.541 226H114.981L113.986 222.11L112.996 226H111.436Z" fill="white"/>
<rect x="35" y="135" width="110" height="24" rx="12" fill="#D0BCFF" fill-opacity="0.5"/>
<path d="M48.0777 144H49.6477L52.1877 151H50.7227L50.3027 149.84H47.4227L47.0027 151H45.5377L48.0777 144ZM47.9277 148.46H49.7977L48.8577 145.895L47.9277 148.46ZM56.8625 151.13C56.3891 151.13 55.9441 151.037 55.5275 150.85C55.1108 150.66 54.7441 150.398 54.4275 150.065C54.1141 149.732 53.8675 149.347 53.6875 148.91C53.5108 148.47 53.4225 148 53.4225 147.5C53.4225 146.997 53.5108 146.527 53.6875 146.09C53.8675 145.65 54.1141 145.265 54.4275 144.935C54.7441 144.602 55.1108 144.342 55.5275 144.155C55.9441 143.965 56.3891 143.87 56.8625 143.87C57.4291 143.87 57.9508 144.002 58.4275 144.265C58.9041 144.525 59.2991 144.873 59.6125 145.31L58.3825 145.975C58.1958 145.755 57.9708 145.58 57.7075 145.45C57.4441 145.317 57.1625 145.25 56.8625 145.25C56.5791 145.25 56.3125 145.308 56.0625 145.425C55.8125 145.542 55.5925 145.703 55.4025 145.91C55.2158 146.117 55.0691 146.355 54.9625 146.625C54.8558 146.895 54.8025 147.187 54.8025 147.5C54.8025 147.81 54.8558 148.102 54.9625 148.375C55.0691 148.645 55.2158 148.883 55.4025 149.09C55.5925 149.293 55.8125 149.455 56.0625 149.575C56.3125 149.692 56.5791 149.75 56.8625 149.75C57.1658 149.75 57.4475 149.683 57.7075 149.55C57.9708 149.417 58.1958 149.24 58.3825 149.02L59.6125 149.69C59.2991 150.123 58.9041 150.472 58.4275 150.735C57.9508 150.998 57.4291 151.13 56.8625 151.13ZM66.8658 144V145.38H64.8058V151H63.4258V145.38H61.3658V144H66.8658ZM69.0146 151V144H70.3946V151H69.0146ZM75.165 151L72.625 144H74.09L76.055 149.405L78.02 144H79.48L76.94 151H75.165ZM81.5322 151V144H82.9122V151H81.5322ZM90.5631 144V145.38H88.5031V151H87.1231V145.38H85.0631V144H90.5631ZM96.8519 144H98.4819L96.0619 147.845V151H94.6819V147.845L92.2619 144H93.8919L95.3719 146.345L96.8519 144ZM103.781 151V144H105.271L108.001 148.505V144H109.381V151H107.891L105.161 146.495V151H103.781ZM113.918 144H115.488L118.028 151H116.563L116.143 149.84H113.263L112.843 151H111.378L113.918 144ZM113.768 148.46H115.638L114.698 145.895L113.768 148.46ZM119.628 151L120.988 144H122.153L123.778 148.285L125.408 144H126.573L127.933 151H126.523L125.748 146.985L124.253 150.93H123.303L121.813 146.985L121.033 151H119.628ZM129.935 151V144H134.365V145.38H131.315V146.56H133.695V147.94H131.315V149.62H134.365V151H129.935Z" fill="#450BC8"/>
<rect x="212" y="135" width="110" height="24" rx="12" fill="#D0BCFF" fill-opacity="0.5"/>
<path d="M225.078 144H226.648L229.188 151H227.723L227.303 149.84H224.423L224.003 151H222.538L225.078 144ZM224.928 148.46H226.798L225.858 145.895L224.928 148.46ZM233.862 151.13C233.389 151.13 232.944 151.037 232.527 150.85C232.111 150.66 231.744 150.398 231.427 150.065C231.114 149.732 230.867 149.347 230.687 148.91C230.511 148.47 230.422 148 230.422 147.5C230.422 146.997 230.511 146.527 230.687 146.09C230.867 145.65 231.114 145.265 231.427 144.935C231.744 144.602 232.111 144.342 232.527 144.155C232.944 143.965 233.389 143.87 233.862 143.87C234.429 143.87 234.951 144.002 235.427 144.265C235.904 144.525 236.299 144.873 236.612 145.31L235.382 145.975C235.196 145.755 234.971 145.58 234.707 145.45C234.444 145.317 234.162 145.25 233.862 145.25C233.579 145.25 233.312 145.308 233.062 145.425C232.812 145.542 232.592 145.703 232.402 145.91C232.216 146.117 232.069 146.355 231.962 146.625C231.856 146.895 231.802 147.187 231.802 147.5C231.802 147.81 231.856 148.102 231.962 148.375C232.069 148.645 232.216 148.883 232.402 149.09C232.592 149.293 232.812 149.455 233.062 149.575C233.312 149.692 233.579 149.75 233.862 149.75C234.166 149.75 234.447 149.683 234.707 149.55C234.971 149.417 235.196 149.24 235.382 149.02L236.612 149.69C236.299 150.123 235.904 150.472 235.427 150.735C234.951 150.998 234.429 151.13 233.862 151.13ZM243.866 144V145.38H241.806V151H240.426V145.38H238.366V144H243.866ZM246.015 151V144H247.395V151H246.015ZM252.165 151L249.625 144H251.09L253.055 149.405L255.02 144H256.48L253.94 151H252.165ZM258.532 151V144H259.912V151H258.532ZM267.563 144V145.38H265.503V151H264.123V145.38H262.063V144H267.563ZM273.852 144H275.482L273.062 147.845V151H271.682V147.845L269.262 144H270.892L272.372 146.345L273.852 144ZM280.781 151V144H282.271L285.001 148.505V144H286.381V151H284.891L282.161 146.495V151H280.781ZM290.918 144H292.488L295.028 151H293.563L293.143 149.84H290.263L289.843 151H288.378L290.918 144ZM290.768 148.46H292.638L291.698 145.895L290.768 148.46ZM296.628 151L297.988 144H299.153L300.778 148.285L302.408 144H303.573L304.933 151H303.523L302.748 146.985L301.253 150.93H300.303L298.813 146.985L298.033 151H296.628ZM306.935 151V144H311.365V145.38H308.315V146.56H310.695V147.94H308.315V149.62H311.365V151H306.935Z" fill="#450BC8"/>
<rect x="377" y="135" width="110" height="24" rx="12" fill="#D0BCFF" fill-opacity="0.5"/>
<path d="M390.078 144H391.648L394.188 151H392.723L392.303 149.84H389.423L389.003 151H387.538L390.078 144ZM389.928 148.46H391.798L390.858 145.895L389.928 148.46ZM398.862 151.13C398.389 151.13 397.944 151.037 397.527 150.85C397.111 150.66 396.744 150.398 396.427 150.065C396.114 149.732 395.867 149.347 395.687 148.91C395.511 148.47 395.422 148 395.422 147.5C395.422 146.997 395.511 146.527 395.687 146.09C395.867 145.65 396.114 145.265 396.427 144.935C396.744 144.602 397.111 144.342 397.527 144.155C397.944 143.965 398.389 143.87 398.862 143.87C399.429 143.87 399.951 144.002 400.427 144.265C400.904 144.525 401.299 144.873 401.612 145.31L400.382 145.975C400.196 145.755 399.971 145.58 399.707 145.45C399.444 145.317 399.162 145.25 398.862 145.25C398.579 145.25 398.312 145.308 398.062 145.425C397.812 145.542 397.592 145.703 397.402 145.91C397.216 146.117 397.069 146.355 396.962 146.625C396.856 146.895 396.802 147.187 396.802 147.5C396.802 147.81 396.856 148.102 396.962 148.375C397.069 148.645 397.216 148.883 397.402 149.09C397.592 149.293 397.812 149.455 398.062 149.575C398.312 149.692 398.579 149.75 398.862 149.75C399.166 149.75 399.447 149.683 399.707 149.55C399.971 149.417 400.196 149.24 400.382 149.02L401.612 149.69C401.299 150.123 400.904 150.472 400.427 150.735C399.951 150.998 399.429 151.13 398.862 151.13ZM408.866 144V145.38H406.806V151H405.426V145.38H403.366V144H408.866ZM411.015 151V144H412.395V151H411.015ZM417.165 151L414.625 144H416.09L418.055 149.405L420.02 144H421.48L418.94 151H417.165ZM423.532 151V144H424.912V151H423.532ZM432.563 144V145.38H430.503V151H429.123V145.38H427.063V144H432.563ZM438.852 144H440.482L438.062 147.845V151H436.682V147.845L434.262 144H435.892L437.372 146.345L438.852 144ZM445.781 151V144H447.271L450.001 148.505V144H451.381V151H449.891L447.161 146.495V151H445.781ZM455.918 144H457.488L460.028 151H458.563L458.143 149.84H455.263L454.843 151H453.378L455.918 144ZM455.768 148.46H457.638L456.698 145.895L455.768 148.46ZM461.628 151L462.988 144H464.153L465.778 148.285L467.408 144H468.573L469.933 151H468.523L467.748 146.985L466.253 150.93H465.303L463.813 146.985L463.033 151H461.628ZM471.935 151V144H476.365V145.38H473.315V146.56H475.695V147.94H473.315V149.62H476.365V151H471.935Z" fill="#450BC8"/>
<path d="M41.02 174L44.22 167H44.95L48.15 174H47.37L44.43 167.43H44.73L41.79 174H41.02ZM42.28 172.13L42.5 171.53H46.57L46.79 172.13H42.28ZM51.2891 174.05C50.7691 174.05 50.3025 173.937 49.8891 173.71C49.4825 173.477 49.1625 173.16 48.9291 172.76C48.6958 172.353 48.5791 171.89 48.5791 171.37C48.5791 170.843 48.6958 170.38 48.9291 169.98C49.1625 169.58 49.4825 169.267 49.8891 169.04C50.3025 168.813 50.7691 168.7 51.2891 168.7C51.7358 168.7 52.1391 168.787 52.4991 168.96C52.8591 169.133 53.1425 169.393 53.3491 169.74L52.8191 170.1C52.6391 169.833 52.4158 169.637 52.1491 169.51C51.8825 169.383 51.5925 169.32 51.2791 169.32C50.9058 169.32 50.5691 169.407 50.2691 169.58C49.9691 169.747 49.7325 169.983 49.5591 170.29C49.3858 170.597 49.2991 170.957 49.2991 171.37C49.2991 171.783 49.3858 172.143 49.5591 172.45C49.7325 172.757 49.9691 172.997 50.2691 173.17C50.5691 173.337 50.9058 173.42 51.2791 173.42C51.5925 173.42 51.8825 173.357 52.1491 173.23C52.4158 173.103 52.6391 172.91 52.8191 172.65L53.3491 173.01C53.1425 173.35 52.8591 173.61 52.4991 173.79C52.1391 173.963 51.7358 174.05 51.2891 174.05ZM56.4625 174.05C55.9692 174.05 55.5892 173.917 55.3225 173.65C55.0558 173.383 54.9225 173.007 54.9225 172.52V167.59H55.6325V172.48C55.6325 172.787 55.7092 173.023 55.8625 173.19C56.0225 173.357 56.2492 173.44 56.5425 173.44C56.8558 173.44 57.1158 173.35 57.3225 173.17L57.5725 173.68C57.4325 173.807 57.2625 173.9 57.0625 173.96C56.8692 174.02 56.6692 174.05 56.4625 174.05ZM53.9825 169.34V168.75H57.2325V169.34H53.9825ZM58.865 174V168.75H59.575V174H58.865ZM59.225 167.59C59.0783 167.59 58.955 167.54 58.855 167.44C58.755 167.34 58.705 167.22 58.705 167.08C58.705 166.94 58.755 166.823 58.855 166.73C58.955 166.63 59.0783 166.58 59.225 166.58C59.3717 166.58 59.495 166.627 59.595 166.72C59.695 166.813 59.745 166.93 59.745 167.07C59.745 167.217 59.695 167.34 59.595 167.44C59.5017 167.54 59.3783 167.59 59.225 167.59ZM62.9005 174L60.5705 168.75H61.3105L63.4505 173.62H63.1005L65.2705 168.75H65.9705L63.6305 174H62.9005ZM66.9705 174V168.75H67.6805V174H66.9705ZM67.3305 167.59C67.1838 167.59 67.0605 167.54 66.9605 167.44C66.8605 167.34 66.8105 167.22 66.8105 167.08C66.8105 166.94 66.8605 166.823 66.9605 166.73C67.0605 166.63 67.1838 166.58 67.3305 166.58C67.4771 166.58 67.6005 166.627 67.7005 166.72C67.8005 166.813 67.8505 166.93 67.8505 167.07C67.8505 167.217 67.8005 167.34 67.7005 167.44C67.6071 167.54 67.4838 167.59 67.3305 167.59ZM71.316 174.05C70.8227 174.05 70.4427 173.917 70.176 173.65C69.9093 173.383 69.776 173.007 69.776 172.52V167.59H70.486V172.48C70.486 172.787 70.5627 173.023 70.716 173.19C70.876 173.357 71.1027 173.44 71.396 173.44C71.7093 173.44 71.9693 173.35 72.176 173.17L72.426 173.68C72.286 173.807 72.116 173.9 71.916 173.96C71.7227 174.02 71.5227 174.05 71.316 174.05ZM68.836 169.34V168.75H72.086V169.34H68.836ZM73.6609 175.99C73.4142 175.99 73.1775 175.95 72.9509 175.87C72.7309 175.79 72.5409 175.67 72.3809 175.51L72.7109 174.98C72.8442 175.107 72.9875 175.203 73.1409 175.27C73.3009 175.343 73.4775 175.38 73.6709 175.38C73.9042 175.38 74.1042 175.313 74.2709 175.18C74.4442 175.053 74.6075 174.827 74.7609 174.5L75.1009 173.73L75.1809 173.62L77.3409 168.75H78.0409L75.4109 174.63C75.2642 174.97 75.1009 175.24 74.9209 175.44C74.7475 175.64 74.5575 175.78 74.3509 175.86C74.1442 175.947 73.9142 175.99 73.6609 175.99ZM75.0609 174.15L72.6409 168.75H73.3809L75.5209 173.57L75.0609 174.15ZM81.808 174V167H84.658C85.4046 167 86.058 167.15 86.618 167.45C87.1846 167.743 87.6246 168.153 87.938 168.68C88.2513 169.207 88.408 169.813 88.408 170.5C88.408 171.187 88.2513 171.793 87.938 172.32C87.6246 172.847 87.1846 173.26 86.618 173.56C86.058 173.853 85.4046 174 84.658 174H81.808ZM82.548 173.36H84.618C85.238 173.36 85.7746 173.24 86.228 173C86.688 172.753 87.0446 172.417 87.298 171.99C87.5513 171.557 87.678 171.06 87.678 170.5C87.678 169.933 87.5513 169.437 87.298 169.01C87.0446 168.583 86.688 168.25 86.228 168.01C85.7746 167.763 85.238 167.64 84.618 167.64H82.548V173.36ZM92.1497 174.05C91.603 174.05 91.123 173.937 90.7097 173.71C90.2964 173.477 89.973 173.16 89.7397 172.76C89.5064 172.353 89.3897 171.89 89.3897 171.37C89.3897 170.85 89.4997 170.39 89.7197 169.99C89.9464 169.59 90.253 169.277 90.6397 169.05C91.033 168.817 91.473 168.7 91.9597 168.7C92.453 168.7 92.8897 168.813 93.2697 169.04C93.6564 169.26 93.9597 169.573 94.1797 169.98C94.3997 170.38 94.5097 170.843 94.5097 171.37C94.5097 171.403 94.5064 171.44 94.4997 171.48C94.4997 171.513 94.4997 171.55 94.4997 171.59H89.9297V171.06H94.1197L93.8397 171.27C93.8397 170.89 93.7564 170.553 93.5897 170.26C93.4297 169.96 93.2097 169.727 92.9297 169.56C92.6497 169.393 92.3264 169.31 91.9597 169.31C91.5997 169.31 91.2764 169.393 90.9897 169.56C90.703 169.727 90.4797 169.96 90.3197 170.26C90.1597 170.56 90.0797 170.903 90.0797 171.29V171.4C90.0797 171.8 90.1664 172.153 90.3397 172.46C90.5197 172.76 90.7664 172.997 91.0797 173.17C91.3997 173.337 91.763 173.42 92.1697 173.42C92.4897 173.42 92.7864 173.363 93.0597 173.25C93.3397 173.137 93.5797 172.963 93.7797 172.73L94.1797 173.19C93.9464 173.47 93.653 173.683 93.2997 173.83C92.953 173.977 92.5697 174.05 92.1497 174.05ZM97.3648 174.05C96.9315 174.05 96.5215 173.99 96.1348 173.87C95.7482 173.743 95.4448 173.587 95.2248 173.4L95.5448 172.84C95.7582 173 96.0315 173.14 96.3648 173.26C96.6982 173.373 97.0482 173.43 97.4148 173.43C97.9148 173.43 98.2748 173.353 98.4948 173.2C98.7148 173.04 98.8248 172.83 98.8248 172.57C98.8248 172.377 98.7615 172.227 98.6348 172.12C98.5148 172.007 98.3548 171.923 98.1548 171.87C97.9548 171.81 97.7315 171.76 97.4848 171.72C97.2382 171.68 96.9915 171.633 96.7448 171.58C96.5048 171.527 96.2848 171.45 96.0848 171.35C95.8848 171.243 95.7215 171.1 95.5948 170.92C95.4748 170.74 95.4148 170.5 95.4148 170.2C95.4148 169.913 95.4948 169.657 95.6548 169.43C95.8148 169.203 96.0482 169.027 96.3548 168.9C96.6682 168.767 97.0482 168.7 97.4948 168.7C97.8348 168.7 98.1748 168.747 98.5148 168.84C98.8548 168.927 99.1348 169.043 99.3548 169.19L99.0448 169.76C98.8115 169.6 98.5615 169.487 98.2948 169.42C98.0282 169.347 97.7615 169.31 97.4948 169.31C97.0215 169.31 96.6715 169.393 96.4448 169.56C96.2248 169.72 96.1148 169.927 96.1148 170.18C96.1148 170.38 96.1748 170.537 96.2948 170.65C96.4215 170.763 96.5848 170.853 96.7848 170.92C96.9915 170.98 97.2148 171.03 97.4548 171.07C97.7015 171.11 97.9448 171.16 98.1848 171.22C98.4315 171.273 98.6548 171.35 98.8548 171.45C99.0615 171.543 99.2248 171.68 99.3448 171.86C99.4715 172.033 99.5348 172.263 99.5348 172.55C99.5348 172.857 99.4482 173.123 99.2748 173.35C99.1082 173.57 98.8615 173.743 98.5348 173.87C98.2148 173.99 97.8248 174.05 97.3648 174.05ZM103.018 174.05C102.498 174.05 102.031 173.937 101.618 173.71C101.211 173.477 100.891 173.16 100.658 172.76C100.424 172.353 100.308 171.89 100.308 171.37C100.308 170.843 100.424 170.38 100.658 169.98C100.891 169.58 101.211 169.267 101.618 169.04C102.031 168.813 102.498 168.7 103.018 168.7C103.464 168.7 103.868 168.787 104.228 168.96C104.588 169.133 104.871 169.393 105.078 169.74L104.548 170.1C104.368 169.833 104.144 169.637 103.878 169.51C103.611 169.383 103.321 169.32 103.008 169.32C102.634 169.32 102.298 169.407 101.998 169.58C101.698 169.747 101.461 169.983 101.288 170.29C101.114 170.597 101.028 170.957 101.028 171.37C101.028 171.783 101.114 172.143 101.288 172.45C101.461 172.757 101.698 172.997 101.998 173.17C102.298 173.337 102.634 173.42 103.008 173.42C103.321 173.42 103.611 173.357 103.878 173.23C104.144 173.103 104.368 172.91 104.548 172.65L105.078 173.01C104.871 173.35 104.588 173.61 104.228 173.79C103.868 173.963 103.464 174.05 103.018 174.05ZM106.472 174V168.75H107.152V170.18L107.082 169.93C107.229 169.53 107.476 169.227 107.822 169.02C108.169 168.807 108.599 168.7 109.112 168.7V169.39C109.086 169.39 109.059 169.39 109.032 169.39C109.006 169.383 108.979 169.38 108.952 169.38C108.399 169.38 107.966 169.55 107.652 169.89C107.339 170.223 107.182 170.7 107.182 171.32V174H106.472ZM110.408 174V168.75H111.118V174H110.408ZM110.768 167.59C110.621 167.59 110.498 167.54 110.398 167.44C110.298 167.34 110.248 167.22 110.248 167.08C110.248 166.94 110.298 166.823 110.398 166.73C110.498 166.63 110.621 166.58 110.768 166.58C110.915 166.58 111.038 166.627 111.138 166.72C111.238 166.813 111.288 166.93 111.288 167.07C111.288 167.217 111.238 167.34 111.138 167.44C111.045 167.54 110.921 167.59 110.768 167.59ZM115.804 174.05C115.35 174.05 114.94 173.947 114.574 173.74C114.207 173.527 113.914 173.223 113.694 172.83C113.48 172.43 113.374 171.943 113.374 171.37C113.374 170.797 113.48 170.313 113.694 169.92C113.907 169.52 114.197 169.217 114.564 169.01C114.93 168.803 115.344 168.7 115.804 168.7C116.304 168.7 116.75 168.813 117.144 169.04C117.544 169.26 117.857 169.573 118.084 169.98C118.31 170.38 118.424 170.843 118.424 171.37C118.424 171.903 118.31 172.37 118.084 172.77C117.857 173.17 117.544 173.483 117.144 173.71C116.75 173.937 116.304 174.05 115.804 174.05ZM113.094 175.94V168.75H113.774V170.33L113.704 171.38L113.804 172.44V175.94H113.094ZM115.754 173.42C116.127 173.42 116.46 173.337 116.754 173.17C117.047 172.997 117.28 172.757 117.454 172.45C117.627 172.137 117.714 171.777 117.714 171.37C117.714 170.963 117.627 170.607 117.454 170.3C117.28 169.993 117.047 169.753 116.754 169.58C116.46 169.407 116.127 169.32 115.754 169.32C115.38 169.32 115.044 169.407 114.744 169.58C114.45 169.753 114.217 169.993 114.044 170.3C113.877 170.607 113.794 170.963 113.794 171.37C113.794 171.777 113.877 172.137 114.044 172.45C114.217 172.757 114.45 172.997 114.744 173.17C115.044 173.337 115.38 173.42 115.754 173.42ZM121.531 174.05C121.038 174.05 120.658 173.917 120.391 173.65C120.124 173.383 119.991 173.007 119.991 172.52V167.59H120.701V172.48C120.701 172.787 120.778 173.023 120.931 173.19C121.091 173.357 121.318 173.44 121.611 173.44C121.924 173.44 122.184 173.35 122.391 173.17L122.641 173.68C122.501 173.807 122.331 173.9 122.131 173.96C121.938 174.02 121.738 174.05 121.531 174.05ZM119.051 169.34V168.75H122.301V169.34H119.051ZM123.933 174V168.75H124.643V174H123.933ZM124.293 167.59C124.147 167.59 124.023 167.54 123.923 167.44C123.823 167.34 123.773 167.22 123.773 167.08C123.773 166.94 123.823 166.823 123.923 166.73C124.023 166.63 124.147 166.58 124.293 166.58C124.44 166.58 124.563 166.627 124.663 166.72C124.763 166.813 124.813 166.93 124.813 167.07C124.813 167.217 124.763 167.34 124.663 167.44C124.57 167.54 124.447 167.59 124.293 167.59ZM128.759 174.05C128.252 174.05 127.796 173.937 127.389 173.71C126.989 173.477 126.672 173.16 126.439 172.76C126.206 172.353 126.089 171.89 126.089 171.37C126.089 170.843 126.206 170.38 126.439 169.98C126.672 169.58 126.989 169.267 127.389 169.04C127.789 168.813 128.246 168.7 128.759 168.7C129.279 168.7 129.739 168.813 130.139 169.04C130.546 169.267 130.862 169.58 131.089 169.98C131.322 170.38 131.439 170.843 131.439 171.37C131.439 171.89 131.322 172.353 131.089 172.76C130.862 173.16 130.546 173.477 130.139 173.71C129.732 173.937 129.272 174.05 128.759 174.05ZM128.759 173.42C129.139 173.42 129.476 173.337 129.769 173.17C130.062 172.997 130.292 172.757 130.459 172.45C130.632 172.137 130.719 171.777 130.719 171.37C130.719 170.957 130.632 170.597 130.459 170.29C130.292 169.983 130.062 169.747 129.769 169.58C129.476 169.407 129.142 169.32 128.769 169.32C128.396 169.32 128.062 169.407 127.769 169.58C127.476 169.747 127.242 169.983 127.069 170.29C126.896 170.597 126.809 170.957 126.809 171.37C126.809 171.777 126.896 172.137 127.069 172.45C127.242 172.757 127.476 172.997 127.769 173.17C128.062 173.337 128.392 173.42 128.759 173.42ZM135.568 168.7C135.995 168.7 136.368 168.783 136.688 168.95C137.015 169.11 137.268 169.357 137.448 169.69C137.635 170.023 137.728 170.443 137.728 170.95V174H137.018V171.02C137.018 170.467 136.878 170.05 136.598 169.77C136.325 169.483 135.938 169.34 135.438 169.34C135.065 169.34 134.738 169.417 134.458 169.57C134.185 169.717 133.972 169.933 133.818 170.22C133.672 170.5 133.598 170.84 133.598 171.24V174H132.888V168.75H133.568V170.19L133.458 169.92C133.625 169.54 133.892 169.243 134.258 169.03C134.625 168.81 135.062 168.7 135.568 168.7Z" fill="#450BC8" fill-opacity="0.3"/>
<path d="M214.02 174L217.22 167H217.95L221.15 174H220.37L217.43 167.43H217.73L214.79 174H214.02ZM215.28 172.13L215.5 171.53H219.57L219.79 172.13H215.28ZM224.289 174.05C223.769 174.05 223.302 173.937 222.889 173.71C222.482 173.477 222.162 173.16 221.929 172.76C221.696 172.353 221.579 171.89 221.579 171.37C221.579 170.843 221.696 170.38 221.929 169.98C222.162 169.58 222.482 169.267 222.889 169.04C223.302 168.813 223.769 168.7 224.289 168.7C224.736 168.7 225.139 168.787 225.499 168.96C225.859 169.133 226.142 169.393 226.349 169.74L225.819 170.1C225.639 169.833 225.416 169.637 225.149 169.51C224.882 169.383 224.592 169.32 224.279 169.32C223.906 169.32 223.569 169.407 223.269 169.58C222.969 169.747 222.732 169.983 222.559 170.29C222.386 170.597 222.299 170.957 222.299 171.37C222.299 171.783 222.386 172.143 222.559 172.45C222.732 172.757 222.969 172.997 223.269 173.17C223.569 173.337 223.906 173.42 224.279 173.42C224.592 173.42 224.882 173.357 225.149 173.23C225.416 173.103 225.639 172.91 225.819 172.65L226.349 173.01C226.142 173.35 225.859 173.61 225.499 173.79C225.139 173.963 224.736 174.05 224.289 174.05ZM229.463 174.05C228.969 174.05 228.589 173.917 228.323 173.65C228.056 173.383 227.923 173.007 227.923 172.52V167.59H228.633V172.48C228.633 172.787 228.709 173.023 228.863 173.19C229.023 173.357 229.249 173.44 229.543 173.44C229.856 173.44 230.116 173.35 230.323 173.17L230.573 173.68C230.433 173.807 230.263 173.9 230.063 173.96C229.869 174.02 229.669 174.05 229.463 174.05ZM226.983 169.34V168.75H230.233V169.34H226.983ZM231.865 174V168.75H232.575V174H231.865ZM232.225 167.59C232.078 167.59 231.955 167.54 231.855 167.44C231.755 167.34 231.705 167.22 231.705 167.08C231.705 166.94 231.755 166.823 231.855 166.73C231.955 166.63 232.078 166.58 232.225 166.58C232.372 166.58 232.495 166.627 232.595 166.72C232.695 166.813 232.745 166.93 232.745 167.07C232.745 167.217 232.695 167.34 232.595 167.44C232.502 167.54 232.378 167.59 232.225 167.59ZM235.901 174L233.571 168.75H234.311L236.451 173.62H236.101L238.271 168.75H238.971L236.631 174H235.901ZM239.97 174V168.75H240.68V174H239.97ZM240.33 167.59C240.184 167.59 240.06 167.54 239.96 167.44C239.86 167.34 239.81 167.22 239.81 167.08C239.81 166.94 239.86 166.823 239.96 166.73C240.06 166.63 240.184 166.58 240.33 166.58C240.477 166.58 240.6 166.627 240.7 166.72C240.8 166.813 240.85 166.93 240.85 167.07C240.85 167.217 240.8 167.34 240.7 167.44C240.607 167.54 240.484 167.59 240.33 167.59ZM244.316 174.05C243.823 174.05 243.443 173.917 243.176 173.65C242.909 173.383 242.776 173.007 242.776 172.52V167.59H243.486V172.48C243.486 172.787 243.563 173.023 243.716 173.19C243.876 173.357 244.103 173.44 244.396 173.44C244.709 173.44 244.969 173.35 245.176 173.17L245.426 173.68C245.286 173.807 245.116 173.9 244.916 173.96C244.723 174.02 244.523 174.05 244.316 174.05ZM241.836 169.34V168.75H245.086V169.34H241.836ZM246.661 175.99C246.414 175.99 246.178 175.95 245.951 175.87C245.731 175.79 245.541 175.67 245.381 175.51L245.711 174.98C245.844 175.107 245.988 175.203 246.141 175.27C246.301 175.343 246.478 175.38 246.671 175.38C246.904 175.38 247.104 175.313 247.271 175.18C247.444 175.053 247.608 174.827 247.761 174.5L248.101 173.73L248.181 173.62L250.341 168.75H251.041L248.411 174.63C248.264 174.97 248.101 175.24 247.921 175.44C247.748 175.64 247.558 175.78 247.351 175.86C247.144 175.947 246.914 175.99 246.661 175.99ZM248.061 174.15L245.641 168.75H246.381L248.521 173.57L248.061 174.15ZM254.808 174V167H257.658C258.405 167 259.058 167.15 259.618 167.45C260.185 167.743 260.625 168.153 260.938 168.68C261.251 169.207 261.408 169.813 261.408 170.5C261.408 171.187 261.251 171.793 260.938 172.32C260.625 172.847 260.185 173.26 259.618 173.56C259.058 173.853 258.405 174 257.658 174H254.808ZM255.548 173.36H257.618C258.238 173.36 258.775 173.24 259.228 173C259.688 172.753 260.045 172.417 260.298 171.99C260.551 171.557 260.678 171.06 260.678 170.5C260.678 169.933 260.551 169.437 260.298 169.01C260.045 168.583 259.688 168.25 259.228 168.01C258.775 167.763 258.238 167.64 257.618 167.64H255.548V173.36ZM265.15 174.05C264.603 174.05 264.123 173.937 263.71 173.71C263.296 173.477 262.973 173.16 262.74 172.76C262.506 172.353 262.39 171.89 262.39 171.37C262.39 170.85 262.5 170.39 262.72 169.99C262.946 169.59 263.253 169.277 263.64 169.05C264.033 168.817 264.473 168.7 264.96 168.7C265.453 168.7 265.89 168.813 266.27 169.04C266.656 169.26 266.96 169.573 267.18 169.98C267.4 170.38 267.51 170.843 267.51 171.37C267.51 171.403 267.506 171.44 267.5 171.48C267.5 171.513 267.5 171.55 267.5 171.59H262.93V171.06H267.12L266.84 171.27C266.84 170.89 266.756 170.553 266.59 170.26C266.43 169.96 266.21 169.727 265.93 169.56C265.65 169.393 265.326 169.31 264.96 169.31C264.6 169.31 264.276 169.393 263.99 169.56C263.703 169.727 263.48 169.96 263.32 170.26C263.16 170.56 263.08 170.903 263.08 171.29V171.4C263.08 171.8 263.166 172.153 263.34 172.46C263.52 172.76 263.766 172.997 264.08 173.17C264.4 173.337 264.763 173.42 265.17 173.42C265.49 173.42 265.786 173.363 266.06 173.25C266.34 173.137 266.58 172.963 266.78 172.73L267.18 173.19C266.946 173.47 266.653 173.683 266.3 173.83C265.953 173.977 265.57 174.05 265.15 174.05ZM270.365 174.05C269.932 174.05 269.522 173.99 269.135 173.87C268.748 173.743 268.445 173.587 268.225 173.4L268.545 172.84C268.758 173 269.032 173.14 269.365 173.26C269.698 173.373 270.048 173.43 270.415 173.43C270.915 173.43 271.275 173.353 271.495 173.2C271.715 173.04 271.825 172.83 271.825 172.57C271.825 172.377 271.762 172.227 271.635 172.12C271.515 172.007 271.355 171.923 271.155 171.87C270.955 171.81 270.732 171.76 270.485 171.72C270.238 171.68 269.992 171.633 269.745 171.58C269.505 171.527 269.285 171.45 269.085 171.35C268.885 171.243 268.722 171.1 268.595 170.92C268.475 170.74 268.415 170.5 268.415 170.2C268.415 169.913 268.495 169.657 268.655 169.43C268.815 169.203 269.048 169.027 269.355 168.9C269.668 168.767 270.048 168.7 270.495 168.7C270.835 168.7 271.175 168.747 271.515 168.84C271.855 168.927 272.135 169.043 272.355 169.19L272.045 169.76C271.812 169.6 271.562 169.487 271.295 169.42C271.028 169.347 270.762 169.31 270.495 169.31C270.022 169.31 269.672 169.393 269.445 169.56C269.225 169.72 269.115 169.927 269.115 170.18C269.115 170.38 269.175 170.537 269.295 170.65C269.422 170.763 269.585 170.853 269.785 170.92C269.992 170.98 270.215 171.03 270.455 171.07C270.702 171.11 270.945 171.16 271.185 171.22C271.432 171.273 271.655 171.35 271.855 171.45C272.062 171.543 272.225 171.68 272.345 171.86C272.472 172.033 272.535 172.263 272.535 172.55C272.535 172.857 272.448 173.123 272.275 173.35C272.108 173.57 271.862 173.743 271.535 173.87C271.215 173.99 270.825 174.05 270.365 174.05ZM276.018 174.05C275.498 174.05 275.031 173.937 274.618 173.71C274.211 173.477 273.891 173.16 273.658 172.76C273.424 172.353 273.308 171.89 273.308 171.37C273.308 170.843 273.424 170.38 273.658 169.98C273.891 169.58 274.211 169.267 274.618 169.04C275.031 168.813 275.498 168.7 276.018 168.7C276.464 168.7 276.868 168.787 277.228 168.96C277.588 169.133 277.871 169.393 278.078 169.74L277.548 170.1C277.368 169.833 277.144 169.637 276.878 169.51C276.611 169.383 276.321 169.32 276.008 169.32C275.634 169.32 275.298 169.407 274.998 169.58C274.698 169.747 274.461 169.983 274.288 170.29C274.114 170.597 274.028 170.957 274.028 171.37C274.028 171.783 274.114 172.143 274.288 172.45C274.461 172.757 274.698 172.997 274.998 173.17C275.298 173.337 275.634 173.42 276.008 173.42C276.321 173.42 276.611 173.357 276.878 173.23C277.144 173.103 277.368 172.91 277.548 172.65L278.078 173.01C277.871 173.35 277.588 173.61 277.228 173.79C276.868 173.963 276.464 174.05 276.018 174.05ZM279.472 174V168.75H280.152V170.18L280.082 169.93C280.229 169.53 280.476 169.227 280.822 169.02C281.169 168.807 281.599 168.7 282.112 168.7V169.39C282.086 169.39 282.059 169.39 282.032 169.39C282.006 169.383 281.979 169.38 281.952 169.38C281.399 169.38 280.966 169.55 280.652 169.89C280.339 170.223 280.182 170.7 280.182 171.32V174H279.472ZM283.408 174V168.75H284.118V174H283.408ZM283.768 167.59C283.621 167.59 283.498 167.54 283.398 167.44C283.298 167.34 283.248 167.22 283.248 167.08C283.248 166.94 283.298 166.823 283.398 166.73C283.498 166.63 283.621 166.58 283.768 166.58C283.915 166.58 284.038 166.627 284.138 166.72C284.238 166.813 284.288 166.93 284.288 167.07C284.288 167.217 284.238 167.34 284.138 167.44C284.045 167.54 283.921 167.59 283.768 167.59ZM288.804 174.05C288.35 174.05 287.94 173.947 287.574 173.74C287.207 173.527 286.914 173.223 286.694 172.83C286.48 172.43 286.374 171.943 286.374 171.37C286.374 170.797 286.48 170.313 286.694 169.92C286.907 169.52 287.197 169.217 287.564 169.01C287.93 168.803 288.344 168.7 288.804 168.7C289.304 168.7 289.75 168.813 290.144 169.04C290.544 169.26 290.857 169.573 291.084 169.98C291.31 170.38 291.424 170.843 291.424 171.37C291.424 171.903 291.31 172.37 291.084 172.77C290.857 173.17 290.544 173.483 290.144 173.71C289.75 173.937 289.304 174.05 288.804 174.05ZM286.094 175.94V168.75H286.774V170.33L286.704 171.38L286.804 172.44V175.94H286.094ZM288.754 173.42C289.127 173.42 289.46 173.337 289.754 173.17C290.047 172.997 290.28 172.757 290.454 172.45C290.627 172.137 290.714 171.777 290.714 171.37C290.714 170.963 290.627 170.607 290.454 170.3C290.28 169.993 290.047 169.753 289.754 169.58C289.46 169.407 289.127 169.32 288.754 169.32C288.38 169.32 288.044 169.407 287.744 169.58C287.45 169.753 287.217 169.993 287.044 170.3C286.877 170.607 286.794 170.963 286.794 171.37C286.794 171.777 286.877 172.137 287.044 172.45C287.217 172.757 287.45 172.997 287.744 173.17C288.044 173.337 288.38 173.42 288.754 173.42ZM294.531 174.05C294.038 174.05 293.658 173.917 293.391 173.65C293.124 173.383 292.991 173.007 292.991 172.52V167.59H293.701V172.48C293.701 172.787 293.778 173.023 293.931 173.19C294.091 173.357 294.318 173.44 294.611 173.44C294.924 173.44 295.184 173.35 295.391 173.17L295.641 173.68C295.501 173.807 295.331 173.9 295.131 173.96C294.938 174.02 294.738 174.05 294.531 174.05ZM292.051 169.34V168.75H295.301V169.34H292.051ZM296.933 174V168.75H297.643V174H296.933ZM297.293 167.59C297.147 167.59 297.023 167.54 296.923 167.44C296.823 167.34 296.773 167.22 296.773 167.08C296.773 166.94 296.823 166.823 296.923 166.73C297.023 166.63 297.147 166.58 297.293 166.58C297.44 166.58 297.563 166.627 297.663 166.72C297.763 166.813 297.813 166.93 297.813 167.07C297.813 167.217 297.763 167.34 297.663 167.44C297.57 167.54 297.447 167.59 297.293 167.59ZM301.759 174.05C301.252 174.05 300.796 173.937 300.389 173.71C299.989 173.477 299.672 173.16 299.439 172.76C299.206 172.353 299.089 171.89 299.089 171.37C299.089 170.843 299.206 170.38 299.439 169.98C299.672 169.58 299.989 169.267 300.389 169.04C300.789 168.813 301.246 168.7 301.759 168.7C302.279 168.7 302.739 168.813 303.139 169.04C303.546 169.267 303.862 169.58 304.089 169.98C304.322 170.38 304.439 170.843 304.439 171.37C304.439 171.89 304.322 172.353 304.089 172.76C303.862 173.16 303.546 173.477 303.139 173.71C302.732 173.937 302.272 174.05 301.759 174.05ZM301.759 173.42C302.139 173.42 302.476 173.337 302.769 173.17C303.062 172.997 303.292 172.757 303.459 172.45C303.632 172.137 303.719 171.777 303.719 171.37C303.719 170.957 303.632 170.597 303.459 170.29C303.292 169.983 303.062 169.747 302.769 169.58C302.476 169.407 302.142 169.32 301.769 169.32C301.396 169.32 301.062 169.407 300.769 169.58C300.476 169.747 300.242 169.983 300.069 170.29C299.896 170.597 299.809 170.957 299.809 171.37C299.809 171.777 299.896 172.137 300.069 172.45C300.242 172.757 300.476 172.997 300.769 173.17C301.062 173.337 301.392 173.42 301.759 173.42ZM308.568 168.7C308.995 168.7 309.368 168.783 309.688 168.95C310.015 169.11 310.268 169.357 310.448 169.69C310.635 170.023 310.728 170.443 310.728 170.95V174H310.018V171.02C310.018 170.467 309.878 170.05 309.598 169.77C309.325 169.483 308.938 169.34 308.438 169.34C308.065 169.34 307.738 169.417 307.458 169.57C307.185 169.717 306.972 169.933 306.818 170.22C306.672 170.5 306.598 170.84 306.598 171.24V174H305.888V168.75H306.568V170.19L306.458 169.92C306.625 169.54 306.892 169.243 307.258 169.03C307.625 168.81 308.062 168.7 308.568 168.7Z" fill="#450BC8" fill-opacity="0.3"/>
<path d="M387.02 174L390.22 167H390.95L394.15 174H393.37L390.43 167.43H390.73L387.79 174H387.02ZM388.28 172.13L388.5 171.53H392.57L392.79 172.13H388.28ZM397.289 174.05C396.769 174.05 396.302 173.937 395.889 173.71C395.482 173.477 395.162 173.16 394.929 172.76C394.696 172.353 394.579 171.89 394.579 171.37C394.579 170.843 394.696 170.38 394.929 169.98C395.162 169.58 395.482 169.267 395.889 169.04C396.302 168.813 396.769 168.7 397.289 168.7C397.736 168.7 398.139 168.787 398.499 168.96C398.859 169.133 399.142 169.393 399.349 169.74L398.819 170.1C398.639 169.833 398.416 169.637 398.149 169.51C397.882 169.383 397.592 169.32 397.279 169.32C396.906 169.32 396.569 169.407 396.269 169.58C395.969 169.747 395.732 169.983 395.559 170.29C395.386 170.597 395.299 170.957 395.299 171.37C395.299 171.783 395.386 172.143 395.559 172.45C395.732 172.757 395.969 172.997 396.269 173.17C396.569 173.337 396.906 173.42 397.279 173.42C397.592 173.42 397.882 173.357 398.149 173.23C398.416 173.103 398.639 172.91 398.819 172.65L399.349 173.01C399.142 173.35 398.859 173.61 398.499 173.79C398.139 173.963 397.736 174.05 397.289 174.05ZM402.463 174.05C401.969 174.05 401.589 173.917 401.323 173.65C401.056 173.383 400.923 173.007 400.923 172.52V167.59H401.633V172.48C401.633 172.787 401.709 173.023 401.863 173.19C402.023 173.357 402.249 173.44 402.543 173.44C402.856 173.44 403.116 173.35 403.323 173.17L403.573 173.68C403.433 173.807 403.263 173.9 403.063 173.96C402.869 174.02 402.669 174.05 402.463 174.05ZM399.983 169.34V168.75H403.233V169.34H399.983ZM404.865 174V168.75H405.575V174H404.865ZM405.225 167.59C405.078 167.59 404.955 167.54 404.855 167.44C404.755 167.34 404.705 167.22 404.705 167.08C404.705 166.94 404.755 166.823 404.855 166.73C404.955 166.63 405.078 166.58 405.225 166.58C405.372 166.58 405.495 166.627 405.595 166.72C405.695 166.813 405.745 166.93 405.745 167.07C405.745 167.217 405.695 167.34 405.595 167.44C405.502 167.54 405.378 167.59 405.225 167.59ZM408.901 174L406.571 168.75H407.311L409.451 173.62H409.101L411.271 168.75H411.971L409.631 174H408.901ZM412.97 174V168.75H413.68V174H412.97ZM413.33 167.59C413.184 167.59 413.06 167.54 412.96 167.44C412.86 167.34 412.81 167.22 412.81 167.08C412.81 166.94 412.86 166.823 412.96 166.73C413.06 166.63 413.184 166.58 413.33 166.58C413.477 166.58 413.6 166.627 413.7 166.72C413.8 166.813 413.85 166.93 413.85 167.07C413.85 167.217 413.8 167.34 413.7 167.44C413.607 167.54 413.484 167.59 413.33 167.59ZM417.316 174.05C416.823 174.05 416.443 173.917 416.176 173.65C415.909 173.383 415.776 173.007 415.776 172.52V167.59H416.486V172.48C416.486 172.787 416.563 173.023 416.716 173.19C416.876 173.357 417.103 173.44 417.396 173.44C417.709 173.44 417.969 173.35 418.176 173.17L418.426 173.68C418.286 173.807 418.116 173.9 417.916 173.96C417.723 174.02 417.523 174.05 417.316 174.05ZM414.836 169.34V168.75H418.086V169.34H414.836ZM419.661 175.99C419.414 175.99 419.178 175.95 418.951 175.87C418.731 175.79 418.541 175.67 418.381 175.51L418.711 174.98C418.844 175.107 418.988 175.203 419.141 175.27C419.301 175.343 419.478 175.38 419.671 175.38C419.904 175.38 420.104 175.313 420.271 175.18C420.444 175.053 420.608 174.827 420.761 174.5L421.101 173.73L421.181 173.62L423.341 168.75H424.041L421.411 174.63C421.264 174.97 421.101 175.24 420.921 175.44C420.748 175.64 420.558 175.78 420.351 175.86C420.144 175.947 419.914 175.99 419.661 175.99ZM421.061 174.15L418.641 168.75H419.381L421.521 173.57L421.061 174.15ZM427.808 174V167H430.658C431.405 167 432.058 167.15 432.618 167.45C433.185 167.743 433.625 168.153 433.938 168.68C434.251 169.207 434.408 169.813 434.408 170.5C434.408 171.187 434.251 171.793 433.938 172.32C433.625 172.847 433.185 173.26 432.618 173.56C432.058 173.853 431.405 174 430.658 174H427.808ZM428.548 173.36H430.618C431.238 173.36 431.775 173.24 432.228 173C432.688 172.753 433.045 172.417 433.298 171.99C433.551 171.557 433.678 171.06 433.678 170.5C433.678 169.933 433.551 169.437 433.298 169.01C433.045 168.583 432.688 168.25 432.228 168.01C431.775 167.763 431.238 167.64 430.618 167.64H428.548V173.36ZM438.15 174.05C437.603 174.05 437.123 173.937 436.71 173.71C436.296 173.477 435.973 173.16 435.74 172.76C435.506 172.353 435.39 171.89 435.39 171.37C435.39 170.85 435.5 170.39 435.72 169.99C435.946 169.59 436.253 169.277 436.64 169.05C437.033 168.817 437.473 168.7 437.96 168.7C438.453 168.7 438.89 168.813 439.27 169.04C439.656 169.26 439.96 169.573 440.18 169.98C440.4 170.38 440.51 170.843 440.51 171.37C440.51 171.403 440.506 171.44 440.5 171.48C440.5 171.513 440.5 171.55 440.5 171.59H435.93V171.06H440.12L439.84 171.27C439.84 170.89 439.756 170.553 439.59 170.26C439.43 169.96 439.21 169.727 438.93 169.56C438.65 169.393 438.326 169.31 437.96 169.31C437.6 169.31 437.276 169.393 436.99 169.56C436.703 169.727 436.48 169.96 436.32 170.26C436.16 170.56 436.08 170.903 436.08 171.29V171.4C436.08 171.8 436.166 172.153 436.34 172.46C436.52 172.76 436.766 172.997 437.08 173.17C437.4 173.337 437.763 173.42 438.17 173.42C438.49 173.42 438.786 173.363 439.06 173.25C439.34 173.137 439.58 172.963 439.78 172.73L440.18 173.19C439.946 173.47 439.653 173.683 439.3 173.83C438.953 173.977 438.57 174.05 438.15 174.05ZM443.365 174.05C442.932 174.05 442.522 173.99 442.135 173.87C441.748 173.743 441.445 173.587 441.225 173.4L441.545 172.84C441.758 173 442.032 173.14 442.365 173.26C442.698 173.373 443.048 173.43 443.415 173.43C443.915 173.43 444.275 173.353 444.495 173.2C444.715 173.04 444.825 172.83 444.825 172.57C444.825 172.377 444.762 172.227 444.635 172.12C444.515 172.007 444.355 171.923 444.155 171.87C443.955 171.81 443.732 171.76 443.485 171.72C443.238 171.68 442.992 171.633 442.745 171.58C442.505 171.527 442.285 171.45 442.085 171.35C441.885 171.243 441.722 171.1 441.595 170.92C441.475 170.74 441.415 170.5 441.415 170.2C441.415 169.913 441.495 169.657 441.655 169.43C441.815 169.203 442.048 169.027 442.355 168.9C442.668 168.767 443.048 168.7 443.495 168.7C443.835 168.7 444.175 168.747 444.515 168.84C444.855 168.927 445.135 169.043 445.355 169.19L445.045 169.76C444.812 169.6 444.562 169.487 444.295 169.42C444.028 169.347 443.762 169.31 443.495 169.31C443.022 169.31 442.672 169.393 442.445 169.56C442.225 169.72 442.115 169.927 442.115 170.18C442.115 170.38 442.175 170.537 442.295 170.65C442.422 170.763 442.585 170.853 442.785 170.92C442.992 170.98 443.215 171.03 443.455 171.07C443.702 171.11 443.945 171.16 444.185 171.22C444.432 171.273 444.655 171.35 444.855 171.45C445.062 171.543 445.225 171.68 445.345 171.86C445.472 172.033 445.535 172.263 445.535 172.55C445.535 172.857 445.448 173.123 445.275 173.35C445.108 173.57 444.862 173.743 444.535 173.87C444.215 173.99 443.825 174.05 443.365 174.05ZM449.018 174.05C448.498 174.05 448.031 173.937 447.618 173.71C447.211 173.477 446.891 173.16 446.658 172.76C446.424 172.353 446.308 171.89 446.308 171.37C446.308 170.843 446.424 170.38 446.658 169.98C446.891 169.58 447.211 169.267 447.618 169.04C448.031 168.813 448.498 168.7 449.018 168.7C449.464 168.7 449.868 168.787 450.228 168.96C450.588 169.133 450.871 169.393 451.078 169.74L450.548 170.1C450.368 169.833 450.144 169.637 449.878 169.51C449.611 169.383 449.321 169.32 449.008 169.32C448.634 169.32 448.298 169.407 447.998 169.58C447.698 169.747 447.461 169.983 447.288 170.29C447.114 170.597 447.028 170.957 447.028 171.37C447.028 171.783 447.114 172.143 447.288 172.45C447.461 172.757 447.698 172.997 447.998 173.17C448.298 173.337 448.634 173.42 449.008 173.42C449.321 173.42 449.611 173.357 449.878 173.23C450.144 173.103 450.368 172.91 450.548 172.65L451.078 173.01C450.871 173.35 450.588 173.61 450.228 173.79C449.868 173.963 449.464 174.05 449.018 174.05ZM452.472 174V168.75H453.152V170.18L453.082 169.93C453.229 169.53 453.476 169.227 453.822 169.02C454.169 168.807 454.599 168.7 455.112 168.7V169.39C455.086 169.39 455.059 169.39 455.032 169.39C455.006 169.383 454.979 169.38 454.952 169.38C454.399 169.38 453.966 169.55 453.652 169.89C453.339 170.223 453.182 170.7 453.182 171.32V174H452.472ZM456.408 174V168.75H457.118V174H456.408ZM456.768 167.59C456.621 167.59 456.498 167.54 456.398 167.44C456.298 167.34 456.248 167.22 456.248 167.08C456.248 166.94 456.298 166.823 456.398 166.73C456.498 166.63 456.621 166.58 456.768 166.58C456.915 166.58 457.038 166.627 457.138 166.72C457.238 166.813 457.288 166.93 457.288 167.07C457.288 167.217 457.238 167.34 457.138 167.44C457.045 167.54 456.921 167.59 456.768 167.59ZM461.804 174.05C461.35 174.05 460.94 173.947 460.574 173.74C460.207 173.527 459.914 173.223 459.694 172.83C459.48 172.43 459.374 171.943 459.374 171.37C459.374 170.797 459.48 170.313 459.694 169.92C459.907 169.52 460.197 169.217 460.564 169.01C460.93 168.803 461.344 168.7 461.804 168.7C462.304 168.7 462.75 168.813 463.144 169.04C463.544 169.26 463.857 169.573 464.084 169.98C464.31 170.38 464.424 170.843 464.424 171.37C464.424 171.903 464.31 172.37 464.084 172.77C463.857 173.17 463.544 173.483 463.144 173.71C462.75 173.937 462.304 174.05 461.804 174.05ZM459.094 175.94V168.75H459.774V170.33L459.704 171.38L459.804 172.44V175.94H459.094ZM461.754 173.42C462.127 173.42 462.46 173.337 462.754 173.17C463.047 172.997 463.28 172.757 463.454 172.45C463.627 172.137 463.714 171.777 463.714 171.37C463.714 170.963 463.627 170.607 463.454 170.3C463.28 169.993 463.047 169.753 462.754 169.58C462.46 169.407 462.127 169.32 461.754 169.32C461.38 169.32 461.044 169.407 460.744 169.58C460.45 169.753 460.217 169.993 460.044 170.3C459.877 170.607 459.794 170.963 459.794 171.37C459.794 171.777 459.877 172.137 460.044 172.45C460.217 172.757 460.45 172.997 460.744 173.17C461.044 173.337 461.38 173.42 461.754 173.42ZM467.531 174.05C467.038 174.05 466.658 173.917 466.391 173.65C466.124 173.383 465.991 173.007 465.991 172.52V167.59H466.701V172.48C466.701 172.787 466.778 173.023 466.931 173.19C467.091 173.357 467.318 173.44 467.611 173.44C467.924 173.44 468.184 173.35 468.391 173.17L468.641 173.68C468.501 173.807 468.331 173.9 468.131 173.96C467.938 174.02 467.738 174.05 467.531 174.05ZM465.051 169.34V168.75H468.301V169.34H465.051ZM469.933 174V168.75H470.643V174H469.933ZM470.293 167.59C470.147 167.59 470.023 167.54 469.923 167.44C469.823 167.34 469.773 167.22 469.773 167.08C469.773 166.94 469.823 166.823 469.923 166.73C470.023 166.63 470.147 166.58 470.293 166.58C470.44 166.58 470.563 166.627 470.663 166.72C470.763 166.813 470.813 166.93 470.813 167.07C470.813 167.217 470.763 167.34 470.663 167.44C470.57 167.54 470.447 167.59 470.293 167.59ZM474.759 174.05C474.252 174.05 473.796 173.937 473.389 173.71C472.989 173.477 472.672 173.16 472.439 172.76C472.206 172.353 472.089 171.89 472.089 171.37C472.089 170.843 472.206 170.38 472.439 169.98C472.672 169.58 472.989 169.267 473.389 169.04C473.789 168.813 474.246 168.7 474.759 168.7C475.279 168.7 475.739 168.813 476.139 169.04C476.546 169.267 476.862 169.58 477.089 169.98C477.322 170.38 477.439 170.843 477.439 171.37C477.439 171.89 477.322 172.353 477.089 172.76C476.862 173.16 476.546 173.477 476.139 173.71C475.732 173.937 475.272 174.05 474.759 174.05ZM474.759 173.42C475.139 173.42 475.476 173.337 475.769 173.17C476.062 172.997 476.292 172.757 476.459 172.45C476.632 172.137 476.719 171.777 476.719 171.37C476.719 170.957 476.632 170.597 476.459 170.29C476.292 169.983 476.062 169.747 475.769 169.58C475.476 169.407 475.142 169.32 474.769 169.32C474.396 169.32 474.062 169.407 473.769 169.58C473.476 169.747 473.242 169.983 473.069 170.29C472.896 170.597 472.809 170.957 472.809 171.37C472.809 171.777 472.896 172.137 473.069 172.45C473.242 172.757 473.476 172.997 473.769 173.17C474.062 173.337 474.392 173.42 474.759 173.42ZM481.568 168.7C481.995 168.7 482.368 168.783 482.688 168.95C483.015 169.11 483.268 169.357 483.448 169.69C483.635 170.023 483.728 170.443 483.728 170.95V174H483.018V171.02C483.018 170.467 482.878 170.05 482.598 169.77C482.325 169.483 481.938 169.34 481.438 169.34C481.065 169.34 480.738 169.417 480.458 169.57C480.185 169.717 479.972 169.933 479.818 170.22C479.672 170.5 479.598 170.84 479.598 171.24V174H478.888V168.75H479.568V170.19L479.458 169.92C479.625 169.54 479.892 169.243 480.258 169.03C480.625 168.81 481.062 168.7 481.568 168.7Z" fill="#450BC8" fill-opacity="0.3"/>
<path d="M23 94C23 76.3269 37.3269 62 55 62H123C140.673 62 155 76.3269 155 94V128H23V94Z" fill="#D9D9D9"/>
<path d="M195 94C195 76.3269 209.327 62 227 62H295C312.673 62 327 76.3269 327 94V128H195V94Z" fill="#D9D9D9"/>
<path d="M367 94C367 76.3269 381.327 62 399 62H467C484.673 62 499 76.3269 499 94V128H367V94Z" fill="#D9D9D9"/>
</g>
<defs>
<filter id="filter0_d_5238_848" x="-23" y="31" width="227" height="264" filterUnits="userSpaceOnUse" color-interpolation-filters="sRGB">
<feFlood flood-opacity="0" result="BackgroundImageFix"/>
<feColorMatrix in="SourceAlpha" type="matrix" values="0 0 0 0 0 0 0 0 0 0 0 0 0 0 0 0 0 0 127 0" result="hardAlpha"/>
<feOffset dy="16"/>
<feGaussianBlur stdDeviation="16"/>
<feComposite in2="hardAlpha" operator="out"/>
<feColorMatrix type="matrix" values="0 0 0 0 0.607843 0 0 0 0 0.690196 0 0 0 0 0.407843 0 0 0 0.15 0"/>
<feBlend mode="normal" in2="BackgroundImageFix" result="effect1_dropShadow_5238_848"/>
<feBlend mode="normal" in="SourceGraphic" in2="effect1_dropShadow_5238_848" result="shape"/>
</filter>
<filter id="filter1_d_5238_848" x="148" y="31" width="227" height="264" filterUnits="userSpaceOnUse" color-interpolation-filters="sRGB">
<feFlood flood-opacity="0" result="BackgroundImageFix"/>
<feColorMatrix in="SourceAlpha" type="matrix" values="0 0 0 0 0 0 0 0 0 0 0 0 0 0 0 0 0 0 127 0" result="hardAlpha"/>
<feOffset dy="16"/>
<feGaussianBlur stdDeviation="16"/>
<feComposite in2="hardAlpha" operator="out"/>
<feColorMatrix type="matrix" values="0 0 0 0 0.996078 0 0 0 0 0.505882 0 0 0 0 0.294118 0 0 0 0.15 0"/>
<feBlend mode="normal" in2="BackgroundImageFix" result="effect1_dropShadow_5238_848"/>
<feBlend mode="normal" in="SourceGraphic" in2="effect1_dropShadow_5238_848" result="shape"/>
</filter>
<filter id="filter2_d_5238_848" x="319" y="31" width="227" height="264" filterUnits="userSpaceOnUse" color-interpolation-filters="sRGB">
<feFlood flood-opacity="0" result="BackgroundImageFix"/>
<feColorMatrix in="SourceAlpha" type="matrix" values="0 0 0 0 0 0 0 0 0 0 0 0 0 0 0 0 0 0 127 0" result="hardAlpha"/>
<feOffset dy="16"/>
<feGaussianBlur stdDeviation="16"/>
<feComposite in2="hardAlpha" operator="out"/>
<feColorMatrix type="matrix" values="0 0 0 0 0.631373 0 0 0 0 0.560784 0 0 0 0 1 0 0 0 0.15 0"/>
<feBlend mode="normal" in2="BackgroundImageFix" result="effect1_dropShadow_5238_848"/>
<feBlend mode="normal" in="SourceGraphic" in2="effect1_dropShadow_5238_848" result="shape"/>
</filter>
<clipPath id="clip0_5238_848">
<rect width="535" height="285" fill="white"/>
</clipPath>
</defs>
</svg>
