<svg width="355" height="180" viewBox="0 0 355 180" fill="none" xmlns="http://www.w3.org/2000/svg">
<rect width="355" height="180" fill="white"/>
<path d="M115.616 24.72C115.253 24.72 114.864 24.6133 114.448 24.4C114.043 24.1973 113.637 23.904 113.232 23.52C112.827 23.136 112.437 22.6773 112.064 22.144L113.488 21.504C113.797 21.7813 114.075 22.016 114.32 22.208C114.576 22.4107 114.837 22.5707 115.104 22.688C115.381 22.8053 115.701 22.8907 116.064 22.944C116.437 22.9973 116.896 23.024 117.44 23.024C117.525 23.024 117.584 23.0453 117.616 23.088C117.659 23.1307 117.68 23.1947 117.68 23.28C117.68 23.408 117.611 23.552 117.472 23.712C117.344 23.8827 117.173 24.0427 116.96 24.192C116.747 24.352 116.523 24.48 116.288 24.576C116.053 24.672 115.829 24.72 115.616 24.72ZM111.264 22.256C110.347 22.256 109.541 22.08 108.848 21.728C108.165 21.3653 107.632 20.8267 107.248 20.112C106.875 19.3973 106.688 18.5173 106.688 17.472C106.688 16.512 106.837 15.632 107.136 14.832C107.435 14.0213 107.851 13.3227 108.384 12.736C108.928 12.1387 109.557 11.68 110.272 11.36C110.987 11.0293 111.765 10.864 112.608 10.864C114.048 10.864 115.168 11.2693 115.968 12.08C116.779 12.88 117.184 14.064 117.184 15.632C117.184 16.592 117.035 17.4773 116.736 18.288C116.437 19.088 116.016 19.7867 115.472 20.384C114.939 20.9813 114.315 21.4453 113.6 21.776C112.885 22.096 112.107 22.256 111.264 22.256ZM111.472 20.976C111.92 20.976 112.357 20.8587 112.784 20.624C113.211 20.3787 113.595 20.032 113.936 19.584C114.277 19.136 114.549 18.608 114.752 18C114.955 17.3813 115.056 16.6987 115.056 15.952C115.056 15.0773 114.933 14.3627 114.688 13.808C114.453 13.2427 114.133 12.8267 113.728 12.56C113.333 12.2827 112.891 12.144 112.4 12.144C111.749 12.144 111.152 12.3573 110.608 12.784C110.064 13.2 109.627 13.7867 109.296 14.544C108.976 15.3013 108.816 16.176 108.816 17.168C108.816 18.032 108.933 18.7467 109.168 19.312C109.413 19.8773 109.739 20.2987 110.144 20.576C110.549 20.8427 110.992 20.976 111.472 20.976ZM119.375 22.208C118.959 22.208 118.634 22.096 118.399 21.872C118.175 21.6373 118.063 21.2907 118.063 20.832C118.063 20.672 118.063 20.512 118.063 20.352C118.074 20.192 118.09 20 118.111 19.776C118.143 19.552 118.181 19.264 118.223 18.912L118.831 14.144H119.951C120.133 14.144 120.25 14.2507 120.303 14.464C120.367 14.6667 120.399 14.9173 120.399 15.216C120.399 15.44 120.383 15.7333 120.351 16.096C120.319 16.4587 120.271 16.8587 120.207 17.296L120.015 18.608C119.973 18.9067 119.941 19.1733 119.919 19.408C119.909 19.6427 119.903 19.8347 119.903 19.984C119.903 20.1973 119.925 20.3627 119.967 20.48C120.021 20.5867 120.117 20.64 120.255 20.64C120.415 20.64 120.618 20.5227 120.863 20.288C121.109 20.0533 121.365 19.744 121.631 19.36C121.909 18.976 122.165 18.5653 122.399 18.128C122.634 17.68 122.826 17.248 122.975 16.832C123.125 16.416 123.199 16.0587 123.199 15.76C123.199 15.5147 123.167 15.312 123.103 15.152C123.05 14.9813 123.029 14.8427 123.039 14.736C123.039 14.64 123.098 14.5547 123.215 14.48C123.343 14.4053 123.493 14.3467 123.663 14.304C123.834 14.2507 124.005 14.2133 124.175 14.192C124.346 14.16 124.479 14.144 124.575 14.144C124.757 14.144 124.895 14.2507 124.991 14.464C125.098 14.6773 125.13 14.9813 125.087 15.376L124.335 22.16H123.215C123.087 22.16 122.986 22.096 122.911 21.968C122.837 21.8293 122.783 21.6747 122.751 21.504C122.73 21.3333 122.719 21.2053 122.719 21.12C122.719 20.8747 122.751 20.608 122.815 20.32C122.89 20.032 122.991 19.664 123.119 19.216C123.258 18.768 123.423 18.192 123.615 17.488V17.76C123.199 18.848 122.741 19.7173 122.239 20.368C121.738 21.0187 121.242 21.488 120.751 21.776C120.261 22.064 119.802 22.208 119.375 22.208ZM129.013 22.24C128.096 22.24 127.381 21.9733 126.869 21.44C126.368 20.896 126.117 20.1013 126.117 19.056C126.117 18.3627 126.229 17.7227 126.453 17.136C126.688 16.5387 127.003 16.016 127.397 15.568C127.792 15.12 128.245 14.7733 128.757 14.528C129.28 14.272 129.829 14.144 130.405 14.144C131.323 14.144 132.021 14.416 132.501 14.96C132.992 15.504 133.237 16.3253 133.237 17.424C133.237 18.0853 133.125 18.7093 132.901 19.296C132.688 19.872 132.389 20.384 132.005 20.832C131.621 21.2693 131.173 21.616 130.661 21.872C130.149 22.1173 129.6 22.24 129.013 22.24ZM129.397 21.04C129.803 21.04 130.149 20.8907 130.437 20.592C130.736 20.2933 130.96 19.8827 131.109 19.36C131.269 18.8373 131.349 18.2507 131.349 17.6C131.349 16.9067 131.243 16.3573 131.029 15.952C130.827 15.5467 130.485 15.344 130.005 15.344C129.611 15.344 129.259 15.4933 128.949 15.792C128.651 16.0907 128.416 16.5013 128.245 17.024C128.085 17.536 128.005 18.1227 128.005 18.784C128.005 19.52 128.123 20.08 128.357 20.464C128.592 20.848 128.939 21.04 129.397 21.04ZM135.706 22.256C135.194 22.256 134.831 22.1067 134.618 21.808C134.415 21.5093 134.351 21.04 134.426 20.4L135.05 15.52H134.538C134.378 15.52 134.298 15.4347 134.298 15.264C134.298 15.1573 134.367 15.0027 134.506 14.8C134.655 14.5973 134.842 14.3733 135.066 14.128C135.29 13.8827 135.519 13.648 135.754 13.424C135.999 13.2 136.223 13.0187 136.426 12.88C136.628 12.7307 136.783 12.656 136.89 12.656C137.007 12.656 137.087 12.704 137.13 12.8C137.172 12.8853 137.183 12.9973 137.162 13.136L137.018 14.4H138.81C138.97 14.4 139.06 14.4267 139.082 14.48C139.114 14.5333 139.108 14.6187 139.066 14.736C138.938 15.0987 138.815 15.3227 138.698 15.408C138.591 15.4827 138.388 15.52 138.09 15.52H136.81L136.41 18.944C136.388 19.1467 136.367 19.3387 136.346 19.52C136.335 19.7013 136.33 19.8667 136.33 20.016C136.33 20.2613 136.388 20.4373 136.506 20.544C136.623 20.64 136.815 20.688 137.082 20.688C137.338 20.688 137.556 20.6347 137.738 20.528C137.93 20.4213 138.063 20.368 138.138 20.368C138.223 20.368 138.266 20.4213 138.266 20.528C138.266 20.6347 138.207 20.784 138.09 20.976C137.983 21.168 137.818 21.3653 137.594 21.568C137.38 21.76 137.114 21.92 136.794 22.048C136.474 22.1867 136.111 22.256 135.706 22.256ZM141.63 22.256C140.809 22.256 140.174 22 139.726 21.488C139.278 20.9653 139.054 20.2507 139.054 19.344C139.054 18.5867 139.161 17.8933 139.374 17.264C139.588 16.6347 139.886 16.0853 140.27 15.616C140.654 15.1467 141.102 14.784 141.614 14.528C142.137 14.272 142.702 14.144 143.31 14.144C144.036 14.144 144.59 14.2987 144.974 14.608C145.358 14.9173 145.55 15.36 145.55 15.936C145.55 16.5227 145.353 17.0347 144.958 17.472C144.574 17.9093 144.014 18.2827 143.278 18.592C142.553 18.9013 141.684 19.1627 140.67 19.376L140.462 18.416C141.049 18.3413 141.588 18.2133 142.078 18.032C142.569 17.8507 142.964 17.6107 143.262 17.312C143.561 17.0027 143.71 16.64 143.71 16.224C143.71 15.936 143.652 15.7173 143.534 15.568C143.428 15.4187 143.23 15.344 142.942 15.344C142.505 15.344 142.132 15.504 141.822 15.824C141.524 16.144 141.294 16.56 141.134 17.072C140.985 17.584 140.91 18.128 140.91 18.704C140.91 19.4827 141.028 20.0053 141.262 20.272C141.508 20.528 141.865 20.656 142.334 20.656C142.825 20.656 143.252 20.5813 143.614 20.432C143.988 20.272 144.308 20.1067 144.574 19.936C144.66 19.8827 144.734 19.84 144.798 19.808C144.862 19.776 144.916 19.76 144.958 19.76C145.012 19.76 145.054 19.7813 145.086 19.824C145.118 19.8667 145.134 19.9147 145.134 19.968C145.134 20.16 145.049 20.384 144.878 20.64C144.708 20.896 144.462 21.1467 144.142 21.392C143.833 21.6373 143.465 21.84 143.038 22C142.612 22.1707 142.142 22.256 141.63 22.256ZM152.966 22.24C152.049 22.24 151.334 21.9733 150.822 21.44C150.321 20.896 150.07 20.1013 150.07 19.056C150.07 18.3627 150.182 17.7227 150.406 17.136C150.641 16.5387 150.956 16.016 151.35 15.568C151.745 15.12 152.198 14.7733 152.71 14.528C153.233 14.272 153.782 14.144 154.358 14.144C155.276 14.144 155.974 14.416 156.454 14.96C156.945 15.504 157.19 16.3253 157.19 17.424C157.19 18.0853 157.078 18.7093 156.854 19.296C156.641 19.872 156.342 20.384 155.958 20.832C155.574 21.2693 155.126 21.616 154.614 21.872C154.102 22.1173 153.553 22.24 152.966 22.24ZM153.35 21.04C153.756 21.04 154.102 20.8907 154.39 20.592C154.689 20.2933 154.913 19.8827 155.062 19.36C155.222 18.8373 155.302 18.2507 155.302 17.6C155.302 16.9067 155.196 16.3573 154.982 15.952C154.78 15.5467 154.438 15.344 153.958 15.344C153.564 15.344 153.212 15.4933 152.902 15.792C152.604 16.0907 152.369 16.5013 152.198 17.024C152.038 17.536 151.958 18.1227 151.958 18.784C151.958 19.52 152.076 20.08 152.31 20.464C152.545 20.848 152.892 21.04 153.35 21.04ZM158.283 25.504C158.144 25.504 158.043 25.456 157.979 25.36C157.915 25.2747 157.883 25.1573 157.883 25.008C157.883 24.784 157.899 24.5387 157.931 24.272L159.115 14.464C159.264 13.2267 159.648 12.32 160.267 11.744C160.896 11.1573 161.744 10.864 162.811 10.864C163.302 10.864 163.648 10.944 163.851 11.104C164.064 11.2533 164.171 11.4827 164.171 11.792C164.171 11.9733 164.15 12.144 164.107 12.304C164.064 12.464 164.006 12.5973 163.931 12.704C163.856 12.8 163.766 12.848 163.659 12.848C163.574 12.848 163.446 12.784 163.275 12.656C163.104 12.5173 162.907 12.384 162.683 12.256C162.459 12.128 162.214 12.064 161.947 12.064C161.595 12.064 161.35 12.2453 161.211 12.608C161.083 12.96 160.987 13.4293 160.923 14.016L160.395 18.672C160.32 19.3013 160.256 19.9413 160.203 20.592C160.15 21.232 160.096 21.8293 160.043 22.384C160.011 22.6507 159.926 22.96 159.787 23.312C159.659 23.664 159.499 24.0053 159.307 24.336C159.115 24.6773 158.928 24.9547 158.747 25.168C158.566 25.392 158.411 25.504 158.283 25.504ZM158.203 15.52C158.128 15.52 158.075 15.4933 158.043 15.44C158.011 15.3867 158.006 15.3227 158.027 15.248L158.139 14.944C158.214 14.7307 158.294 14.5867 158.379 14.512C158.464 14.4373 158.672 14.4 159.003 14.4H162.843C162.982 14.4 163.024 14.4853 162.971 14.656C162.864 14.9547 162.752 15.1733 162.635 15.312C162.518 15.4507 162.299 15.52 161.979 15.52H158.203ZM168.753 22.256C168.241 22.256 167.878 22.1067 167.665 21.808C167.462 21.5093 167.398 21.04 167.473 20.4L168.097 15.52H167.585C167.425 15.52 167.345 15.4347 167.345 15.264C167.345 15.1573 167.414 15.0027 167.553 14.8C167.702 14.5973 167.889 14.3733 168.113 14.128C168.337 13.8827 168.566 13.648 168.801 13.424C169.046 13.2 169.27 13.0187 169.473 12.88C169.675 12.7307 169.83 12.656 169.937 12.656C170.054 12.656 170.134 12.704 170.177 12.8C170.219 12.8853 170.23 12.9973 170.209 13.136L170.065 14.4H171.857C172.017 14.4 172.107 14.4267 172.129 14.48C172.161 14.5333 172.155 14.6187 172.113 14.736C171.985 15.0987 171.862 15.3227 171.745 15.408C171.638 15.4827 171.435 15.52 171.137 15.52H169.857L169.457 18.944C169.435 19.1467 169.414 19.3387 169.393 19.52C169.382 19.7013 169.377 19.8667 169.377 20.016C169.377 20.2613 169.435 20.4373 169.553 20.544C169.67 20.64 169.862 20.688 170.129 20.688C170.385 20.688 170.603 20.6347 170.785 20.528C170.977 20.4213 171.11 20.368 171.185 20.368C171.27 20.368 171.313 20.4213 171.313 20.528C171.313 20.6347 171.254 20.784 171.137 20.976C171.03 21.168 170.865 21.3653 170.641 21.568C170.427 21.76 170.161 21.92 169.841 22.048C169.521 22.1867 169.158 22.256 168.753 22.256ZM177.728 22.16C177.642 22.16 177.568 22.1067 177.504 22C177.45 21.8827 177.413 21.7547 177.392 21.616C177.37 21.4773 177.36 21.3653 177.36 21.28C177.36 21.1307 177.37 20.9387 177.392 20.704C177.413 20.4693 177.44 20.224 177.472 19.968C177.504 19.7013 177.536 19.472 177.568 19.28L177.84 17.616C177.872 17.4027 177.904 17.2053 177.936 17.024C177.968 16.832 177.984 16.6293 177.984 16.416C177.984 16.256 177.952 16.1333 177.888 16.048C177.824 15.9627 177.738 15.92 177.632 15.92C177.493 15.92 177.264 16.0533 176.944 16.32C176.634 16.576 176.298 16.9493 175.936 17.44C175.584 17.9307 175.258 18.528 174.96 19.232C174.672 19.9253 174.485 20.7147 174.4 21.6L174 19.2C174.437 17.9627 174.928 16.976 175.472 16.24C176.016 15.504 176.554 14.976 177.088 14.656C177.621 14.3253 178.09 14.16 178.496 14.16C178.965 14.16 179.306 14.2987 179.52 14.576C179.733 14.8427 179.84 15.1893 179.84 15.616C179.84 15.8507 179.818 16.096 179.776 16.352C179.744 16.608 179.706 16.8747 179.664 17.152L178.896 22.16H177.728ZM172.976 22.224C172.837 22.224 172.73 22.192 172.656 22.128C172.592 22.0747 172.56 21.9467 172.56 21.744C172.56 21.5413 172.581 21.2267 172.624 20.8L173.312 14.496C173.376 13.888 173.456 13.2853 173.552 12.688C173.648 12.08 173.712 11.472 173.744 10.864H174.864C175.077 10.864 175.232 11.008 175.328 11.296C175.434 11.584 175.488 11.8773 175.488 12.176C175.488 12.4107 175.477 12.624 175.456 12.816C175.434 12.9973 175.402 13.1893 175.36 13.392C175.317 13.5947 175.258 13.8507 175.184 14.16L174.16 18.848L174.688 18.192C174.613 18.8747 174.554 19.52 174.512 20.128C174.469 20.736 174.432 21.2267 174.4 21.6C174.4 21.7067 174.304 21.808 174.112 21.904C173.93 22 173.728 22.0747 173.504 22.128C173.28 22.192 173.104 22.224 172.976 22.224ZM183.396 22.256C182.575 22.256 181.94 22 181.492 21.488C181.044 20.9653 180.82 20.2507 180.82 19.344C180.82 18.5867 180.927 17.8933 181.14 17.264C181.353 16.6347 181.652 16.0853 182.036 15.616C182.42 15.1467 182.868 14.784 183.38 14.528C183.903 14.272 184.468 14.144 185.076 14.144C185.801 14.144 186.356 14.2987 186.74 14.608C187.124 14.9173 187.316 15.36 187.316 15.936C187.316 16.5227 187.119 17.0347 186.724 17.472C186.34 17.9093 185.78 18.2827 185.044 18.592C184.319 18.9013 183.449 19.1627 182.436 19.376L182.228 18.416C182.815 18.3413 183.353 18.2133 183.844 18.032C184.335 17.8507 184.729 17.6107 185.028 17.312C185.327 17.0027 185.476 16.64 185.476 16.224C185.476 15.936 185.417 15.7173 185.3 15.568C185.193 15.4187 184.996 15.344 184.708 15.344C184.271 15.344 183.897 15.504 183.588 15.824C183.289 16.144 183.06 16.56 182.9 17.072C182.751 17.584 182.676 18.128 182.676 18.704C182.676 19.4827 182.793 20.0053 183.028 20.272C183.273 20.528 183.631 20.656 184.1 20.656C184.591 20.656 185.017 20.5813 185.38 20.432C185.753 20.272 186.073 20.1067 186.34 19.936C186.425 19.8827 186.5 19.84 186.564 19.808C186.628 19.776 186.681 19.76 186.724 19.76C186.777 19.76 186.82 19.7813 186.852 19.824C186.884 19.8667 186.9 19.9147 186.9 19.968C186.9 20.16 186.815 20.384 186.644 20.64C186.473 20.896 186.228 21.1467 185.908 21.392C185.599 21.6373 185.231 21.84 184.804 22C184.377 22.1707 183.908 22.256 183.396 22.256ZM192.988 22.128C192.796 22.128 192.647 22.0213 192.54 21.808C192.444 21.5947 192.396 21.344 192.396 21.056C192.396 20.64 192.444 19.9627 192.54 19.024L193.34 11.12C193.916 11.0667 194.487 11.0293 195.052 11.008C195.628 10.976 196.161 10.96 196.652 10.96C198.327 10.96 199.617 11.3707 200.524 12.192C201.441 13.0027 201.9 14.1387 201.9 15.6C201.9 16.8373 201.639 17.9413 201.116 18.912C200.593 19.872 199.836 20.6293 198.844 21.184C197.863 21.728 196.663 22 195.244 22C194.817 22 194.417 22.0213 194.044 22.064C193.681 22.1067 193.329 22.128 192.988 22.128ZM194.428 20.8C195.58 20.8 196.551 20.592 197.34 20.176C198.14 19.7493 198.743 19.1627 199.148 18.416C199.564 17.6587 199.772 16.784 199.772 15.792C199.772 14.6187 199.441 13.7227 198.78 13.104C198.129 12.4747 197.057 12.16 195.564 12.16H195.164L194.444 19.456C194.433 19.6373 194.423 19.8453 194.412 20.08C194.412 20.3147 194.417 20.5547 194.428 20.8ZM204.282 22.256C203.685 22.256 203.258 22.016 203.002 21.536C202.746 21.0453 202.618 20.3627 202.618 19.488C202.618 18.7093 202.73 17.9947 202.954 17.344C203.189 16.6933 203.504 16.1333 203.898 15.664C204.293 15.184 204.752 14.816 205.274 14.56C205.797 14.2933 206.352 14.16 206.938 14.16C207.397 14.16 207.813 14.224 208.186 14.352C208.57 14.4693 208.896 14.592 209.162 14.72L208.698 16.4C208.41 16.208 208.085 16.032 207.722 15.872C207.37 15.712 207.04 15.5893 206.73 15.504C206.432 15.408 206.208 15.36 206.058 15.36C205.76 15.36 205.482 15.5093 205.226 15.808C204.981 16.096 204.784 16.5013 204.634 17.024C204.496 17.536 204.426 18.128 204.426 18.8C204.426 19.4187 204.469 19.888 204.554 20.208C204.65 20.528 204.8 20.688 205.002 20.688C205.141 20.688 205.376 20.5333 205.706 20.224C206.037 19.904 206.437 19.376 206.906 18.64C207.376 17.904 207.872 16.9067 208.394 15.648L208.842 17.072C208.266 18.352 207.717 19.3707 207.194 20.128C206.672 20.8853 206.17 21.4293 205.69 21.76C205.21 22.0907 204.741 22.256 204.282 22.256ZM208.106 22.16C207.893 22.16 207.765 22.0587 207.722 21.856C207.68 21.6427 207.658 21.4187 207.658 21.184C207.658 21.0027 207.68 20.7787 207.722 20.512C207.776 20.2453 207.84 19.9573 207.914 19.648C207.989 19.3387 208.069 19.0347 208.154 18.736L208.506 17.536L208.042 17.12L208.426 14.704C208.768 14.6507 209.066 14.5813 209.322 14.496C209.589 14.4107 209.808 14.336 209.978 14.272C210.16 14.208 210.288 14.176 210.362 14.176C210.48 14.176 210.538 14.24 210.538 14.368C210.538 14.4213 210.469 14.6507 210.33 15.056C210.202 15.4507 210.058 15.9573 209.898 16.576C209.749 17.1947 209.637 17.8667 209.562 18.592L209.226 22.16H208.106ZM213.485 25.536C213.027 25.536 212.621 25.4613 212.269 25.312C211.917 25.1733 211.64 24.944 211.437 24.624C211.235 24.304 211.133 23.8773 211.133 23.344C211.133 23.2373 211.149 23.1627 211.181 23.12C211.224 23.088 211.267 23.072 211.309 23.072C211.363 23.072 211.427 23.0933 211.501 23.136C211.576 23.1787 211.683 23.2427 211.821 23.328C212.013 23.456 212.232 23.5893 212.477 23.728C212.733 23.8773 213.005 24.0053 213.293 24.112C213.581 24.2187 213.864 24.272 214.141 24.272C214.419 24.272 214.675 24.1813 214.909 24C215.144 23.8293 215.363 23.5253 215.565 23.088C215.779 22.6507 215.981 22.048 216.173 21.28L217.069 17.632L217.165 17.616C216.771 18.6613 216.312 19.5253 215.789 20.208C215.277 20.88 214.755 21.3813 214.221 21.712C213.699 22.032 213.224 22.192 212.797 22.192C212.349 22.192 212.019 22.0693 211.805 21.824C211.592 21.5787 211.485 21.2373 211.485 20.8C211.485 20.5867 211.496 20.352 211.517 20.096C211.549 19.84 211.597 19.44 211.661 18.896L212.253 14.144H213.373C213.555 14.144 213.693 14.2507 213.789 14.464C213.885 14.6667 213.933 14.9173 213.933 15.216C213.933 15.4293 213.923 15.6213 213.901 15.792C213.88 15.952 213.848 16.1387 213.805 16.352C213.773 16.5547 213.725 16.848 213.661 17.232L213.437 18.608C213.395 18.9067 213.357 19.1733 213.325 19.408C213.304 19.632 213.293 19.8187 213.293 19.968C213.293 20.192 213.315 20.3627 213.357 20.48C213.411 20.5867 213.523 20.64 213.693 20.64C213.875 20.64 214.083 20.5227 214.317 20.288C214.563 20.0533 214.813 19.7493 215.069 19.376C215.325 19.0027 215.56 18.6027 215.773 18.176C215.997 17.7493 216.179 17.3387 216.317 16.944C216.456 16.5387 216.525 16.2027 216.525 15.936C216.525 15.7547 216.509 15.5627 216.477 15.36C216.445 15.1467 216.429 14.96 216.429 14.8C216.429 14.672 216.531 14.56 216.733 14.464C216.947 14.3573 217.181 14.2773 217.437 14.224C217.704 14.1707 217.912 14.144 218.061 14.144C218.211 14.144 218.328 14.2133 218.413 14.352C218.509 14.4907 218.557 14.752 218.557 15.136C218.557 15.3173 218.525 15.5893 218.461 15.952C218.408 16.304 218.371 16.6347 218.349 16.944L217.949 21.52C217.885 22.2133 217.709 22.8107 217.421 23.312C217.144 23.824 216.792 24.24 216.365 24.56C215.939 24.8907 215.475 25.136 214.973 25.296C214.472 25.456 213.976 25.536 213.485 25.536Z" fill="#450BC8"/>
<path d="M226.162 12.1618C227.666 10.658 230.076 10.6141 231.633 12.0301C233.19 10.6141 235.601 10.658 237.105 12.1618C238.654 13.7108 238.654 16.2222 237.105 17.7712L232.105 22.7712C231.98 22.8963 231.81 22.9665 231.633 22.9665C231.456 22.9665 231.287 22.8963 231.162 22.7712L226.162 17.7712C224.613 16.2222 224.613 13.7108 226.162 12.1618Z" fill="#E72323"/>
<rect x="16" y="39" width="324" height="92" rx="15" fill="#450BC8"/>
<rect x="22" y="44" width="310" height="81" rx="15" fill="white"/>
<path d="M37.498 65H36.0859V57.6289H33.5781V56.4336H40V57.6289H37.498V65ZM43.7148 58.3906C44.5352 58.3906 45.1543 58.5723 45.5723 58.9355C45.9941 59.2988 46.2051 59.8652 46.2051 60.6348V65H45.2266L44.9629 64.0801H44.916C44.7324 64.3145 44.543 64.5078 44.3477 64.6602C44.1523 64.8125 43.9258 64.9258 43.668 65C43.4141 65.0781 43.1035 65.1172 42.7363 65.1172C42.3496 65.1172 42.0039 65.0469 41.6992 64.9062C41.3945 64.7617 41.1543 64.543 40.9785 64.25C40.8027 63.957 40.7148 63.5859 40.7148 63.1367C40.7148 62.4688 40.9629 61.9668 41.459 61.6309C41.959 61.2949 42.7129 61.1094 43.7207 61.0742L44.8457 61.0332V60.6934C44.8457 60.2441 44.7402 59.9238 44.5293 59.7324C44.3223 59.541 44.0293 59.4453 43.6504 59.4453C43.3262 59.4453 43.0117 59.4922 42.707 59.5859C42.4023 59.6797 42.1055 59.7949 41.8164 59.9316L41.3711 58.959C41.6875 58.791 42.0469 58.6543 42.4492 58.5488C42.8555 58.4434 43.2773 58.3906 43.7148 58.3906ZM44.8398 61.9004L44.002 61.9297C43.3145 61.9531 42.832 62.0703 42.5547 62.2812C42.2773 62.4922 42.1387 62.7812 42.1387 63.1484C42.1387 63.4688 42.2344 63.7031 42.4258 63.8516C42.6172 63.9961 42.8691 64.0684 43.1816 64.0684C43.6582 64.0684 44.0527 63.9336 44.3652 63.6641C44.6816 63.3906 44.8398 62.9902 44.8398 62.4629V61.9004ZM49.5098 55.8828V60.2891C49.5098 60.4883 49.502 60.707 49.4863 60.9453C49.4707 61.1797 49.4551 61.4004 49.4395 61.6074H49.4688C49.5703 61.4707 49.6914 61.3105 49.832 61.127C49.9766 60.9434 50.1133 60.7832 50.2422 60.6465L52.2227 58.5137H53.8047L51.209 61.3027L53.9746 65H52.3574L50.2832 62.1523L49.5098 62.8145V65H48.1328V55.8828H49.5098ZM57.5957 58.3906C58.1738 58.3906 58.6699 58.5098 59.084 58.748C59.498 58.9863 59.8164 59.3242 60.0391 59.7617C60.2617 60.1992 60.373 60.7227 60.373 61.332V62.0703H56.043C56.0586 62.6992 56.2266 63.1836 56.5469 63.5234C56.8711 63.8633 57.3242 64.0332 57.9062 64.0332C58.3203 64.0332 58.6914 63.9941 59.0195 63.916C59.3516 63.834 59.6934 63.7148 60.0449 63.5586V64.6777C59.7207 64.8301 59.3906 64.9414 59.0547 65.0117C58.7188 65.082 58.3164 65.1172 57.8477 65.1172C57.2109 65.1172 56.6504 64.9941 56.166 64.748C55.6855 64.498 55.3086 64.127 55.0352 63.6348C54.7656 63.1426 54.6309 62.5312 54.6309 61.8008C54.6309 61.0742 54.7539 60.457 55 59.9492C55.2461 59.4414 55.5918 59.0547 56.0371 58.7891C56.4824 58.5234 57.002 58.3906 57.5957 58.3906ZM57.5957 59.4277C57.1621 59.4277 56.8105 59.5684 56.541 59.8496C56.2754 60.1309 56.1191 60.543 56.0723 61.0859H59.0254C59.0215 60.7617 58.9668 60.4746 58.8613 60.2246C58.7598 59.9746 58.6035 59.7793 58.3926 59.6387C58.1855 59.498 57.9199 59.4277 57.5957 59.4277ZM67.5859 58.3906C68.4062 58.3906 69.0254 58.5723 69.4434 58.9355C69.8652 59.2988 70.0762 59.8652 70.0762 60.6348V65H69.0977L68.834 64.0801H68.7871C68.6035 64.3145 68.4141 64.5078 68.2188 64.6602C68.0234 64.8125 67.7969 64.9258 67.5391 65C67.2852 65.0781 66.9746 65.1172 66.6074 65.1172C66.2207 65.1172 65.875 65.0469 65.5703 64.9062C65.2656 64.7617 65.0254 64.543 64.8496 64.25C64.6738 63.957 64.5859 63.5859 64.5859 63.1367C64.5859 62.4688 64.834 61.9668 65.3301 61.6309C65.8301 61.2949 66.584 61.1094 67.5918 61.0742L68.7168 61.0332V60.6934C68.7168 60.2441 68.6113 59.9238 68.4004 59.7324C68.1934 59.541 67.9004 59.4453 67.5215 59.4453C67.1973 59.4453 66.8828 59.4922 66.5781 59.5859C66.2734 59.6797 65.9766 59.7949 65.6875 59.9316L65.2422 58.959C65.5586 58.791 65.918 58.6543 66.3203 58.5488C66.7266 58.4434 67.1484 58.3906 67.5859 58.3906ZM68.7109 61.9004L67.873 61.9297C67.1855 61.9531 66.7031 62.0703 66.4258 62.2812C66.1484 62.4922 66.0098 62.7812 66.0098 63.1484C66.0098 63.4688 66.1055 63.7031 66.2969 63.8516C66.4883 63.9961 66.7402 64.0684 67.0527 64.0684C67.5293 64.0684 67.9238 63.9336 68.2363 63.6641C68.5527 63.3906 68.7109 62.9902 68.7109 62.4629V61.9004ZM79.4805 63.1484C79.4805 63.5742 79.377 63.9336 79.1699 64.2266C78.9629 64.5195 78.6602 64.7422 78.2617 64.8945C77.8672 65.043 77.3828 65.1172 76.8086 65.1172C76.3555 65.1172 75.9648 65.084 75.6367 65.0176C75.3125 64.9551 75.0059 64.8574 74.7168 64.7246V63.5352C75.0254 63.6797 75.3711 63.8047 75.7539 63.9102C76.1406 64.0156 76.5059 64.0684 76.8496 64.0684C77.3027 64.0684 77.6289 63.998 77.8281 63.8574C78.0273 63.7129 78.127 63.5215 78.127 63.2832C78.127 63.1426 78.0859 63.0176 78.0039 62.9082C77.9258 62.7949 77.7773 62.6797 77.5586 62.5625C77.3438 62.4414 77.0273 62.2969 76.6094 62.1289C76.1992 61.9648 75.8535 61.8008 75.5723 61.6367C75.291 61.4727 75.0781 61.2754 74.9336 61.0449C74.7891 60.8105 74.7168 60.5117 74.7168 60.1484C74.7168 59.5742 74.9434 59.1387 75.3965 58.8418C75.8535 58.541 76.457 58.3906 77.207 58.3906C77.6055 58.3906 77.9805 58.4316 78.332 58.5137C78.6875 58.5918 79.0352 58.707 79.375 58.8594L78.9414 59.8965C78.6484 59.7676 78.3535 59.6621 78.0566 59.5801C77.7637 59.4941 77.4648 59.4512 77.1602 59.4512C76.8047 59.4512 76.5332 59.5059 76.3457 59.6152C76.1621 59.7246 76.0703 59.8809 76.0703 60.084C76.0703 60.2363 76.1152 60.3652 76.2051 60.4707C76.2949 60.5762 76.4492 60.6816 76.668 60.7871C76.8906 60.8926 77.1992 61.0234 77.5938 61.1797C77.9805 61.3281 78.3145 61.4844 78.5957 61.6484C78.8809 61.8086 79.0996 62.0059 79.252 62.2402C79.4043 62.4746 79.4805 62.7773 79.4805 63.1484ZM82.3457 55.8828V58.1738C82.3457 58.4121 82.3379 58.6445 82.3223 58.8711C82.3105 59.0977 82.2969 59.2734 82.2812 59.3984H82.3574C82.4941 59.1719 82.6621 58.9863 82.8613 58.8418C83.0605 58.6934 83.2832 58.582 83.5293 58.5078C83.7793 58.4336 84.0449 58.3965 84.3262 58.3965C84.8223 58.3965 85.2441 58.4805 85.5918 58.6484C85.9395 58.8125 86.2051 59.0684 86.3887 59.416C86.5762 59.7637 86.6699 60.2148 86.6699 60.7695V65H85.293V61.0273C85.293 60.5234 85.1895 60.1465 84.9824 59.8965C84.7754 59.6426 84.4551 59.5156 84.0215 59.5156C83.6035 59.5156 83.2715 59.6035 83.0254 59.7793C82.7832 59.9512 82.6094 60.207 82.5039 60.5469C82.3984 60.8828 82.3457 61.293 82.3457 61.7773V65H80.9688V55.8828H82.3457ZM94.3398 61.7422C94.3398 62.2812 94.2695 62.7598 94.1289 63.1777C93.9883 63.5957 93.7832 63.9492 93.5137 64.2383C93.2441 64.5234 92.9199 64.7422 92.541 64.8945C92.1621 65.043 91.7344 65.1172 91.2578 65.1172C90.8125 65.1172 90.4043 65.043 90.0332 64.8945C89.6621 64.7422 89.3398 64.5234 89.0664 64.2383C88.7969 63.9492 88.5879 63.5957 88.4395 63.1777C88.291 62.7598 88.2168 62.2812 88.2168 61.7422C88.2168 61.0273 88.3398 60.4219 88.5859 59.9258C88.8359 59.4258 89.1914 59.0449 89.6523 58.7832C90.1133 58.5215 90.6621 58.3906 91.2988 58.3906C91.8965 58.3906 92.4238 58.5215 92.8809 58.7832C93.3379 59.0449 93.6953 59.4258 93.9531 59.9258C94.2109 60.4258 94.3398 61.0312 94.3398 61.7422ZM89.6348 61.7422C89.6348 62.2148 89.6914 62.6191 89.8047 62.9551C89.9219 63.291 90.1016 63.5488 90.3438 63.7285C90.5859 63.9043 90.8984 63.9922 91.2812 63.9922C91.6641 63.9922 91.9766 63.9043 92.2188 63.7285C92.4609 63.5488 92.6387 63.291 92.752 62.9551C92.8652 62.6191 92.9219 62.2148 92.9219 61.7422C92.9219 61.2695 92.8652 60.8691 92.752 60.541C92.6387 60.209 92.4609 59.957 92.2188 59.7852C91.9766 59.6094 91.6621 59.5215 91.2754 59.5215C90.7051 59.5215 90.2891 59.7129 90.0273 60.0957C89.7656 60.4785 89.6348 61.0273 89.6348 61.7422ZM99.209 58.3906C99.3184 58.3906 99.4375 58.3965 99.5664 58.4082C99.6953 58.4199 99.8066 58.4355 99.9004 58.4551L99.7715 59.7441C99.6895 59.7207 99.5879 59.7031 99.4668 59.6914C99.3496 59.6797 99.2441 59.6738 99.1504 59.6738C98.9043 59.6738 98.6699 59.7148 98.4473 59.7969C98.2246 59.875 98.0273 59.9961 97.8555 60.1602C97.6836 60.3203 97.5488 60.5215 97.4512 60.7637C97.3535 61.0059 97.3047 61.2871 97.3047 61.6074V65H95.9219V58.5137H97L97.1875 59.6562H97.252C97.3809 59.4258 97.541 59.2148 97.7324 59.0234C97.9238 58.832 98.1426 58.6797 98.3887 58.5664C98.6387 58.4492 98.9121 58.3906 99.209 58.3906ZM103.516 64.0039C103.695 64.0039 103.873 63.9883 104.049 63.957C104.225 63.9219 104.385 63.8809 104.529 63.834V64.877C104.377 64.9434 104.18 65 103.938 65.0469C103.695 65.0938 103.443 65.1172 103.182 65.1172C102.814 65.1172 102.484 65.0566 102.191 64.9355C101.898 64.8105 101.666 64.5977 101.494 64.2969C101.322 63.9961 101.236 63.5801 101.236 63.0488V59.5625H100.352V58.9473L101.301 58.4609L101.752 57.0723H102.619V58.5137H104.477V59.5625H102.619V63.0312C102.619 63.3594 102.701 63.6035 102.865 63.7637C103.029 63.9238 103.246 64.0039 103.516 64.0039ZM113.324 63.1484C113.324 63.5742 113.221 63.9336 113.014 64.2266C112.807 64.5195 112.504 64.7422 112.105 64.8945C111.711 65.043 111.227 65.1172 110.652 65.1172C110.199 65.1172 109.809 65.084 109.48 65.0176C109.156 64.9551 108.85 64.8574 108.561 64.7246V63.5352C108.869 63.6797 109.215 63.8047 109.598 63.9102C109.984 64.0156 110.35 64.0684 110.693 64.0684C111.146 64.0684 111.473 63.998 111.672 63.8574C111.871 63.7129 111.971 63.5215 111.971 63.2832C111.971 63.1426 111.93 63.0176 111.848 62.9082C111.77 62.7949 111.621 62.6797 111.402 62.5625C111.188 62.4414 110.871 62.2969 110.453 62.1289C110.043 61.9648 109.697 61.8008 109.416 61.6367C109.135 61.4727 108.922 61.2754 108.777 61.0449C108.633 60.8105 108.561 60.5117 108.561 60.1484C108.561 59.5742 108.787 59.1387 109.24 58.8418C109.697 58.541 110.301 58.3906 111.051 58.3906C111.449 58.3906 111.824 58.4316 112.176 58.5137C112.531 58.5918 112.879 58.707 113.219 58.8594L112.785 59.8965C112.492 59.7676 112.197 59.6621 111.9 59.5801C111.607 59.4941 111.309 59.4512 111.004 59.4512C110.648 59.4512 110.377 59.5059 110.189 59.6152C110.006 59.7246 109.914 59.8809 109.914 60.084C109.914 60.2363 109.959 60.3652 110.049 60.4707C110.139 60.5762 110.293 60.6816 110.512 60.7871C110.734 60.8926 111.043 61.0234 111.438 61.1797C111.824 61.3281 112.158 61.4844 112.439 61.6484C112.725 61.8086 112.943 62.0059 113.096 62.2402C113.248 62.4746 113.324 62.7773 113.324 63.1484ZM117.426 65.1172C116.812 65.1172 116.281 64.998 115.832 64.7598C115.383 64.5215 115.037 64.1562 114.795 63.6641C114.553 63.1719 114.432 62.5469 114.432 61.7891C114.432 61 114.564 60.3555 114.83 59.8555C115.096 59.3555 115.463 58.9863 115.932 58.748C116.404 58.5098 116.945 58.3906 117.555 58.3906C117.941 58.3906 118.291 58.4297 118.604 58.5078C118.92 58.582 119.188 58.6738 119.406 58.7832L118.996 59.8848C118.758 59.7871 118.514 59.7051 118.264 59.6387C118.014 59.5723 117.773 59.5391 117.543 59.5391C117.164 59.5391 116.848 59.623 116.594 59.791C116.344 59.959 116.156 60.209 116.031 60.541C115.91 60.873 115.85 61.2852 115.85 61.7773C115.85 62.2539 115.912 62.6562 116.037 62.9844C116.162 63.3086 116.348 63.5547 116.594 63.7227C116.84 63.8867 117.143 63.9688 117.502 63.9688C117.857 63.9688 118.176 63.9258 118.457 63.8398C118.738 63.7539 119.004 63.6426 119.254 63.5059V64.7012C119.008 64.8418 118.744 64.9453 118.463 65.0117C118.182 65.082 117.836 65.1172 117.426 65.1172ZM122.154 58.5137V65H120.777V58.5137H122.154ZM121.475 56.0293C121.686 56.0293 121.867 56.0859 122.02 56.1992C122.176 56.3125 122.254 56.5078 122.254 56.7852C122.254 57.0586 122.176 57.2539 122.02 57.3711C121.867 57.4844 121.686 57.541 121.475 57.541C121.256 57.541 121.07 57.4844 120.918 57.3711C120.77 57.2539 120.695 57.0586 120.695 56.7852C120.695 56.5078 120.77 56.3125 120.918 56.1992C121.07 56.0859 121.256 56.0293 121.475 56.0293ZM126.713 58.3906C127.291 58.3906 127.787 58.5098 128.201 58.748C128.615 58.9863 128.934 59.3242 129.156 59.7617C129.379 60.1992 129.49 60.7227 129.49 61.332V62.0703H125.16C125.176 62.6992 125.344 63.1836 125.664 63.5234C125.988 63.8633 126.441 64.0332 127.023 64.0332C127.438 64.0332 127.809 63.9941 128.137 63.916C128.469 63.834 128.811 63.7148 129.162 63.5586V64.6777C128.838 64.8301 128.508 64.9414 128.172 65.0117C127.836 65.082 127.434 65.1172 126.965 65.1172C126.328 65.1172 125.768 64.9941 125.283 64.748C124.803 64.498 124.426 64.127 124.152 63.6348C123.883 63.1426 123.748 62.5312 123.748 61.8008C123.748 61.0742 123.871 60.457 124.117 59.9492C124.363 59.4414 124.709 59.0547 125.154 58.7891C125.6 58.5234 126.119 58.3906 126.713 58.3906ZM126.713 59.4277C126.279 59.4277 125.928 59.5684 125.658 59.8496C125.393 60.1309 125.236 60.543 125.189 61.0859H128.143C128.139 60.7617 128.084 60.4746 127.979 60.2246C127.877 59.9746 127.721 59.7793 127.51 59.6387C127.303 59.498 127.037 59.4277 126.713 59.4277ZM134.424 58.3906C135.154 58.3906 135.723 58.5801 136.129 58.959C136.539 59.334 136.744 59.9375 136.744 60.7695V65H135.367V61.0273C135.367 60.5234 135.264 60.1465 135.057 59.8965C134.85 59.6426 134.529 59.5156 134.096 59.5156C133.467 59.5156 133.029 59.709 132.783 60.0957C132.541 60.4824 132.42 61.043 132.42 61.7773V65H131.043V58.5137H132.115L132.309 59.3926H132.385C132.525 59.166 132.699 58.9805 132.906 58.8359C133.117 58.6875 133.352 58.5762 133.609 58.502C133.871 58.4277 134.143 58.3906 134.424 58.3906ZM141.086 64.0039C141.266 64.0039 141.443 63.9883 141.619 63.957C141.795 63.9219 141.955 63.8809 142.1 63.834V64.877C141.947 64.9434 141.75 65 141.508 65.0469C141.266 65.0938 141.014 65.1172 140.752 65.1172C140.385 65.1172 140.055 65.0566 139.762 64.9355C139.469 64.8105 139.236 64.5977 139.064 64.2969C138.893 63.9961 138.807 63.5801 138.807 63.0488V59.5625H137.922V58.9473L138.871 58.4609L139.322 57.0723H140.189V58.5137H142.047V59.5625H140.189V63.0312C140.189 63.3594 140.271 63.6035 140.436 63.7637C140.6 63.9238 140.816 64.0039 141.086 64.0039ZM144.795 58.5137V65H143.418V58.5137H144.795ZM144.115 56.0293C144.326 56.0293 144.508 56.0859 144.66 56.1992C144.816 56.3125 144.895 56.5078 144.895 56.7852C144.895 57.0586 144.816 57.2539 144.66 57.3711C144.508 57.4844 144.326 57.541 144.115 57.541C143.896 57.541 143.711 57.4844 143.559 57.3711C143.41 57.2539 143.336 57.0586 143.336 56.7852C143.336 56.5078 143.41 56.3125 143.559 56.1992C143.711 56.0859 143.896 56.0293 144.115 56.0293ZM150.01 59.5625H148.434V65H147.057V59.5625H145.996V58.9004L147.057 58.4961V58.0449C147.057 57.4941 147.143 57.0566 147.314 56.7324C147.49 56.4082 147.74 56.1758 148.064 56.0352C148.393 55.8906 148.783 55.8184 149.236 55.8184C149.533 55.8184 149.805 55.8438 150.051 55.8945C150.297 55.9414 150.504 55.9961 150.672 56.0586L150.314 57.1016C150.182 57.0586 150.033 57.0195 149.869 56.9844C149.705 56.9453 149.529 56.9258 149.342 56.9258C149.029 56.9258 148.799 57.0234 148.65 57.2188C148.506 57.4141 148.434 57.6992 148.434 58.0742V58.5137H150.01V59.5625ZM152.488 58.5137V65H151.111V58.5137H152.488ZM151.809 56.0293C152.02 56.0293 152.201 56.0859 152.354 56.1992C152.51 56.3125 152.588 56.5078 152.588 56.7852C152.588 57.0586 152.51 57.2539 152.354 57.3711C152.201 57.4844 152.02 57.541 151.809 57.541C151.59 57.541 151.404 57.4844 151.252 57.3711C151.104 57.2539 151.029 57.0586 151.029 56.7852C151.029 56.5078 151.104 56.3125 151.252 56.1992C151.404 56.0859 151.59 56.0293 151.809 56.0293ZM157.07 65.1172C156.457 65.1172 155.926 64.998 155.477 64.7598C155.027 64.5215 154.682 64.1562 154.439 63.6641C154.197 63.1719 154.076 62.5469 154.076 61.7891C154.076 61 154.209 60.3555 154.475 59.8555C154.74 59.3555 155.107 58.9863 155.576 58.748C156.049 58.5098 156.59 58.3906 157.199 58.3906C157.586 58.3906 157.936 58.4297 158.248 58.5078C158.564 58.582 158.832 58.6738 159.051 58.7832L158.641 59.8848C158.402 59.7871 158.158 59.7051 157.908 59.6387C157.658 59.5723 157.418 59.5391 157.188 59.5391C156.809 59.5391 156.492 59.623 156.238 59.791C155.988 59.959 155.801 60.209 155.676 60.541C155.555 60.873 155.494 61.2852 155.494 61.7773C155.494 62.2539 155.557 62.6562 155.682 62.9844C155.807 63.3086 155.992 63.5547 156.238 63.7227C156.484 63.8867 156.787 63.9688 157.146 63.9688C157.502 63.9688 157.82 63.9258 158.102 63.8398C158.383 63.7539 158.648 63.6426 158.898 63.5059V64.7012C158.652 64.8418 158.389 64.9453 158.107 65.0117C157.826 65.082 157.48 65.1172 157.07 65.1172ZM162.965 58.3906C163.785 58.3906 164.404 58.5723 164.822 58.9355C165.244 59.2988 165.455 59.8652 165.455 60.6348V65H164.477L164.213 64.0801H164.166C163.982 64.3145 163.793 64.5078 163.598 64.6602C163.402 64.8125 163.176 64.9258 162.918 65C162.664 65.0781 162.354 65.1172 161.986 65.1172C161.6 65.1172 161.254 65.0469 160.949 64.9062C160.645 64.7617 160.404 64.543 160.229 64.25C160.053 63.957 159.965 63.5859 159.965 63.1367C159.965 62.4688 160.213 61.9668 160.709 61.6309C161.209 61.2949 161.963 61.1094 162.971 61.0742L164.096 61.0332V60.6934C164.096 60.2441 163.99 59.9238 163.779 59.7324C163.572 59.541 163.279 59.4453 162.9 59.4453C162.576 59.4453 162.262 59.4922 161.957 59.5859C161.652 59.6797 161.355 59.7949 161.066 59.9316L160.621 58.959C160.938 58.791 161.297 58.6543 161.699 58.5488C162.105 58.4434 162.527 58.3906 162.965 58.3906ZM164.09 61.9004L163.252 61.9297C162.564 61.9531 162.082 62.0703 161.805 62.2812C161.527 62.4922 161.389 62.7812 161.389 63.1484C161.389 63.4688 161.484 63.7031 161.676 63.8516C161.867 63.9961 162.119 64.0684 162.432 64.0684C162.908 64.0684 163.303 63.9336 163.615 63.6641C163.932 63.3906 164.09 62.9902 164.09 62.4629V61.9004ZM168.766 65H167.383V55.8828H168.766V65ZM172.117 65H170.734V55.8828H172.117V65ZM173.107 58.5137H174.607L175.938 62.2168C175.996 62.3848 176.049 62.5508 176.096 62.7148C176.146 62.875 176.189 63.0332 176.225 63.1895C176.264 63.3457 176.295 63.502 176.318 63.6582H176.354C176.393 63.4551 176.447 63.2285 176.518 62.9785C176.592 62.7246 176.674 62.4707 176.764 62.2168L178.041 58.5137H179.523L176.74 65.8906C176.58 66.3125 176.383 66.6719 176.148 66.9688C175.918 67.2695 175.645 67.4961 175.328 67.6484C175.012 67.8047 174.65 67.8828 174.244 67.8828C174.049 67.8828 173.879 67.8711 173.734 67.8477C173.59 67.8281 173.467 67.8066 173.365 67.7832V66.6816C173.447 66.7012 173.551 66.7188 173.676 66.7344C173.801 66.75 173.93 66.7578 174.062 66.7578C174.309 66.7578 174.521 66.709 174.701 66.6113C174.881 66.5137 175.033 66.375 175.158 66.1953C175.283 66.0195 175.387 65.8184 175.469 65.5918L175.697 64.9824L173.107 58.5137ZM185.107 65L182.641 58.5137H184.1L185.436 62.3223C185.521 62.5645 185.6 62.8262 185.67 63.1074C185.74 63.3887 185.789 63.625 185.816 63.8164H185.863C185.891 63.6172 185.943 63.3789 186.021 63.1016C186.1 62.8203 186.18 62.5605 186.262 62.3223L187.598 58.5137H189.051L186.584 65H185.107ZM192.578 58.3906C193.398 58.3906 194.018 58.5723 194.436 58.9355C194.857 59.2988 195.068 59.8652 195.068 60.6348V65H194.09L193.826 64.0801H193.779C193.596 64.3145 193.406 64.5078 193.211 64.6602C193.016 64.8125 192.789 64.9258 192.531 65C192.277 65.0781 191.967 65.1172 191.6 65.1172C191.213 65.1172 190.867 65.0469 190.562 64.9062C190.258 64.7617 190.018 64.543 189.842 64.25C189.666 63.957 189.578 63.5859 189.578 63.1367C189.578 62.4688 189.826 61.9668 190.322 61.6309C190.822 61.2949 191.576 61.1094 192.584 61.0742L193.709 61.0332V60.6934C193.709 60.2441 193.604 59.9238 193.393 59.7324C193.186 59.541 192.893 59.4453 192.514 59.4453C192.189 59.4453 191.875 59.4922 191.57 59.5859C191.266 59.6797 190.969 59.7949 190.68 59.9316L190.234 58.959C190.551 58.791 190.91 58.6543 191.312 58.5488C191.719 58.4434 192.141 58.3906 192.578 58.3906ZM193.703 61.9004L192.865 61.9297C192.178 61.9531 191.695 62.0703 191.418 62.2812C191.141 62.4922 191.002 62.7812 191.002 63.1484C191.002 63.4688 191.098 63.7031 191.289 63.8516C191.48 63.9961 191.732 64.0684 192.045 64.0684C192.521 64.0684 192.916 63.9336 193.229 63.6641C193.545 63.3906 193.703 62.9902 193.703 62.4629V61.9004ZM198.379 65H196.996V55.8828H198.379V65ZM201.725 58.5137V65H200.348V58.5137H201.725ZM201.045 56.0293C201.256 56.0293 201.438 56.0859 201.59 56.1992C201.746 56.3125 201.824 56.5078 201.824 56.7852C201.824 57.0586 201.746 57.2539 201.59 57.3711C201.438 57.4844 201.256 57.541 201.045 57.541C200.826 57.541 200.641 57.4844 200.488 57.3711C200.34 57.2539 200.266 57.0586 200.266 56.7852C200.266 56.5078 200.34 56.3125 200.488 56.1992C200.641 56.0859 200.826 56.0293 201.045 56.0293ZM205.879 65.1172C205.105 65.1172 204.484 64.8359 204.016 64.2734C203.551 63.707 203.318 62.873 203.318 61.7715C203.318 60.6582 203.555 59.8164 204.027 59.2461C204.504 58.6758 205.131 58.3906 205.908 58.3906C206.236 58.3906 206.523 58.4355 206.77 58.5254C207.016 58.6113 207.227 58.7285 207.402 58.877C207.582 59.0254 207.734 59.1914 207.859 59.375H207.924C207.904 59.2539 207.881 59.0801 207.854 58.8535C207.83 58.623 207.818 58.4102 207.818 58.2148V55.8828H209.201V65H208.123L207.877 64.1152H207.818C207.701 64.3027 207.553 64.4727 207.373 64.625C207.197 64.7734 206.986 64.8926 206.74 64.9824C206.498 65.0723 206.211 65.1172 205.879 65.1172ZM206.266 63.998C206.855 63.998 207.271 63.8281 207.514 63.4883C207.756 63.1484 207.881 62.6387 207.889 61.959V61.7773C207.889 61.0508 207.771 60.4941 207.537 60.1074C207.303 59.7168 206.875 59.5215 206.254 59.5215C205.758 59.5215 205.379 59.7227 205.117 60.125C204.859 60.5234 204.73 61.0801 204.73 61.7949C204.73 62.5098 204.859 63.0566 205.117 63.4355C205.379 63.8105 205.762 63.998 206.266 63.998ZM213.719 58.3906C214.539 58.3906 215.158 58.5723 215.576 58.9355C215.998 59.2988 216.209 59.8652 216.209 60.6348V65H215.23L214.967 64.0801H214.92C214.736 64.3145 214.547 64.5078 214.352 64.6602C214.156 64.8125 213.93 64.9258 213.672 65C213.418 65.0781 213.107 65.1172 212.74 65.1172C212.354 65.1172 212.008 65.0469 211.703 64.9062C211.398 64.7617 211.158 64.543 210.982 64.25C210.807 63.957 210.719 63.5859 210.719 63.1367C210.719 62.4688 210.967 61.9668 211.463 61.6309C211.963 61.2949 212.717 61.1094 213.725 61.0742L214.85 61.0332V60.6934C214.85 60.2441 214.744 59.9238 214.533 59.7324C214.326 59.541 214.033 59.4453 213.654 59.4453C213.33 59.4453 213.016 59.4922 212.711 59.5859C212.406 59.6797 212.109 59.7949 211.82 59.9316L211.375 58.959C211.691 58.791 212.051 58.6543 212.453 58.5488C212.859 58.4434 213.281 58.3906 213.719 58.3906ZM214.844 61.9004L214.006 61.9297C213.318 61.9531 212.836 62.0703 212.559 62.2812C212.281 62.4922 212.143 62.7812 212.143 63.1484C212.143 63.4688 212.238 63.7031 212.43 63.8516C212.621 63.9961 212.873 64.0684 213.186 64.0684C213.662 64.0684 214.057 63.9336 214.369 63.6641C214.686 63.3906 214.844 62.9902 214.844 62.4629V61.9004ZM220.551 64.0039C220.73 64.0039 220.908 63.9883 221.084 63.957C221.26 63.9219 221.42 63.8809 221.564 63.834V64.877C221.412 64.9434 221.215 65 220.973 65.0469C220.73 65.0938 220.479 65.1172 220.217 65.1172C219.85 65.1172 219.52 65.0566 219.227 64.9355C218.934 64.8105 218.701 64.5977 218.529 64.2969C218.357 63.9961 218.271 63.5801 218.271 63.0488V59.5625H217.387V58.9473L218.336 58.4609L218.787 57.0723H219.654V58.5137H221.512V59.5625H219.654V63.0312C219.654 63.3594 219.736 63.6035 219.9 63.7637C220.064 63.9238 220.281 64.0039 220.551 64.0039ZM225.467 58.3906C226.045 58.3906 226.541 58.5098 226.955 58.748C227.369 58.9863 227.688 59.3242 227.91 59.7617C228.133 60.1992 228.244 60.7227 228.244 61.332V62.0703H223.914C223.93 62.6992 224.098 63.1836 224.418 63.5234C224.742 63.8633 225.195 64.0332 225.777 64.0332C226.191 64.0332 226.562 63.9941 226.891 63.916C227.223 63.834 227.564 63.7148 227.916 63.5586V64.6777C227.592 64.8301 227.262 64.9414 226.926 65.0117C226.59 65.082 226.188 65.1172 225.719 65.1172C225.082 65.1172 224.521 64.9941 224.037 64.748C223.557 64.498 223.18 64.127 222.906 63.6348C222.637 63.1426 222.502 62.5312 222.502 61.8008C222.502 61.0742 222.625 60.457 222.871 59.9492C223.117 59.4414 223.463 59.0547 223.908 58.7891C224.354 58.5234 224.873 58.3906 225.467 58.3906ZM225.467 59.4277C225.033 59.4277 224.682 59.5684 224.412 59.8496C224.146 60.1309 223.99 60.543 223.943 61.0859H226.896C226.893 60.7617 226.838 60.4746 226.732 60.2246C226.631 59.9746 226.475 59.7793 226.264 59.6387C226.057 59.498 225.791 59.4277 225.467 59.4277ZM231.977 65.1172C231.203 65.1172 230.582 64.8359 230.113 64.2734C229.648 63.707 229.416 62.873 229.416 61.7715C229.416 60.6582 229.652 59.8164 230.125 59.2461C230.602 58.6758 231.229 58.3906 232.006 58.3906C232.334 58.3906 232.621 58.4355 232.867 58.5254C233.113 58.6113 233.324 58.7285 233.5 58.877C233.68 59.0254 233.832 59.1914 233.957 59.375H234.021C234.002 59.2539 233.979 59.0801 233.951 58.8535C233.928 58.623 233.916 58.4102 233.916 58.2148V55.8828H235.299V65H234.221L233.975 64.1152H233.916C233.799 64.3027 233.65 64.4727 233.471 64.625C233.295 64.7734 233.084 64.8926 232.838 64.9824C232.596 65.0723 232.309 65.1172 231.977 65.1172ZM232.363 63.998C232.953 63.998 233.369 63.8281 233.611 63.4883C233.854 63.1484 233.979 62.6387 233.986 61.959V61.7773C233.986 61.0508 233.869 60.4941 233.635 60.1074C233.4 59.7168 232.973 59.5215 232.352 59.5215C231.855 59.5215 231.477 59.7227 231.215 60.125C230.957 60.5234 230.828 61.0801 230.828 61.7949C230.828 62.5098 230.957 63.0566 231.215 63.4355C231.477 63.8105 231.859 63.998 232.363 63.998ZM242.934 58.3906C243.754 58.3906 244.373 58.5723 244.791 58.9355C245.213 59.2988 245.424 59.8652 245.424 60.6348V65H244.445L244.182 64.0801H244.135C243.951 64.3145 243.762 64.5078 243.566 64.6602C243.371 64.8125 243.145 64.9258 242.887 65C242.633 65.0781 242.322 65.1172 241.955 65.1172C241.568 65.1172 241.223 65.0469 240.918 64.9062C240.613 64.7617 240.373 64.543 240.197 64.25C240.021 63.957 239.934 63.5859 239.934 63.1367C239.934 62.4688 240.182 61.9668 240.678 61.6309C241.178 61.2949 241.932 61.1094 242.939 61.0742L244.064 61.0332V60.6934C244.064 60.2441 243.959 59.9238 243.748 59.7324C243.541 59.541 243.248 59.4453 242.869 59.4453C242.545 59.4453 242.23 59.4922 241.926 59.5859C241.621 59.6797 241.324 59.7949 241.035 59.9316L240.59 58.959C240.906 58.791 241.266 58.6543 241.668 58.5488C242.074 58.4434 242.496 58.3906 242.934 58.3906ZM244.059 61.9004L243.221 61.9297C242.533 61.9531 242.051 62.0703 241.773 62.2812C241.496 62.4922 241.357 62.7812 241.357 63.1484C241.357 63.4688 241.453 63.7031 241.645 63.8516C241.836 63.9961 242.088 64.0684 242.4 64.0684C242.877 64.0684 243.271 63.9336 243.584 63.6641C243.9 63.3906 244.059 62.9902 244.059 62.4629V61.9004ZM251.711 63.1484C251.711 63.5742 251.607 63.9336 251.4 64.2266C251.193 64.5195 250.891 64.7422 250.492 64.8945C250.098 65.043 249.613 65.1172 249.039 65.1172C248.586 65.1172 248.195 65.084 247.867 65.0176C247.543 64.9551 247.236 64.8574 246.947 64.7246V63.5352C247.256 63.6797 247.602 63.8047 247.984 63.9102C248.371 64.0156 248.736 64.0684 249.08 64.0684C249.533 64.0684 249.859 63.998 250.059 63.8574C250.258 63.7129 250.357 63.5215 250.357 63.2832C250.357 63.1426 250.316 63.0176 250.234 62.9082C250.156 62.7949 250.008 62.6797 249.789 62.5625C249.574 62.4414 249.258 62.2969 248.84 62.1289C248.43 61.9648 248.084 61.8008 247.803 61.6367C247.521 61.4727 247.309 61.2754 247.164 61.0449C247.02 60.8105 246.947 60.5117 246.947 60.1484C246.947 59.5742 247.174 59.1387 247.627 58.8418C248.084 58.541 248.688 58.3906 249.438 58.3906C249.836 58.3906 250.211 58.4316 250.562 58.5137C250.918 58.5918 251.266 58.707 251.605 58.8594L251.172 59.8965C250.879 59.7676 250.584 59.6621 250.287 59.5801C249.994 59.4941 249.695 59.4512 249.391 59.4512C249.035 59.4512 248.764 59.5059 248.576 59.6152C248.393 59.7246 248.301 59.8809 248.301 60.084C248.301 60.2363 248.346 60.3652 248.436 60.4707C248.525 60.5762 248.68 60.6816 248.898 60.7871C249.121 60.8926 249.43 61.0234 249.824 61.1797C250.211 61.3281 250.545 61.4844 250.826 61.6484C251.111 61.8086 251.33 62.0059 251.482 62.2402C251.635 62.4746 251.711 62.7773 251.711 63.1484ZM257.559 63.1484C257.559 63.5742 257.455 63.9336 257.248 64.2266C257.041 64.5195 256.738 64.7422 256.34 64.8945C255.945 65.043 255.461 65.1172 254.887 65.1172C254.434 65.1172 254.043 65.084 253.715 65.0176C253.391 64.9551 253.084 64.8574 252.795 64.7246V63.5352C253.104 63.6797 253.449 63.8047 253.832 63.9102C254.219 64.0156 254.584 64.0684 254.928 64.0684C255.381 64.0684 255.707 63.998 255.906 63.8574C256.105 63.7129 256.205 63.5215 256.205 63.2832C256.205 63.1426 256.164 63.0176 256.082 62.9082C256.004 62.7949 255.855 62.6797 255.637 62.5625C255.422 62.4414 255.105 62.2969 254.688 62.1289C254.277 61.9648 253.932 61.8008 253.65 61.6367C253.369 61.4727 253.156 61.2754 253.012 61.0449C252.867 60.8105 252.795 60.5117 252.795 60.1484C252.795 59.5742 253.021 59.1387 253.475 58.8418C253.932 58.541 254.535 58.3906 255.285 58.3906C255.684 58.3906 256.059 58.4316 256.41 58.5137C256.766 58.5918 257.113 58.707 257.453 58.8594L257.02 59.8965C256.727 59.7676 256.432 59.6621 256.135 59.5801C255.842 59.4941 255.543 59.4512 255.238 59.4512C254.883 59.4512 254.611 59.5059 254.424 59.6152C254.24 59.7246 254.148 59.8809 254.148 60.084C254.148 60.2363 254.193 60.3652 254.283 60.4707C254.373 60.5762 254.527 60.6816 254.746 60.7871C254.969 60.8926 255.277 61.0234 255.672 61.1797C256.059 61.3281 256.393 61.4844 256.674 61.6484C256.959 61.8086 257.178 62.0059 257.33 62.2402C257.482 62.4746 257.559 62.7773 257.559 63.1484ZM261.631 58.3906C262.209 58.3906 262.705 58.5098 263.119 58.748C263.533 58.9863 263.852 59.3242 264.074 59.7617C264.297 60.1992 264.408 60.7227 264.408 61.332V62.0703H260.078C260.094 62.6992 260.262 63.1836 260.582 63.5234C260.906 63.8633 261.359 64.0332 261.941 64.0332C262.355 64.0332 262.727 63.9941 263.055 63.916C263.387 63.834 263.729 63.7148 264.08 63.5586V64.6777C263.756 64.8301 263.426 64.9414 263.09 65.0117C262.754 65.082 262.352 65.1172 261.883 65.1172C261.246 65.1172 260.686 64.9941 260.201 64.748C259.721 64.498 259.344 64.127 259.07 63.6348C258.801 63.1426 258.666 62.5312 258.666 61.8008C258.666 61.0742 258.789 60.457 259.035 59.9492C259.281 59.4414 259.627 59.0547 260.072 58.7891C260.518 58.5234 261.037 58.3906 261.631 58.3906ZM261.631 59.4277C261.197 59.4277 260.846 59.5684 260.576 59.8496C260.311 60.1309 260.154 60.543 260.107 61.0859H263.061C263.057 60.7617 263.002 60.4746 262.896 60.2246C262.795 59.9746 262.639 59.7793 262.428 59.6387C262.221 59.498 261.955 59.4277 261.631 59.4277ZM270.32 63.1484C270.32 63.5742 270.217 63.9336 270.01 64.2266C269.803 64.5195 269.5 64.7422 269.102 64.8945C268.707 65.043 268.223 65.1172 267.648 65.1172C267.195 65.1172 266.805 65.084 266.477 65.0176C266.152 64.9551 265.846 64.8574 265.557 64.7246V63.5352C265.865 63.6797 266.211 63.8047 266.594 63.9102C266.98 64.0156 267.346 64.0684 267.689 64.0684C268.143 64.0684 268.469 63.998 268.668 63.8574C268.867 63.7129 268.967 63.5215 268.967 63.2832C268.967 63.1426 268.926 63.0176 268.844 62.9082C268.766 62.7949 268.617 62.6797 268.398 62.5625C268.184 62.4414 267.867 62.2969 267.449 62.1289C267.039 61.9648 266.693 61.8008 266.412 61.6367C266.131 61.4727 265.918 61.2754 265.773 61.0449C265.629 60.8105 265.557 60.5117 265.557 60.1484C265.557 59.5742 265.783 59.1387 266.236 58.8418C266.693 58.541 267.297 58.3906 268.047 58.3906C268.445 58.3906 268.82 58.4316 269.172 58.5137C269.527 58.5918 269.875 58.707 270.215 58.8594L269.781 59.8965C269.488 59.7676 269.193 59.6621 268.896 59.5801C268.604 59.4941 268.305 59.4512 268 59.4512C267.645 59.4512 267.373 59.5059 267.186 59.6152C267.002 59.7246 266.91 59.8809 266.91 60.084C266.91 60.2363 266.955 60.3652 267.045 60.4707C267.135 60.5762 267.289 60.6816 267.508 60.7871C267.73 60.8926 268.039 61.0234 268.434 61.1797C268.82 61.3281 269.154 61.4844 269.436 61.6484C269.721 61.8086 269.939 62.0059 270.092 62.2402C270.244 62.4746 270.32 62.7773 270.32 63.1484ZM276.168 63.1484C276.168 63.5742 276.064 63.9336 275.857 64.2266C275.65 64.5195 275.348 64.7422 274.949 64.8945C274.555 65.043 274.07 65.1172 273.496 65.1172C273.043 65.1172 272.652 65.084 272.324 65.0176C272 64.9551 271.693 64.8574 271.404 64.7246V63.5352C271.713 63.6797 272.059 63.8047 272.441 63.9102C272.828 64.0156 273.193 64.0684 273.537 64.0684C273.99 64.0684 274.316 63.998 274.516 63.8574C274.715 63.7129 274.814 63.5215 274.814 63.2832C274.814 63.1426 274.773 63.0176 274.691 62.9082C274.613 62.7949 274.465 62.6797 274.246 62.5625C274.031 62.4414 273.715 62.2969 273.297 62.1289C272.887 61.9648 272.541 61.8008 272.26 61.6367C271.979 61.4727 271.766 61.2754 271.621 61.0449C271.477 60.8105 271.404 60.5117 271.404 60.1484C271.404 59.5742 271.631 59.1387 272.084 58.8418C272.541 58.541 273.145 58.3906 273.895 58.3906C274.293 58.3906 274.668 58.4316 275.02 58.5137C275.375 58.5918 275.723 58.707 276.062 58.8594L275.629 59.8965C275.336 59.7676 275.041 59.6621 274.744 59.5801C274.451 59.4941 274.152 59.4512 273.848 59.4512C273.492 59.4512 273.221 59.5059 273.033 59.6152C272.85 59.7246 272.758 59.8809 272.758 60.084C272.758 60.2363 272.803 60.3652 272.893 60.4707C272.982 60.5762 273.137 60.6816 273.355 60.7871C273.578 60.8926 273.887 61.0234 274.281 61.1797C274.668 61.3281 275.002 61.4844 275.283 61.6484C275.568 61.8086 275.787 62.0059 275.939 62.2402C276.092 62.4746 276.168 62.7773 276.168 63.1484ZM284.986 58.3906C285.713 58.3906 286.26 58.5781 286.627 58.9531C286.998 59.3281 287.184 59.9297 287.184 60.7578V65H285.807V61.0039C285.807 60.5117 285.711 60.1406 285.52 59.8906C285.328 59.6406 285.037 59.5156 284.646 59.5156C284.1 59.5156 283.705 59.6914 283.463 60.043C283.225 60.3906 283.105 60.8965 283.105 61.5605V65H281.729V61.0039C281.729 60.6758 281.686 60.4023 281.6 60.1836C281.518 59.9609 281.391 59.7949 281.219 59.6855C281.047 59.5723 280.83 59.5156 280.568 59.5156C280.189 59.5156 279.887 59.6016 279.66 59.7734C279.438 59.9453 279.277 60.1992 279.18 60.5352C279.082 60.8672 279.033 61.2754 279.033 61.7598V65H277.656V58.5137H278.729L278.922 59.3867H278.998C279.131 59.1602 279.295 58.9746 279.49 58.8301C279.689 58.6816 279.91 58.5723 280.152 58.502C280.395 58.4277 280.646 58.3906 280.908 58.3906C281.393 58.3906 281.801 58.4766 282.133 58.6484C282.465 58.8164 282.713 59.0742 282.877 59.4219H282.982C283.186 59.0703 283.469 58.8105 283.832 58.6426C284.195 58.4746 284.58 58.3906 284.986 58.3906ZM291.689 58.3906C292.268 58.3906 292.764 58.5098 293.178 58.748C293.592 58.9863 293.91 59.3242 294.133 59.7617C294.355 60.1992 294.467 60.7227 294.467 61.332V62.0703H290.137C290.152 62.6992 290.32 63.1836 290.641 63.5234C290.965 63.8633 291.418 64.0332 292 64.0332C292.414 64.0332 292.785 63.9941 293.113 63.916C293.445 63.834 293.787 63.7148 294.139 63.5586V64.6777C293.814 64.8301 293.484 64.9414 293.148 65.0117C292.812 65.082 292.41 65.1172 291.941 65.1172C291.305 65.1172 290.744 64.9941 290.26 64.748C289.779 64.498 289.402 64.127 289.129 63.6348C288.859 63.1426 288.725 62.5312 288.725 61.8008C288.725 61.0742 288.848 60.457 289.094 59.9492C289.34 59.4414 289.686 59.0547 290.131 58.7891C290.576 58.5234 291.096 58.3906 291.689 58.3906ZM291.689 59.4277C291.256 59.4277 290.904 59.5684 290.635 59.8496C290.369 60.1309 290.213 60.543 290.166 61.0859H293.119C293.115 60.7617 293.061 60.4746 292.955 60.2246C292.854 59.9746 292.697 59.7793 292.486 59.6387C292.279 59.498 292.014 59.4277 291.689 59.4277ZM299.4 58.3906C300.131 58.3906 300.699 58.5801 301.105 58.959C301.516 59.334 301.721 59.9375 301.721 60.7695V65H300.344V61.0273C300.344 60.5234 300.24 60.1465 300.033 59.8965C299.826 59.6426 299.506 59.5156 299.072 59.5156C298.443 59.5156 298.006 59.709 297.76 60.0957C297.518 60.4824 297.396 61.043 297.396 61.7773V65H296.02V58.5137H297.092L297.285 59.3926H297.361C297.502 59.166 297.676 58.9805 297.883 58.8359C298.094 58.6875 298.328 58.5762 298.586 58.502C298.848 58.4277 299.119 58.3906 299.4 58.3906ZM306.062 64.0039C306.242 64.0039 306.42 63.9883 306.596 63.957C306.771 63.9219 306.932 63.8809 307.076 63.834V64.877C306.924 64.9434 306.727 65 306.484 65.0469C306.242 65.0938 305.99 65.1172 305.729 65.1172C305.361 65.1172 305.031 65.0566 304.738 64.9355C304.445 64.8105 304.213 64.5977 304.041 64.2969C303.869 63.9961 303.783 63.5801 303.783 63.0488V59.5625H302.898V58.9473L303.848 58.4609L304.299 57.0723H305.166V58.5137H307.023V59.5625H305.166V63.0312C305.166 63.3594 305.248 63.6035 305.412 63.7637C305.576 63.9238 305.793 64.0039 306.062 64.0039ZM313.926 64.0039C314.105 64.0039 314.283 63.9883 314.459 63.957C314.635 63.9219 314.795 63.8809 314.939 63.834V64.877C314.787 64.9434 314.59 65 314.348 65.0469C314.105 65.0938 313.854 65.1172 313.592 65.1172C313.225 65.1172 312.895 65.0566 312.602 64.9355C312.309 64.8105 312.076 64.5977 311.904 64.2969C311.732 63.9961 311.646 63.5801 311.646 63.0488V59.5625H310.762V58.9473L311.711 58.4609L312.162 57.0723H313.029V58.5137H314.887V59.5625H313.029V63.0312C313.029 63.3594 313.111 63.6035 313.275 63.7637C313.439 63.9238 313.656 64.0039 313.926 64.0039ZM322 61.7422C322 62.2812 321.93 62.7598 321.789 63.1777C321.648 63.5957 321.443 63.9492 321.174 64.2383C320.904 64.5234 320.58 64.7422 320.201 64.8945C319.822 65.043 319.395 65.1172 318.918 65.1172C318.473 65.1172 318.064 65.043 317.693 64.8945C317.322 64.7422 317 64.5234 316.727 64.2383C316.457 63.9492 316.248 63.5957 316.1 63.1777C315.951 62.7598 315.877 62.2812 315.877 61.7422C315.877 61.0273 316 60.4219 316.246 59.9258C316.496 59.4258 316.852 59.0449 317.312 58.7832C317.773 58.5215 318.322 58.3906 318.959 58.3906C319.557 58.3906 320.084 58.5215 320.541 58.7832C320.998 59.0449 321.355 59.4258 321.613 59.9258C321.871 60.4258 322 61.0312 322 61.7422ZM317.295 61.7422C317.295 62.2148 317.352 62.6191 317.465 62.9551C317.582 63.291 317.762 63.5488 318.004 63.7285C318.246 63.9043 318.559 63.9922 318.941 63.9922C319.324 63.9922 319.637 63.9043 319.879 63.7285C320.121 63.5488 320.299 63.291 320.412 62.9551C320.525 62.6191 320.582 62.2148 320.582 61.7422C320.582 61.2695 320.525 60.8691 320.412 60.541C320.299 60.209 320.121 59.957 319.879 59.7852C319.637 59.6094 319.322 59.5215 318.936 59.5215C318.365 59.5215 317.949 59.7129 317.688 60.0957C317.426 60.4785 317.295 61.0273 317.295 61.7422ZM55.5625 85.8828C54.6836 85.8828 54.0098 85.7246 53.541 85.4082C53.0723 85.0918 52.8379 84.6484 52.8379 84.0781C52.8379 83.6797 52.9629 83.3418 53.2129 83.0645C53.4629 82.791 53.8203 82.6016 54.2852 82.4961C54.1094 82.418 53.957 82.2969 53.8281 82.1328C53.7031 81.9648 53.6406 81.7793 53.6406 81.5762C53.6406 81.334 53.709 81.127 53.8457 80.9551C53.9824 80.7832 54.1875 80.6172 54.4609 80.457C54.1211 80.3125 53.8477 80.0781 53.6406 79.7539C53.4375 79.4258 53.3359 79.041 53.3359 78.5996C53.3359 78.1309 53.4355 77.7324 53.6348 77.4043C53.834 77.0723 54.125 76.8203 54.5078 76.6484C54.8906 76.4727 55.3535 76.3848 55.8965 76.3848C56.0137 76.3848 56.1406 76.3926 56.2773 76.4082C56.418 76.4199 56.5469 76.4355 56.6641 76.4551C56.7852 76.4707 56.877 76.4883 56.9395 76.5078H59.1836V77.2754L58.082 77.4805C58.1875 77.6289 58.2715 77.7988 58.334 77.9902C58.3965 78.1777 58.4277 78.3828 58.4277 78.6055C58.4277 79.2773 58.1953 79.8066 57.7305 80.1934C57.2695 80.5762 56.6328 80.7676 55.8203 80.7676C55.625 80.7598 55.4355 80.7441 55.252 80.7207C55.1113 80.8066 55.0039 80.9023 54.9297 81.0078C54.8555 81.1094 54.8184 81.2246 54.8184 81.3535C54.8184 81.459 54.8555 81.5449 54.9297 81.6113C55.0039 81.6738 55.1133 81.7207 55.2578 81.752C55.4062 81.7832 55.5859 81.7988 55.7969 81.7988H56.916C57.627 81.7988 58.1699 81.9492 58.5449 82.25C58.9199 82.5508 59.1074 82.9922 59.1074 83.5742C59.1074 84.3125 58.8027 84.8809 58.1934 85.2793C57.584 85.6816 56.707 85.8828 55.5625 85.8828ZM55.6152 84.916C56.0957 84.916 56.5 84.8691 56.8281 84.7754C57.1562 84.6816 57.4043 84.5469 57.5723 84.3711C57.7402 84.1992 57.8242 83.9941 57.8242 83.7559C57.8242 83.5449 57.7715 83.3828 57.666 83.2695C57.5605 83.1562 57.4023 83.0781 57.1914 83.0352C56.9805 82.9922 56.7188 82.9707 56.4062 82.9707H55.3867C55.1328 82.9707 54.9082 83.0098 54.7129 83.0879C54.5176 83.1699 54.3652 83.2871 54.2559 83.4395C54.1504 83.5918 54.0977 83.7754 54.0977 83.9902C54.0977 84.2871 54.2285 84.5156 54.4902 84.6758C54.7559 84.8359 55.1309 84.916 55.6152 84.916ZM55.8848 79.8652C56.2871 79.8652 56.5859 79.7559 56.7812 79.5371C56.9766 79.3145 57.0742 79.002 57.0742 78.5996C57.0742 78.1621 56.9727 77.834 56.7695 77.6152C56.5703 77.3965 56.2734 77.2871 55.8789 77.2871C55.4922 77.2871 55.1973 77.3984 54.9941 77.6211C54.7949 77.8438 54.6953 78.1738 54.6953 78.6113C54.6953 79.0059 54.7949 79.3145 54.9941 79.5371C55.1973 79.7559 55.4941 79.8652 55.8848 79.8652ZM62.9512 76.3906C63.5293 76.3906 64.0254 76.5098 64.4395 76.748C64.8535 76.9863 65.1719 77.3242 65.3945 77.7617C65.6172 78.1992 65.7285 78.7227 65.7285 79.332V80.0703H61.3984C61.4141 80.6992 61.582 81.1836 61.9023 81.5234C62.2266 81.8633 62.6797 82.0332 63.2617 82.0332C63.6758 82.0332 64.0469 81.9941 64.375 81.916C64.707 81.834 65.0488 81.7148 65.4004 81.5586V82.6777C65.0762 82.8301 64.7461 82.9414 64.4102 83.0117C64.0742 83.082 63.6719 83.1172 63.2031 83.1172C62.5664 83.1172 62.0059 82.9941 61.5215 82.748C61.041 82.498 60.6641 82.127 60.3906 81.6348C60.1211 81.1426 59.9863 80.5312 59.9863 79.8008C59.9863 79.0742 60.1094 78.457 60.3555 77.9492C60.6016 77.4414 60.9473 77.0547 61.3926 76.7891C61.8379 76.5234 62.3574 76.3906 62.9512 76.3906ZM62.9512 77.4277C62.5176 77.4277 62.166 77.5684 61.8965 77.8496C61.6309 78.1309 61.4746 78.543 61.4277 79.0859H64.3809C64.377 78.7617 64.3223 78.4746 64.2168 78.2246C64.1152 77.9746 63.959 77.7793 63.748 77.6387C63.541 77.498 63.2754 77.4277 62.9512 77.4277ZM69.6953 82.0039C69.875 82.0039 70.0527 81.9883 70.2285 81.957C70.4043 81.9219 70.5645 81.8809 70.709 81.834V82.877C70.5566 82.9434 70.3594 83 70.1172 83.0469C69.875 83.0938 69.623 83.1172 69.3613 83.1172C68.9941 83.1172 68.6641 83.0566 68.3711 82.9355C68.0781 82.8105 67.8457 82.5977 67.6738 82.2969C67.502 81.9961 67.416 81.5801 67.416 81.0488V77.5625H66.5312V76.9473L67.4805 76.4609L67.9316 75.0723H68.7988V76.5137H70.6562V77.5625H68.7988V81.0312C68.7988 81.3594 68.8809 81.6035 69.0449 81.7637C69.209 81.9238 69.4258 82.0039 69.6953 82.0039ZM77.7578 83.1172C77.1445 83.1172 76.6133 82.998 76.1641 82.7598C75.7148 82.5215 75.3691 82.1562 75.127 81.6641C74.8848 81.1719 74.7637 80.5469 74.7637 79.7891C74.7637 79 74.8965 78.3555 75.1621 77.8555C75.4277 77.3555 75.7949 76.9863 76.2637 76.748C76.7363 76.5098 77.2773 76.3906 77.8867 76.3906C78.2734 76.3906 78.623 76.4297 78.9355 76.5078C79.252 76.582 79.5195 76.6738 79.7383 76.7832L79.3281 77.8848C79.0898 77.7871 78.8457 77.7051 78.5957 77.6387C78.3457 77.5723 78.1055 77.5391 77.875 77.5391C77.4961 77.5391 77.1797 77.623 76.9258 77.791C76.6758 77.959 76.4883 78.209 76.3633 78.541C76.2422 78.873 76.1816 79.2852 76.1816 79.7773C76.1816 80.2539 76.2441 80.6562 76.3691 80.9844C76.4941 81.3086 76.6797 81.5547 76.9258 81.7227C77.1719 81.8867 77.4746 81.9688 77.834 81.9688C78.1895 81.9688 78.5078 81.9258 78.7891 81.8398C79.0703 81.7539 79.3359 81.6426 79.5859 81.5059V82.7012C79.3398 82.8418 79.0762 82.9453 78.7949 83.0117C78.5137 83.082 78.168 83.1172 77.7578 83.1172ZM82.4922 83H81.1094V73.8828H82.4922V83ZM87.0039 76.3906C87.8242 76.3906 88.4434 76.5723 88.8613 76.9355C89.2832 77.2988 89.4941 77.8652 89.4941 78.6348V83H88.5156L88.252 82.0801H88.2051C88.0215 82.3145 87.832 82.5078 87.6367 82.6602C87.4414 82.8125 87.2148 82.9258 86.957 83C86.7031 83.0781 86.3926 83.1172 86.0254 83.1172C85.6387 83.1172 85.293 83.0469 84.9883 82.9062C84.6836 82.7617 84.4434 82.543 84.2676 82.25C84.0918 81.957 84.0039 81.5859 84.0039 81.1367C84.0039 80.4688 84.252 79.9668 84.748 79.6309C85.248 79.2949 86.002 79.1094 87.0098 79.0742L88.1348 79.0332V78.6934C88.1348 78.2441 88.0293 77.9238 87.8184 77.7324C87.6113 77.541 87.3184 77.4453 86.9395 77.4453C86.6152 77.4453 86.3008 77.4922 85.9961 77.5859C85.6914 77.6797 85.3945 77.7949 85.1055 77.9316L84.6602 76.959C84.9766 76.791 85.3359 76.6543 85.7383 76.5488C86.1445 76.4434 86.5664 76.3906 87.0039 76.3906ZM88.1289 79.9004L87.291 79.9297C86.6035 79.9531 86.1211 80.0703 85.8438 80.2812C85.5664 80.4922 85.4277 80.7812 85.4277 81.1484C85.4277 81.4688 85.5234 81.7031 85.7148 81.8516C85.9062 81.9961 86.1582 82.0684 86.4707 82.0684C86.9473 82.0684 87.3418 81.9336 87.6543 81.6641C87.9707 81.3906 88.1289 80.9902 88.1289 80.4629V79.9004ZM94.709 76.3906C94.8184 76.3906 94.9375 76.3965 95.0664 76.4082C95.1953 76.4199 95.3066 76.4355 95.4004 76.4551L95.2715 77.7441C95.1895 77.7207 95.0879 77.7031 94.9668 77.6914C94.8496 77.6797 94.7441 77.6738 94.6504 77.6738C94.4043 77.6738 94.1699 77.7148 93.9473 77.7969C93.7246 77.875 93.5273 77.9961 93.3555 78.1602C93.1836 78.3203 93.0488 78.5215 92.9512 78.7637C92.8535 79.0059 92.8047 79.2871 92.8047 79.6074V83H91.4219V76.5137H92.5L92.6875 77.6562H92.752C92.8809 77.4258 93.041 77.2148 93.2324 77.0234C93.4238 76.832 93.6426 76.6797 93.8887 76.5664C94.1387 76.4492 94.4121 76.3906 94.709 76.3906ZM97.9785 76.5137V83H96.6016V76.5137H97.9785ZM97.2988 74.0293C97.5098 74.0293 97.6914 74.0859 97.8438 74.1992C98 74.3125 98.0781 74.5078 98.0781 74.7852C98.0781 75.0586 98 75.2539 97.8438 75.3711C97.6914 75.4844 97.5098 75.541 97.2988 75.541C97.0801 75.541 96.8945 75.4844 96.7422 75.3711C96.5938 75.2539 96.5195 75.0586 96.5195 74.7852C96.5195 74.5078 96.5938 74.3125 96.7422 74.1992C96.8945 74.0859 97.0801 74.0293 97.2988 74.0293ZM102.367 82.0039C102.547 82.0039 102.725 81.9883 102.9 81.957C103.076 81.9219 103.236 81.8809 103.381 81.834V82.877C103.229 82.9434 103.031 83 102.789 83.0469C102.547 83.0938 102.295 83.1172 102.033 83.1172C101.666 83.1172 101.336 83.0566 101.043 82.9355C100.75 82.8105 100.518 82.5977 100.346 82.2969C100.174 81.9961 100.088 81.5801 100.088 81.0488V77.5625H99.2031V76.9473L100.152 76.4609L100.604 75.0723H101.471V76.5137H103.328V77.5625H101.471V81.0312C101.471 81.3594 101.553 81.6035 101.717 81.7637C101.881 81.9238 102.098 82.0039 102.367 82.0039ZM103.721 76.5137H105.221L106.551 80.2168C106.609 80.3848 106.662 80.5508 106.709 80.7148C106.76 80.875 106.803 81.0332 106.838 81.1895C106.877 81.3457 106.908 81.502 106.932 81.6582H106.967C107.006 81.4551 107.061 81.2285 107.131 80.9785C107.205 80.7246 107.287 80.4707 107.377 80.2168L108.654 76.5137H110.137L107.354 83.8906C107.193 84.3125 106.996 84.6719 106.762 84.9688C106.531 85.2695 106.258 85.4961 105.941 85.6484C105.625 85.8047 105.264 85.8828 104.857 85.8828C104.662 85.8828 104.492 85.8711 104.348 85.8477C104.203 85.8281 104.08 85.8066 103.979 85.7832V84.6816C104.061 84.7012 104.164 84.7188 104.289 84.7344C104.414 84.75 104.543 84.7578 104.676 84.7578C104.922 84.7578 105.135 84.709 105.314 84.6113C105.494 84.5137 105.646 84.375 105.771 84.1953C105.896 84.0195 106 83.8184 106.082 83.5918L106.311 82.9824L103.721 76.5137ZM119.98 79.7422C119.98 80.2812 119.91 80.7598 119.77 81.1777C119.629 81.5957 119.424 81.9492 119.154 82.2383C118.885 82.5234 118.561 82.7422 118.182 82.8945C117.803 83.043 117.375 83.1172 116.898 83.1172C116.453 83.1172 116.045 83.043 115.674 82.8945C115.303 82.7422 114.98 82.5234 114.707 82.2383C114.438 81.9492 114.229 81.5957 114.08 81.1777C113.932 80.7598 113.857 80.2812 113.857 79.7422C113.857 79.0273 113.98 78.4219 114.227 77.9258C114.477 77.4258 114.832 77.0449 115.293 76.7832C115.754 76.5215 116.303 76.3906 116.939 76.3906C117.537 76.3906 118.064 76.5215 118.521 76.7832C118.979 77.0449 119.336 77.4258 119.594 77.9258C119.852 78.4258 119.98 79.0312 119.98 79.7422ZM115.275 79.7422C115.275 80.2148 115.332 80.6191 115.445 80.9551C115.562 81.291 115.742 81.5488 115.984 81.7285C116.227 81.9043 116.539 81.9922 116.922 81.9922C117.305 81.9922 117.617 81.9043 117.859 81.7285C118.102 81.5488 118.279 81.291 118.393 80.9551C118.506 80.6191 118.562 80.2148 118.562 79.7422C118.562 79.2695 118.506 78.8691 118.393 78.541C118.279 78.209 118.102 77.957 117.859 77.7852C117.617 77.6094 117.303 77.5215 116.916 77.5215C116.346 77.5215 115.93 77.7129 115.668 78.0957C115.406 78.4785 115.275 79.0273 115.275 79.7422ZM124.943 76.3906C125.674 76.3906 126.242 76.5801 126.648 76.959C127.059 77.334 127.264 77.9375 127.264 78.7695V83H125.887V79.0273C125.887 78.5234 125.783 78.1465 125.576 77.8965C125.369 77.6426 125.049 77.5156 124.615 77.5156C123.986 77.5156 123.549 77.709 123.303 78.0957C123.061 78.4824 122.939 79.043 122.939 79.7773V83H121.562V76.5137H122.635L122.828 77.3926H122.904C123.045 77.166 123.219 76.9805 123.426 76.8359C123.637 76.6875 123.871 76.5762 124.129 76.502C124.391 76.4277 124.662 76.3906 124.943 76.3906ZM131.33 76.5137H132.83L134.16 80.2168C134.219 80.3848 134.271 80.5508 134.318 80.7148C134.369 80.875 134.412 81.0332 134.447 81.1895C134.486 81.3457 134.518 81.502 134.541 81.6582H134.576C134.615 81.4551 134.67 81.2285 134.74 80.9785C134.814 80.7246 134.896 80.4707 134.986 80.2168L136.264 76.5137H137.746L134.963 83.8906C134.803 84.3125 134.605 84.6719 134.371 84.9688C134.141 85.2695 133.867 85.4961 133.551 85.6484C133.234 85.8047 132.873 85.8828 132.467 85.8828C132.271 85.8828 132.102 85.8711 131.957 85.8477C131.812 85.8281 131.689 85.8066 131.588 85.7832V84.6816C131.67 84.7012 131.773 84.7188 131.898 84.7344C132.023 84.75 132.152 84.7578 132.285 84.7578C132.531 84.7578 132.744 84.709 132.924 84.6113C133.104 84.5137 133.256 84.375 133.381 84.1953C133.506 84.0195 133.609 83.8184 133.691 83.5918L133.92 82.9824L131.33 76.5137ZM144.473 79.7422C144.473 80.2812 144.402 80.7598 144.262 81.1777C144.121 81.5957 143.916 81.9492 143.646 82.2383C143.377 82.5234 143.053 82.7422 142.674 82.8945C142.295 83.043 141.867 83.1172 141.391 83.1172C140.945 83.1172 140.537 83.043 140.166 82.8945C139.795 82.7422 139.473 82.5234 139.199 82.2383C138.93 81.9492 138.721 81.5957 138.572 81.1777C138.424 80.7598 138.35 80.2812 138.35 79.7422C138.35 79.0273 138.473 78.4219 138.719 77.9258C138.969 77.4258 139.324 77.0449 139.785 76.7832C140.246 76.5215 140.795 76.3906 141.432 76.3906C142.029 76.3906 142.557 76.5215 143.014 76.7832C143.471 77.0449 143.828 77.4258 144.086 77.9258C144.344 78.4258 144.473 79.0312 144.473 79.7422ZM139.768 79.7422C139.768 80.2148 139.824 80.6191 139.938 80.9551C140.055 81.291 140.234 81.5488 140.477 81.7285C140.719 81.9043 141.031 81.9922 141.414 81.9922C141.797 81.9922 142.109 81.9043 142.352 81.7285C142.594 81.5488 142.771 81.291 142.885 80.9551C142.998 80.6191 143.055 80.2148 143.055 79.7422C143.055 79.2695 142.998 78.8691 142.885 78.541C142.771 78.209 142.594 77.957 142.352 77.7852C142.109 77.6094 141.795 77.5215 141.408 77.5215C140.838 77.5215 140.422 77.7129 140.16 78.0957C139.898 78.4785 139.768 79.0273 139.768 79.7422ZM151.709 76.5137V83H150.625L150.438 82.127H150.361C150.225 82.3496 150.051 82.5352 149.84 82.6836C149.629 82.8281 149.395 82.9355 149.137 83.0059C148.879 83.0801 148.607 83.1172 148.322 83.1172C147.834 83.1172 147.416 83.0352 147.068 82.8711C146.725 82.7031 146.461 82.4453 146.277 82.0977C146.094 81.75 146.002 81.3008 146.002 80.75V76.5137H147.385V80.4922C147.385 80.9961 147.486 81.373 147.689 81.623C147.896 81.873 148.217 81.998 148.65 81.998C149.068 81.998 149.4 81.9121 149.646 81.7402C149.893 81.5684 150.066 81.3145 150.168 80.9785C150.273 80.6426 150.326 80.2305 150.326 79.7422V76.5137H151.709ZM156.971 76.3906C157.08 76.3906 157.199 76.3965 157.328 76.4082C157.457 76.4199 157.568 76.4355 157.662 76.4551L157.533 77.7441C157.451 77.7207 157.35 77.7031 157.229 77.6914C157.111 77.6797 157.006 77.6738 156.912 77.6738C156.666 77.6738 156.432 77.7148 156.209 77.7969C155.986 77.875 155.789 77.9961 155.617 78.1602C155.445 78.3203 155.311 78.5215 155.213 78.7637C155.115 79.0059 155.066 79.2871 155.066 79.6074V83H153.684V76.5137H154.762L154.949 77.6562H155.014C155.143 77.4258 155.303 77.2148 155.494 77.0234C155.686 76.832 155.904 76.6797 156.15 76.5664C156.4 76.4492 156.674 76.3906 156.971 76.3906ZM169.311 76.3906C170.037 76.3906 170.584 76.5781 170.951 76.9531C171.322 77.3281 171.508 77.9297 171.508 78.7578V83H170.131V79.0039C170.131 78.5117 170.035 78.1406 169.844 77.8906C169.652 77.6406 169.361 77.5156 168.971 77.5156C168.424 77.5156 168.029 77.6914 167.787 78.043C167.549 78.3906 167.43 78.8965 167.43 79.5605V83H166.053V79.0039C166.053 78.6758 166.01 78.4023 165.924 78.1836C165.842 77.9609 165.715 77.7949 165.543 77.6855C165.371 77.5723 165.154 77.5156 164.893 77.5156C164.514 77.5156 164.211 77.6016 163.984 77.7734C163.762 77.9453 163.602 78.1992 163.504 78.5352C163.406 78.8672 163.357 79.2754 163.357 79.7598V83H161.98V76.5137H163.053L163.246 77.3867H163.322C163.455 77.1602 163.619 76.9746 163.814 76.8301C164.014 76.6816 164.234 76.5723 164.477 76.502C164.719 76.4277 164.971 76.3906 165.232 76.3906C165.717 76.3906 166.125 76.4766 166.457 76.6484C166.789 76.8164 167.037 77.0742 167.201 77.4219H167.307C167.51 77.0703 167.793 76.8105 168.156 76.6426C168.52 76.4746 168.904 76.3906 169.311 76.3906ZM179.172 79.7422C179.172 80.2812 179.102 80.7598 178.961 81.1777C178.82 81.5957 178.615 81.9492 178.346 82.2383C178.076 82.5234 177.752 82.7422 177.373 82.8945C176.994 83.043 176.566 83.1172 176.09 83.1172C175.645 83.1172 175.236 83.043 174.865 82.8945C174.494 82.7422 174.172 82.5234 173.898 82.2383C173.629 81.9492 173.42 81.5957 173.271 81.1777C173.123 80.7598 173.049 80.2812 173.049 79.7422C173.049 79.0273 173.172 78.4219 173.418 77.9258C173.668 77.4258 174.023 77.0449 174.484 76.7832C174.945 76.5215 175.494 76.3906 176.131 76.3906C176.729 76.3906 177.256 76.5215 177.713 76.7832C178.17 77.0449 178.527 77.4258 178.785 77.9258C179.043 78.4258 179.172 79.0312 179.172 79.7422ZM174.467 79.7422C174.467 80.2148 174.523 80.6191 174.637 80.9551C174.754 81.291 174.934 81.5488 175.176 81.7285C175.418 81.9043 175.73 81.9922 176.113 81.9922C176.496 81.9922 176.809 81.9043 177.051 81.7285C177.293 81.5488 177.471 81.291 177.584 80.9551C177.697 80.6191 177.754 80.2148 177.754 79.7422C177.754 79.2695 177.697 78.8691 177.584 78.541C177.471 78.209 177.293 77.957 177.051 77.7852C176.809 77.6094 176.494 77.5215 176.107 77.5215C175.537 77.5215 175.121 77.7129 174.859 78.0957C174.598 78.4785 174.467 79.0273 174.467 79.7422ZM186.496 79.7422C186.496 80.2812 186.426 80.7598 186.285 81.1777C186.145 81.5957 185.939 81.9492 185.67 82.2383C185.4 82.5234 185.076 82.7422 184.697 82.8945C184.318 83.043 183.891 83.1172 183.414 83.1172C182.969 83.1172 182.561 83.043 182.189 82.8945C181.818 82.7422 181.496 82.5234 181.223 82.2383C180.953 81.9492 180.744 81.5957 180.596 81.1777C180.447 80.7598 180.373 80.2812 180.373 79.7422C180.373 79.0273 180.496 78.4219 180.742 77.9258C180.992 77.4258 181.348 77.0449 181.809 76.7832C182.27 76.5215 182.818 76.3906 183.455 76.3906C184.053 76.3906 184.58 76.5215 185.037 76.7832C185.494 77.0449 185.852 77.4258 186.109 77.9258C186.367 78.4258 186.496 79.0312 186.496 79.7422ZM181.791 79.7422C181.791 80.2148 181.848 80.6191 181.961 80.9551C182.078 81.291 182.258 81.5488 182.5 81.7285C182.742 81.9043 183.055 81.9922 183.438 81.9922C183.82 81.9922 184.133 81.9043 184.375 81.7285C184.617 81.5488 184.795 81.291 184.908 80.9551C185.021 80.6191 185.078 80.2148 185.078 79.7422C185.078 79.2695 185.021 78.8691 184.908 78.541C184.795 78.209 184.617 77.957 184.375 77.7852C184.133 77.6094 183.818 77.5215 183.432 77.5215C182.861 77.5215 182.445 77.7129 182.184 78.0957C181.922 78.4785 181.791 79.0273 181.791 79.7422ZM190.258 83.1172C189.484 83.1172 188.863 82.8359 188.395 82.2734C187.93 81.707 187.697 80.873 187.697 79.7715C187.697 78.6582 187.934 77.8164 188.406 77.2461C188.883 76.6758 189.51 76.3906 190.287 76.3906C190.615 76.3906 190.902 76.4355 191.148 76.5254C191.395 76.6113 191.605 76.7285 191.781 76.877C191.961 77.0254 192.113 77.1914 192.238 77.375H192.303C192.283 77.2539 192.26 77.0801 192.232 76.8535C192.209 76.623 192.197 76.4102 192.197 76.2148V73.8828H193.58V83H192.502L192.256 82.1152H192.197C192.08 82.3027 191.932 82.4727 191.752 82.625C191.576 82.7734 191.365 82.8926 191.119 82.9824C190.877 83.0723 190.59 83.1172 190.258 83.1172ZM190.645 81.998C191.234 81.998 191.65 81.8281 191.893 81.4883C192.135 81.1484 192.26 80.6387 192.268 79.959V79.7773C192.268 79.0508 192.15 78.4941 191.916 78.1074C191.682 77.7168 191.254 77.5215 190.633 77.5215C190.137 77.5215 189.758 77.7227 189.496 78.125C189.238 78.5234 189.109 79.0801 189.109 79.7949C189.109 80.5098 189.238 81.0566 189.496 81.4355C189.758 81.8105 190.141 81.998 190.645 81.998ZM196.943 81.6055L197.025 81.7402C196.955 82.0215 196.865 82.3242 196.756 82.6484C196.646 82.9727 196.527 83.2969 196.398 83.6211C196.27 83.9492 196.139 84.2578 196.006 84.5469H194.998C195.08 84.2305 195.158 83.8984 195.232 83.5508C195.311 83.207 195.381 82.8672 195.443 82.5312C195.51 82.1914 195.562 81.8828 195.602 81.6055H196.943ZM206.301 81.1484C206.301 81.5742 206.197 81.9336 205.99 82.2266C205.783 82.5195 205.48 82.7422 205.082 82.8945C204.688 83.043 204.203 83.1172 203.629 83.1172C203.176 83.1172 202.785 83.084 202.457 83.0176C202.133 82.9551 201.826 82.8574 201.537 82.7246V81.5352C201.846 81.6797 202.191 81.8047 202.574 81.9102C202.961 82.0156 203.326 82.0684 203.67 82.0684C204.123 82.0684 204.449 81.998 204.648 81.8574C204.848 81.7129 204.947 81.5215 204.947 81.2832C204.947 81.1426 204.906 81.0176 204.824 80.9082C204.746 80.7949 204.598 80.6797 204.379 80.5625C204.164 80.4414 203.848 80.2969 203.43 80.1289C203.02 79.9648 202.674 79.8008 202.393 79.6367C202.111 79.4727 201.898 79.2754 201.754 79.0449C201.609 78.8105 201.537 78.5117 201.537 78.1484C201.537 77.5742 201.764 77.1387 202.217 76.8418C202.674 76.541 203.277 76.3906 204.027 76.3906C204.426 76.3906 204.801 76.4316 205.152 76.5137C205.508 76.5918 205.855 76.707 206.195 76.8594L205.762 77.8965C205.469 77.7676 205.174 77.6621 204.877 77.5801C204.584 77.4941 204.285 77.4512 203.98 77.4512C203.625 77.4512 203.354 77.5059 203.166 77.6152C202.982 77.7246 202.891 77.8809 202.891 78.084C202.891 78.2363 202.936 78.3652 203.025 78.4707C203.115 78.5762 203.27 78.6816 203.488 78.7871C203.711 78.8926 204.02 79.0234 204.414 79.1797C204.801 79.3281 205.135 79.4844 205.416 79.6484C205.701 79.8086 205.92 80.0059 206.072 80.2402C206.225 80.4746 206.301 80.7773 206.301 81.1484ZM210.203 82.0039C210.383 82.0039 210.561 81.9883 210.736 81.957C210.912 81.9219 211.072 81.8809 211.217 81.834V82.877C211.064 82.9434 210.867 83 210.625 83.0469C210.383 83.0938 210.131 83.1172 209.869 83.1172C209.502 83.1172 209.172 83.0566 208.879 82.9355C208.586 82.8105 208.354 82.5977 208.182 82.2969C208.01 81.9961 207.924 81.5801 207.924 81.0488V77.5625H207.039V76.9473L207.988 76.4609L208.439 75.0723H209.307V76.5137H211.164V77.5625H209.307V81.0312C209.307 81.3594 209.389 81.6035 209.553 81.7637C209.717 81.9238 209.934 82.0039 210.203 82.0039ZM215.822 76.3906C215.932 76.3906 216.051 76.3965 216.18 76.4082C216.309 76.4199 216.42 76.4355 216.514 76.4551L216.385 77.7441C216.303 77.7207 216.201 77.7031 216.08 77.6914C215.963 77.6797 215.857 77.6738 215.764 77.6738C215.518 77.6738 215.283 77.7148 215.061 77.7969C214.838 77.875 214.641 77.9961 214.469 78.1602C214.297 78.3203 214.162 78.5215 214.064 78.7637C213.967 79.0059 213.918 79.2871 213.918 79.6074V83H212.535V76.5137H213.613L213.801 77.6562H213.865C213.994 77.4258 214.154 77.2148 214.346 77.0234C214.537 76.832 214.756 76.6797 215.002 76.5664C215.252 76.4492 215.525 76.3906 215.822 76.3906ZM220.299 76.3906C220.877 76.3906 221.373 76.5098 221.787 76.748C222.201 76.9863 222.52 77.3242 222.742 77.7617C222.965 78.1992 223.076 78.7227 223.076 79.332V80.0703H218.746C218.762 80.6992 218.93 81.1836 219.25 81.5234C219.574 81.8633 220.027 82.0332 220.609 82.0332C221.023 82.0332 221.395 81.9941 221.723 81.916C222.055 81.834 222.396 81.7148 222.748 81.5586V82.6777C222.424 82.8301 222.094 82.9414 221.758 83.0117C221.422 83.082 221.02 83.1172 220.551 83.1172C219.914 83.1172 219.354 82.9941 218.869 82.748C218.389 82.498 218.012 82.127 217.738 81.6348C217.469 81.1426 217.334 80.5312 217.334 79.8008C217.334 79.0742 217.457 78.457 217.703 77.9492C217.949 77.4414 218.295 77.0547 218.74 76.7891C219.186 76.5234 219.705 76.3906 220.299 76.3906ZM220.299 77.4277C219.865 77.4277 219.514 77.5684 219.244 77.8496C218.979 78.1309 218.822 78.543 218.775 79.0859H221.729C221.725 78.7617 221.67 78.4746 221.564 78.2246C221.463 77.9746 221.307 77.7793 221.096 77.6387C220.889 77.498 220.623 77.4277 220.299 77.4277ZM228.988 81.1484C228.988 81.5742 228.885 81.9336 228.678 82.2266C228.471 82.5195 228.168 82.7422 227.77 82.8945C227.375 83.043 226.891 83.1172 226.316 83.1172C225.863 83.1172 225.473 83.084 225.145 83.0176C224.82 82.9551 224.514 82.8574 224.225 82.7246V81.5352C224.533 81.6797 224.879 81.8047 225.262 81.9102C225.648 82.0156 226.014 82.0684 226.357 82.0684C226.811 82.0684 227.137 81.998 227.336 81.8574C227.535 81.7129 227.635 81.5215 227.635 81.2832C227.635 81.1426 227.594 81.0176 227.512 80.9082C227.434 80.7949 227.285 80.6797 227.066 80.5625C226.852 80.4414 226.535 80.2969 226.117 80.1289C225.707 79.9648 225.361 79.8008 225.08 79.6367C224.799 79.4727 224.586 79.2754 224.441 79.0449C224.297 78.8105 224.225 78.5117 224.225 78.1484C224.225 77.5742 224.451 77.1387 224.904 76.8418C225.361 76.541 225.965 76.3906 226.715 76.3906C227.113 76.3906 227.488 76.4316 227.84 76.5137C228.195 76.5918 228.543 76.707 228.883 76.8594L228.449 77.8965C228.156 77.7676 227.861 77.6621 227.564 77.5801C227.271 77.4941 226.973 77.4512 226.668 77.4512C226.312 77.4512 226.041 77.5059 225.854 77.6152C225.67 77.7246 225.578 77.8809 225.578 78.084C225.578 78.2363 225.623 78.3652 225.713 78.4707C225.803 78.5762 225.957 78.6816 226.176 78.7871C226.398 78.8926 226.707 79.0234 227.102 79.1797C227.488 79.3281 227.822 79.4844 228.104 79.6484C228.389 79.8086 228.607 80.0059 228.76 80.2402C228.912 80.4746 228.988 80.7773 228.988 81.1484ZM234.836 81.1484C234.836 81.5742 234.732 81.9336 234.525 82.2266C234.318 82.5195 234.016 82.7422 233.617 82.8945C233.223 83.043 232.738 83.1172 232.164 83.1172C231.711 83.1172 231.32 83.084 230.992 83.0176C230.668 82.9551 230.361 82.8574 230.072 82.7246V81.5352C230.381 81.6797 230.727 81.8047 231.109 81.9102C231.496 82.0156 231.861 82.0684 232.205 82.0684C232.658 82.0684 232.984 81.998 233.184 81.8574C233.383 81.7129 233.482 81.5215 233.482 81.2832C233.482 81.1426 233.441 81.0176 233.359 80.9082C233.281 80.7949 233.133 80.6797 232.914 80.5625C232.699 80.4414 232.383 80.2969 231.965 80.1289C231.555 79.9648 231.209 79.8008 230.928 79.6367C230.646 79.4727 230.434 79.2754 230.289 79.0449C230.145 78.8105 230.072 78.5117 230.072 78.1484C230.072 77.5742 230.299 77.1387 230.752 76.8418C231.209 76.541 231.812 76.3906 232.562 76.3906C232.961 76.3906 233.336 76.4316 233.688 76.5137C234.043 76.5918 234.391 76.707 234.73 76.8594L234.297 77.8965C234.004 77.7676 233.709 77.6621 233.412 77.5801C233.119 77.4941 232.82 77.4512 232.516 77.4512C232.16 77.4512 231.889 77.5059 231.701 77.6152C231.518 77.7246 231.426 77.8809 231.426 78.084C231.426 78.2363 231.471 78.3652 231.561 78.4707C231.65 78.5762 231.805 78.6816 232.023 78.7871C232.246 78.8926 232.555 79.0234 232.949 79.1797C233.336 79.3281 233.67 79.4844 233.951 79.6484C234.236 79.8086 234.455 80.0059 234.607 80.2402C234.76 80.4746 234.836 80.7773 234.836 81.1484ZM237.713 81.6055L237.795 81.7402C237.725 82.0215 237.635 82.3242 237.525 82.6484C237.416 82.9727 237.297 83.2969 237.168 83.6211C237.039 83.9492 236.908 84.2578 236.775 84.5469H235.768C235.85 84.2305 235.928 83.8984 236.002 83.5508C236.08 83.207 236.15 82.8672 236.213 82.5312C236.279 82.1914 236.332 81.8828 236.371 81.6055H237.713ZM248.453 79.7422C248.453 80.2812 248.383 80.7598 248.242 81.1777C248.102 81.5957 247.896 81.9492 247.627 82.2383C247.357 82.5234 247.033 82.7422 246.654 82.8945C246.275 83.043 245.848 83.1172 245.371 83.1172C244.926 83.1172 244.518 83.043 244.146 82.8945C243.775 82.7422 243.453 82.5234 243.18 82.2383C242.91 81.9492 242.701 81.5957 242.553 81.1777C242.404 80.7598 242.33 80.2812 242.33 79.7422C242.33 79.0273 242.453 78.4219 242.699 77.9258C242.949 77.4258 243.305 77.0449 243.766 76.7832C244.227 76.5215 244.775 76.3906 245.412 76.3906C246.01 76.3906 246.537 76.5215 246.994 76.7832C247.451 77.0449 247.809 77.4258 248.066 77.9258C248.324 78.4258 248.453 79.0312 248.453 79.7422ZM243.748 79.7422C243.748 80.2148 243.805 80.6191 243.918 80.9551C244.035 81.291 244.215 81.5488 244.457 81.7285C244.699 81.9043 245.012 81.9922 245.395 81.9922C245.777 81.9922 246.09 81.9043 246.332 81.7285C246.574 81.5488 246.752 81.291 246.865 80.9551C246.979 80.6191 247.035 80.2148 247.035 79.7422C247.035 79.2695 246.979 78.8691 246.865 78.541C246.752 78.209 246.574 77.957 246.332 77.7852C246.09 77.6094 245.775 77.5215 245.389 77.5215C244.818 77.5215 244.402 77.7129 244.141 78.0957C243.879 78.4785 243.748 79.0273 243.748 79.7422ZM253.322 76.3906C253.432 76.3906 253.551 76.3965 253.68 76.4082C253.809 76.4199 253.92 76.4355 254.014 76.4551L253.885 77.7441C253.803 77.7207 253.701 77.7031 253.58 77.6914C253.463 77.6797 253.357 77.6738 253.264 77.6738C253.018 77.6738 252.783 77.7148 252.561 77.7969C252.338 77.875 252.141 77.9961 251.969 78.1602C251.797 78.3203 251.662 78.5215 251.564 78.7637C251.467 79.0059 251.418 79.2871 251.418 79.6074V83H250.035V76.5137H251.113L251.301 77.6562H251.365C251.494 77.4258 251.654 77.2148 251.846 77.0234C252.037 76.832 252.256 76.6797 252.502 76.5664C252.752 76.4492 253.025 76.3906 253.322 76.3906ZM260.875 76.3906C261.695 76.3906 262.314 76.5723 262.732 76.9355C263.154 77.2988 263.365 77.8652 263.365 78.6348V83H262.387L262.123 82.0801H262.076C261.893 82.3145 261.703 82.5078 261.508 82.6602C261.312 82.8125 261.086 82.9258 260.828 83C260.574 83.0781 260.264 83.1172 259.896 83.1172C259.51 83.1172 259.164 83.0469 258.859 82.9062C258.555 82.7617 258.314 82.543 258.139 82.25C257.963 81.957 257.875 81.5859 257.875 81.1367C257.875 80.4688 258.123 79.9668 258.619 79.6309C259.119 79.2949 259.873 79.1094 260.881 79.0742L262.006 79.0332V78.6934C262.006 78.2441 261.9 77.9238 261.689 77.7324C261.482 77.541 261.189 77.4453 260.811 77.4453C260.486 77.4453 260.172 77.4922 259.867 77.5859C259.562 77.6797 259.266 77.7949 258.977 77.9316L258.531 76.959C258.848 76.791 259.207 76.6543 259.609 76.5488C260.016 76.4434 260.438 76.3906 260.875 76.3906ZM262 79.9004L261.162 79.9297C260.475 79.9531 259.992 80.0703 259.715 80.2812C259.438 80.4922 259.299 80.7812 259.299 81.1484C259.299 81.4688 259.395 81.7031 259.586 81.8516C259.777 81.9961 260.029 82.0684 260.342 82.0684C260.818 82.0684 261.213 81.9336 261.525 81.6641C261.842 81.3906 262 80.9902 262 80.4629V79.9004ZM268.674 76.3906C269.404 76.3906 269.973 76.5801 270.379 76.959C270.789 77.334 270.994 77.9375 270.994 78.7695V83H269.617V79.0273C269.617 78.5234 269.514 78.1465 269.307 77.8965C269.1 77.6426 268.779 77.5156 268.346 77.5156C267.717 77.5156 267.279 77.709 267.033 78.0957C266.791 78.4824 266.67 79.043 266.67 79.7773V83H265.293V76.5137H266.365L266.559 77.3926H266.635C266.775 77.166 266.949 76.9805 267.156 76.8359C267.367 76.6875 267.602 76.5762 267.859 76.502C268.121 76.4277 268.393 76.3906 268.674 76.3906ZM274.357 79.6836L272.189 76.5137H273.76L275.242 78.793L276.73 76.5137H278.295L276.115 79.6836L278.406 83H276.83L275.242 80.5684L273.648 83H272.084L274.357 79.6836ZM280.908 76.5137V83H279.531V76.5137H280.908ZM280.229 74.0293C280.439 74.0293 280.621 74.0859 280.773 74.1992C280.93 74.3125 281.008 74.5078 281.008 74.7852C281.008 75.0586 280.93 75.2539 280.773 75.3711C280.621 75.4844 280.439 75.541 280.229 75.541C280.01 75.541 279.824 75.4844 279.672 75.3711C279.523 75.2539 279.449 75.0586 279.449 74.7852C279.449 74.5078 279.523 74.3125 279.672 74.1992C279.824 74.0859 280.01 74.0293 280.229 74.0293ZM285.467 76.3906C286.045 76.3906 286.541 76.5098 286.955 76.748C287.369 76.9863 287.688 77.3242 287.91 77.7617C288.133 78.1992 288.244 78.7227 288.244 79.332V80.0703H283.914C283.93 80.6992 284.098 81.1836 284.418 81.5234C284.742 81.8633 285.195 82.0332 285.777 82.0332C286.191 82.0332 286.562 81.9941 286.891 81.916C287.223 81.834 287.564 81.7148 287.916 81.5586V82.6777C287.592 82.8301 287.262 82.9414 286.926 83.0117C286.59 83.082 286.188 83.1172 285.719 83.1172C285.082 83.1172 284.521 82.9941 284.037 82.748C283.557 82.498 283.18 82.127 282.906 81.6348C282.637 81.1426 282.502 80.5312 282.502 79.8008C282.502 79.0742 282.625 78.457 282.871 77.9492C283.117 77.4414 283.463 77.0547 283.908 76.7891C284.354 76.5234 284.873 76.3906 285.467 76.3906ZM285.467 77.4277C285.033 77.4277 284.682 77.5684 284.412 77.8496C284.146 78.1309 283.99 78.543 283.943 79.0859H286.896C286.893 78.7617 286.838 78.4746 286.732 78.2246C286.631 77.9746 286.475 77.7793 286.264 77.6387C286.057 77.498 285.791 77.4277 285.467 77.4277ZM292.211 82.0039C292.391 82.0039 292.568 81.9883 292.744 81.957C292.92 81.9219 293.08 81.8809 293.225 81.834V82.877C293.072 82.9434 292.875 83 292.633 83.0469C292.391 83.0938 292.139 83.1172 291.877 83.1172C291.51 83.1172 291.18 83.0566 290.887 82.9355C290.594 82.8105 290.361 82.5977 290.189 82.2969C290.018 81.9961 289.932 81.5801 289.932 81.0488V77.5625H289.047V76.9473L289.996 76.4609L290.447 75.0723H291.314V76.5137H293.172V77.5625H291.314V81.0312C291.314 81.3594 291.396 81.6035 291.561 81.7637C291.725 81.9238 291.941 82.0039 292.211 82.0039ZM293.564 76.5137H295.064L296.395 80.2168C296.453 80.3848 296.506 80.5508 296.553 80.7148C296.604 80.875 296.646 81.0332 296.682 81.1895C296.721 81.3457 296.752 81.502 296.775 81.6582H296.811C296.85 81.4551 296.904 81.2285 296.975 80.9785C297.049 80.7246 297.131 80.4707 297.221 80.2168L298.498 76.5137H299.98L297.197 83.8906C297.037 84.3125 296.84 84.6719 296.605 84.9688C296.375 85.2695 296.102 85.4961 295.785 85.6484C295.469 85.8047 295.107 85.8828 294.701 85.8828C294.506 85.8828 294.336 85.8711 294.191 85.8477C294.047 85.8281 293.924 85.8066 293.822 85.7832V84.6816C293.904 84.7012 294.008 84.7188 294.133 84.7344C294.258 84.75 294.387 84.7578 294.52 84.7578C294.766 84.7578 294.979 84.709 295.158 84.6113C295.338 84.5137 295.49 84.375 295.615 84.1953C295.74 84.0195 295.844 83.8184 295.926 83.5918L296.154 82.9824L293.564 76.5137ZM300.766 82.2734C300.766 81.9531 300.848 81.7285 301.012 81.5996C301.18 81.4668 301.383 81.4004 301.621 81.4004C301.859 81.4004 302.062 81.4668 302.23 81.5996C302.402 81.7285 302.488 81.9531 302.488 82.2734C302.488 82.5859 302.402 82.8125 302.23 82.9531C302.062 83.0898 301.859 83.1582 301.621 83.1582C301.383 83.1582 301.18 83.0898 301.012 82.9531C300.848 82.8125 300.766 82.5859 300.766 82.2734Z" fill="#1F160F" fill-opacity="0.64"/>
<rect x="207" y="94" width="102" height="24" rx="12" fill="#D0BCFF" fill-opacity="0.5"/>
<path d="M220.051 103H221.621L224.161 110H222.696L222.276 108.84H219.396L218.976 110H217.511L220.051 103ZM219.901 107.46H221.771L220.831 104.895L219.901 107.46ZM228.68 110.13C228.12 110.13 227.627 109.993 227.2 109.72C226.777 109.447 226.445 109.08 226.205 108.62C225.968 108.157 225.85 107.643 225.85 107.08V103H227.23V107.08C227.23 107.383 227.287 107.662 227.4 107.915C227.513 108.168 227.678 108.372 227.895 108.525C228.112 108.675 228.373 108.75 228.68 108.75C228.99 108.75 229.252 108.675 229.465 108.525C229.682 108.375 229.845 108.173 229.955 107.92C230.065 107.667 230.12 107.387 230.12 107.08V103H231.5V107.08C231.5 107.503 231.432 107.9 231.295 108.27C231.162 108.637 230.97 108.96 230.72 109.24C230.47 109.52 230.172 109.738 229.825 109.895C229.482 110.052 229.1 110.13 228.68 110.13ZM238.996 103V104.38H236.936V110H235.556V104.38H233.496V103H238.996ZM245.035 103H246.415V110H245.035V106.94H242.375V110H240.995V103H242.375V105.56H245.035V103ZM251.866 110.13C251.392 110.13 250.947 110.037 250.531 109.85C250.114 109.66 249.747 109.398 249.431 109.065C249.114 108.732 248.866 108.347 248.686 107.91C248.506 107.47 248.416 107 248.416 106.5C248.416 106 248.506 105.532 248.686 105.095C248.866 104.655 249.114 104.268 249.431 103.935C249.747 103.602 250.114 103.342 250.531 103.155C250.947 102.965 251.392 102.87 251.866 102.87C252.342 102.87 252.789 102.965 253.206 103.155C253.622 103.342 253.989 103.602 254.306 103.935C254.622 104.268 254.869 104.655 255.046 105.095C255.226 105.532 255.316 106 255.316 106.5C255.316 107 255.226 107.47 255.046 107.91C254.869 108.347 254.622 108.732 254.306 109.065C253.989 109.398 253.622 109.66 253.206 109.85C252.789 110.037 252.342 110.13 251.866 110.13ZM251.866 108.75C252.149 108.75 252.416 108.692 252.666 108.575C252.916 108.455 253.136 108.292 253.326 108.085C253.516 107.878 253.664 107.64 253.771 107.37C253.881 107.1 253.936 106.81 253.936 106.5C253.936 106.19 253.881 105.9 253.771 105.63C253.664 105.357 253.516 105.118 253.326 104.915C253.136 104.708 252.916 104.547 252.666 104.43C252.416 104.31 252.149 104.25 251.866 104.25C251.582 104.25 251.316 104.31 251.066 104.43C250.816 104.547 250.596 104.708 250.406 104.915C250.216 105.122 250.066 105.36 249.956 105.63C249.849 105.9 249.796 106.19 249.796 106.5C249.796 106.81 249.849 107.102 249.956 107.375C250.066 107.645 250.216 107.883 250.406 108.09C250.596 108.293 250.816 108.455 251.066 108.575C251.316 108.692 251.582 108.75 251.866 108.75ZM257.194 110V103H259.974C260.354 103 260.697 103.097 261.004 103.29C261.314 103.48 261.559 103.737 261.739 104.06C261.922 104.38 262.014 104.735 262.014 105.125C262.014 105.432 261.96 105.717 261.854 105.98C261.747 106.24 261.597 106.468 261.404 106.665C261.21 106.862 260.985 107.015 260.729 107.125L262.394 110H260.804L259.209 107.25H258.574V110H257.194ZM258.574 105.87H259.809C259.959 105.87 260.095 105.833 260.219 105.76C260.345 105.683 260.445 105.582 260.519 105.455C260.595 105.325 260.634 105.182 260.634 105.025C260.634 104.872 260.595 104.732 260.519 104.605C260.445 104.475 260.345 104.372 260.219 104.295C260.095 104.218 259.959 104.18 259.809 104.18H258.574V105.87ZM267.807 110V103H269.297L272.027 107.505V103H273.407V110H271.917L269.187 105.495V110H267.807ZM277.944 103H279.514L282.054 110H280.589L280.169 108.84H277.289L276.869 110H275.404L277.944 103ZM277.794 107.46H279.664L278.724 104.895L277.794 107.46ZM283.655 110L285.015 103H286.18L287.805 107.285L289.435 103H290.6L291.96 110H290.55L289.775 105.985L288.28 109.93H287.33L285.84 105.985L285.06 110H283.655ZM293.961 110V103H298.391V104.38H295.341V105.56H297.721V106.94H295.341V108.62H298.391V110H293.961Z" fill="#450BC8"/>
<rect x="147" y="137" width="8" height="8" rx="4" fill="#450BC8"/>
<rect x="163" y="137" width="8" height="8" rx="4" fill="#D0BCFF"/>
<rect x="179" y="137" width="8" height="8" rx="4" fill="#D0BCFF"/>
<rect x="195" y="137" width="8" height="8" rx="4" fill="#D0BCFF"/>
<rect x="211" y="137" width="8" height="8" rx="4" fill="#D0BCFF"/>
</svg>
